<svg width="200" height="200" viewBox="0 0 200 200" fill="none" xmlns="http://www.w3.org/2000/svg">
<path d="M176 0C189.255 0 200 10.7452 200 24V176C200 189.255 189.255 200 176 200H24C10.7452 200 0 189.255 0 176V24C0 10.7452 10.7452 0 24 0H176ZM99.6279 74.9678C96.2871 74.9678 93.1576 75.6268 90.2402 76.9443C87.323 78.2619 84.7584 80.0966 82.5469 82.4492C80.3823 84.802 78.665 87.532 77.3945 90.6377C76.1711 93.6963 75.5596 96.9904 75.5596 100.52C75.5596 104.002 76.1944 107.248 77.4648 110.26C78.7824 113.271 80.5472 115.93 82.7588 118.235C85.0175 120.494 87.6292 122.283 90.5938 123.601C93.6053 124.871 96.8054 125.506 100.193 125.506C103.487 125.506 106.569 124.847 109.439 123.529C112.357 122.212 114.921 120.4 117.133 118.095C119.344 115.742 121.063 113.059 122.286 110.048C123.557 106.989 124.191 103.743 124.191 100.308C124.191 96.7314 123.532 93.4141 122.215 90.3555C120.944 87.2969 119.204 84.6143 116.992 82.3086C114.781 80.0029 112.169 78.2148 109.157 76.9443C106.193 75.6268 103.016 74.9678 99.6279 74.9678ZM152.68 74.9678C150.562 74.9678 148.327 75.2973 145.975 75.9561C143.622 76.5678 141.34 77.5321 139.128 78.8496C136.916 80.1201 134.916 81.7434 133.128 83.7197C131.34 85.6961 129.905 88.0258 128.822 90.708C127.787 93.3431 127.27 96.3552 127.27 99.7432C127.27 103.272 127.787 106.425 128.822 109.201C129.905 111.93 131.34 114.33 133.128 116.4C134.963 118.424 136.987 120.095 139.198 121.412C141.41 122.73 143.669 123.718 145.975 124.377C148.28 125.036 150.469 125.365 152.539 125.365C155.033 125.365 157.174 125.082 158.962 124.518C160.75 124 162.185 123.435 163.268 122.823C164.35 122.164 165.08 121.741 165.456 121.553C166.303 121.035 167.103 120.471 167.855 119.859C168.608 119.201 168.985 118.377 168.985 117.389C169.032 116.824 168.938 116.259 168.703 115.694C168.468 115.083 168.138 114.471 167.715 113.859C167.009 112.73 166.303 111.906 165.597 111.389C164.938 110.871 164.28 110.612 163.621 110.612C163.056 110.612 162.491 110.754 161.927 111.036C161.409 111.318 160.892 111.625 160.374 111.954C159.856 112.283 159.221 112.66 158.468 113.083C157.762 113.459 156.892 113.789 155.856 114.071C154.868 114.354 153.668 114.495 152.257 114.495C150.657 114.495 149.009 114.212 147.315 113.647C145.669 113.036 144.139 112.142 142.728 110.966C141.316 109.789 140.164 108.307 139.27 106.519C138.423 104.73 137.999 102.59 137.999 100.096C137.999 97.6958 138.423 95.6016 139.27 93.8135C140.117 91.9784 141.246 90.4722 142.657 89.2959C144.069 88.1196 145.598 87.2492 147.245 86.6846C148.939 86.0728 150.61 85.7666 152.257 85.7666C153.856 85.7666 155.174 85.9314 156.209 86.2607C157.244 86.5431 158.068 86.8726 158.68 87.249C159.291 87.5784 159.762 87.8614 160.092 88.0967C160.844 88.5671 161.456 88.9433 161.927 89.2256C162.444 89.5079 162.985 89.6494 163.55 89.6494C164.256 89.6494 164.938 89.4138 165.597 88.9434C166.302 88.4258 167.032 87.6261 167.785 86.5439C168.209 85.9322 168.515 85.3672 168.703 84.8496C168.938 84.2849 169.056 83.7199 169.056 83.1553C169.009 82.0731 168.608 81.2027 167.855 80.5439C167.103 79.8852 166.303 79.2969 165.456 78.7793C165.174 78.544 164.467 78.1438 163.338 77.5791C162.209 76.9674 160.75 76.3791 158.962 75.8145C157.174 75.2498 155.079 74.9678 152.68 74.9678ZM35.4678 75.4619C33.7268 75.4149 32.4794 75.6504 31.7266 76.168C30.9739 76.6855 30.5036 77.368 30.3154 78.2148C30.1272 79.0147 30.0332 79.8619 30.0332 80.7559V119.365C30.0332 120.306 30.1506 121.2 30.3857 122.047C30.621 122.847 31.092 123.506 31.7979 124.023C32.5508 124.541 33.7506 124.8 35.3975 124.8H47.9609C51.443 124.8 54.6431 124.165 57.5605 122.895C60.5251 121.624 63.1136 119.883 65.3252 117.671C67.5367 115.412 69.2541 112.777 70.4775 109.766C71.701 106.707 72.3125 103.413 72.3125 99.8838C72.3125 96.4017 71.701 93.1784 70.4775 90.2139C69.2541 87.2493 67.5368 84.6608 65.3252 82.4492C63.1137 80.2377 60.5491 78.5203 57.6318 77.2969C54.7144 76.0734 51.5609 75.4619 48.1729 75.4619H35.4678ZM99.8398 85.6963C101.722 85.6963 103.464 86.0733 105.063 86.8262C106.71 87.5791 108.146 88.6374 109.369 90.002C110.64 91.3195 111.628 92.873 112.334 94.6611C113.04 96.4019 113.393 98.2604 113.393 100.236C113.393 102.307 113.04 104.236 112.334 106.024C111.675 107.765 110.71 109.295 109.439 110.612C108.216 111.883 106.781 112.895 105.134 113.647C103.487 114.4 101.722 114.777 99.8398 114.777C97.9578 114.777 96.217 114.4 94.6172 113.647C93.0173 112.895 91.582 111.86 90.3115 110.542C89.0881 109.224 88.0996 107.695 87.3467 105.954C86.6409 104.166 86.2881 102.284 86.2881 100.308C86.2881 98.2844 86.641 96.4021 87.3467 94.6611C88.0996 92.873 89.0881 91.3195 90.3115 90.002C91.582 88.6374 93.0174 87.579 94.6172 86.8262C96.264 86.0733 98.0048 85.6963 99.8398 85.6963ZM48.1025 86.1904C50.6905 86.1904 52.9962 86.8021 55.0195 88.0254C57.0429 89.2018 58.6429 90.8493 59.8193 92.9668C60.9957 95.0843 61.584 97.4839 61.584 100.166C61.584 102.848 60.9957 105.224 59.8193 107.295C58.6429 109.365 57.0429 111.013 55.0195 112.236C52.9962 113.413 50.7138 114.001 48.1729 114.001H40.7617V86.1904H48.1025Z" fill="#2684FF"/>
</svg>
