<svg width="200" height="200" viewBox="0 0 200 200" fill="none" xmlns="http://www.w3.org/2000/svg">
<path d="M176 0C189.255 0 200 10.7452 200 24V176C200 189.255 189.255 200 176 200H24C10.7452 200 0 189.255 0 176V24C0 10.7452 10.7452 0 24 0H176ZM172.859 79.667C172.202 79.4349 171.563 79.4738 170.944 79.7832C170.325 80.0926 169.649 80.6925 168.914 81.582L158.499 93.7432L148.085 81.582C147.35 80.6924 146.673 80.0926 146.054 79.7832C145.435 79.4739 144.797 79.4351 144.14 79.667C143.482 79.899 142.728 80.4213 141.877 81.2334C140.601 82.355 139.962 83.3803 139.962 84.3086C139.962 85.2369 140.504 86.281 141.587 87.4414L152.751 100.455L141.587 113.492C140.504 114.691 139.962 115.736 139.962 116.626C139.962 117.516 140.601 118.521 141.877 119.643C142.766 120.416 143.54 120.919 144.197 121.151C144.855 121.383 145.493 121.345 146.112 121.035C146.731 120.726 147.389 120.146 148.085 119.295L158.499 107.155L168.914 119.295C169.649 120.146 170.307 120.726 170.887 121.035C171.505 121.344 172.143 121.383 172.801 121.151C173.458 120.919 174.232 120.416 175.122 119.643C176.437 118.521 177.075 117.515 177.036 116.626C177.036 115.736 176.495 114.691 175.412 113.492L164.247 100.455L175.412 87.4414C176.495 86.2812 177.036 85.2368 177.036 84.3086C177.075 83.3803 176.437 82.355 175.122 81.2334C174.271 80.4212 173.517 79.8991 172.859 79.667ZM79.959 79.7256C77.2127 79.7256 74.6403 80.2666 72.2422 81.3496C69.8441 82.4326 67.7359 83.9411 65.918 85.875C64.1387 87.809 62.727 90.0526 61.6826 92.6055C60.6769 95.1196 60.1748 97.8275 60.1748 100.729C60.1748 103.591 60.6969 106.26 61.7412 108.735C62.8242 111.211 64.2749 113.396 66.0928 115.291C67.9493 117.147 70.0956 118.617 72.5322 119.7C75.0076 120.745 77.638 121.268 80.4229 121.268C83.1303 121.268 85.664 120.726 88.0234 119.643C90.4216 118.56 92.5297 117.07 94.3477 115.175C96.1656 113.241 97.5774 111.036 98.583 108.561C99.6272 106.047 100.149 103.378 100.149 100.555C100.149 97.615 99.6084 94.8872 98.5254 92.373C97.4811 89.859 96.0493 87.655 94.2314 85.7598C92.4136 83.8645 90.2674 82.394 87.792 81.3496C85.3552 80.2666 82.7439 79.7256 79.959 79.7256ZM123.567 79.7256C121.827 79.7256 119.989 79.9956 118.055 80.5371C116.121 81.0399 114.245 81.833 112.427 82.916C110.609 83.9603 108.965 85.2954 107.495 86.9199C106.025 88.5444 104.846 90.4595 103.956 92.6641C103.105 94.8299 102.68 97.3052 102.68 100.09C102.68 102.991 103.105 105.582 103.956 107.864C104.846 110.107 106.025 112.08 107.495 113.782C109.004 115.445 110.667 116.819 112.485 117.902C114.303 118.985 116.16 119.797 118.055 120.339C119.95 120.88 121.749 121.151 123.451 121.151C125.501 121.151 127.261 120.919 128.73 120.455C130.2 120.03 131.38 119.565 132.27 119.062C133.159 118.521 133.759 118.173 134.068 118.019C134.765 117.593 135.422 117.129 136.041 116.626C136.66 116.084 136.97 115.407 136.97 114.595C137.008 114.131 136.931 113.666 136.737 113.202C136.544 112.699 136.273 112.197 135.925 111.694C135.345 110.766 134.765 110.089 134.185 109.663C133.643 109.238 133.101 109.025 132.56 109.025C132.096 109.025 131.632 109.141 131.168 109.373C130.742 109.605 130.316 109.857 129.891 110.128C129.465 110.399 128.943 110.708 128.324 111.056C127.744 111.365 127.029 111.636 126.178 111.868C125.365 112.1 124.379 112.216 123.219 112.216C121.904 112.216 120.55 111.984 119.157 111.52C117.804 111.017 116.546 110.282 115.386 109.315C114.225 108.348 113.278 107.13 112.543 105.66C111.847 104.19 111.499 102.43 111.499 100.38C111.499 98.4075 111.847 96.6865 112.543 95.2168C113.239 93.7083 114.168 92.4699 115.328 91.5029C116.488 90.536 117.746 89.8206 119.1 89.3564C120.492 88.8537 121.865 88.6026 123.219 88.6025C124.534 88.6025 125.617 88.738 126.468 89.0088C127.319 89.2409 127.996 89.5109 128.499 89.8203C129.002 90.091 129.388 90.3232 129.659 90.5166C130.278 90.9034 130.781 91.2132 131.168 91.4453C131.593 91.6772 132.038 91.793 132.502 91.793C133.082 91.793 133.643 91.5997 134.185 91.2129C134.765 90.7874 135.365 90.1298 135.983 89.2402C136.331 88.7375 136.583 88.2731 136.737 87.8477C136.931 87.3836 137.027 86.9191 137.027 86.4551C136.989 85.5657 136.66 84.85 136.041 84.3086C135.422 83.7671 134.765 83.2838 134.068 82.8584C133.836 82.665 133.256 82.3361 132.328 81.8721C131.4 81.3692 130.2 80.886 128.73 80.4219C127.261 79.9578 125.54 79.7256 123.567 79.7256ZM27.2197 80.1318C25.7886 80.0932 24.7634 80.2864 24.1445 80.7119C23.5258 81.1374 23.1391 81.6984 22.9844 82.3945C22.8297 83.0519 22.752 83.7478 22.752 84.4824V116.22C22.752 116.993 22.8487 117.728 23.042 118.424C23.2354 119.081 23.6229 119.623 24.2031 120.049C24.822 120.474 25.8085 120.687 27.1621 120.687H37.4893C40.3515 120.687 42.9818 120.164 45.3799 119.12C47.8166 118.076 49.9439 116.645 51.7617 114.827C53.5796 112.971 54.9914 110.804 55.9971 108.329C57.0027 105.815 57.5059 103.107 57.5059 100.206C57.5058 97.3439 57.0027 94.6946 55.9971 92.2578C54.9914 89.821 53.5797 87.6929 51.7617 85.875C49.9438 84.0572 47.8355 82.6453 45.4375 81.6396C43.0395 80.6341 40.4479 80.1318 37.6631 80.1318H27.2197ZM80.1328 88.5439C81.68 88.5439 83.1117 88.8538 84.4268 89.4727C85.7804 90.0915 86.9602 90.9614 87.9658 92.083C89.0102 93.166 89.8221 94.4433 90.4023 95.9131C90.9824 97.3441 91.2724 98.8717 91.2725 100.496C91.2725 102.198 90.9825 103.784 90.4023 105.254C89.8608 106.685 89.0678 107.942 88.0234 109.025C87.0178 110.07 85.838 110.901 84.4844 111.52C83.1306 112.138 81.68 112.448 80.1328 112.448C78.5857 112.448 77.1549 112.138 75.8398 111.52C74.5247 110.901 73.3451 110.05 72.3008 108.967C71.2952 107.884 70.4821 106.627 69.8633 105.196C69.2831 103.727 68.9932 102.179 68.9932 100.555C68.9932 98.8916 69.2832 97.3441 69.8633 95.9131C70.4822 94.4433 71.2951 93.166 72.3008 92.083C73.345 90.9615 74.5249 90.0915 75.8398 89.4727C77.1935 88.8539 78.6245 88.544 80.1328 88.5439ZM37.6055 88.9502C39.7327 88.9502 41.6279 89.4534 43.291 90.459C44.9542 91.426 46.2693 92.7799 47.2363 94.5205C48.2033 96.2611 48.6865 98.2338 48.6865 100.438C48.6865 102.643 48.2032 104.596 47.2363 106.298C46.2693 108 44.9542 109.354 43.291 110.359C41.6278 111.326 39.7518 111.81 37.6631 111.81H31.5713V88.9502H37.6055Z" fill="#2684FF"/>
</svg>
