<svg width="200" height="200" viewBox="0 0 200 200" fill="none" xmlns="http://www.w3.org/2000/svg">
<path d="M176 0C189.255 0 200 10.7452 200 24V176C200 189.255 189.255 200 176 200H24C10.7452 200 0 189.255 0 176V24C0 10.7452 10.7452 0 24 0H176ZM95.2861 66.7627C93.8084 66.7627 92.6516 66.8266 91.8164 66.9551C91.0457 67.0836 90.4035 67.3088 89.8896 67.6299C89.3757 67.9511 88.8617 68.4337 88.3477 69.0762L67.291 97.3984L46.3281 69.0762C45.8784 68.6264 45.4607 68.2402 45.0752 67.9189C44.6897 67.5335 44.0792 67.2445 43.2441 67.0518C42.4089 66.859 41.1882 66.7627 39.582 66.7627C37.2048 66.7627 35.5016 67.1165 34.4736 67.8232C33.4459 68.5299 32.8038 69.4294 32.5469 70.5215C32.2899 71.5495 32.1611 72.6738 32.1611 73.8945V126.611C32.1611 127.896 32.2899 129.117 32.5469 130.273C32.8039 131.366 33.4142 132.265 34.3779 132.972C35.4059 133.678 37.0759 134.032 39.3887 134.032C41.7659 134.032 43.4366 133.678 44.4004 132.972C45.4283 132.265 46.0711 131.366 46.3281 130.273C46.5851 129.181 46.7139 128.024 46.7139 126.804V92.3018L60.9766 112.541C61.2978 112.927 61.684 113.376 62.1338 113.89C62.5835 114.404 63.1939 114.854 63.9648 115.239C64.8001 115.625 65.9246 115.817 67.3379 115.817C68.6868 115.817 69.7467 115.625 70.5176 115.239C71.3528 114.854 71.9956 114.404 72.4453 113.89C72.895 113.311 73.2489 112.862 73.5059 112.541L87.8652 92.2061V126.611C87.8652 127.832 87.994 129.02 88.251 130.177C88.508 131.333 89.1507 132.265 90.1787 132.972C91.2066 133.678 92.8767 134.032 95.1895 134.032C97.5667 134.032 99.2699 133.678 100.298 132.972C101.326 132.265 101.969 131.366 102.226 130.273C102.483 129.181 102.61 128.024 102.61 126.804V74.0869C102.61 72.8665 102.482 71.7102 102.226 70.6182C101.969 69.4618 101.326 68.53 100.298 67.8232C99.2699 67.1165 97.5991 66.7627 95.2861 66.7627ZM117.882 66.666C115.505 66.6018 113.801 66.9231 112.773 67.6299C111.746 68.3366 111.104 69.2685 110.847 70.4248C110.59 71.5171 110.461 72.6738 110.461 73.8945V126.611C110.461 127.896 110.621 129.117 110.942 130.273C111.264 131.366 111.906 132.265 112.87 132.972C113.898 133.678 115.536 134.032 117.785 134.032H134.939C139.694 134.032 144.063 133.164 148.047 131.43C152.095 129.695 155.629 127.319 158.648 124.299C161.668 121.215 164.013 117.617 165.684 113.505C167.354 109.329 168.189 104.83 168.189 100.012C168.189 95.2574 167.354 90.8562 165.684 86.8086C164.013 82.7609 161.668 79.2268 158.648 76.207C155.629 73.1874 152.127 70.8424 148.144 69.1719C144.16 67.5014 139.854 66.666 135.229 66.666H117.882ZM135.133 81.3154C138.666 81.3155 141.814 82.1508 144.577 83.8213C147.34 85.4275 149.525 87.6761 151.131 90.5674C152.737 93.4586 153.54 96.7353 153.54 100.397C153.54 104.06 152.737 107.304 151.131 110.131C149.525 112.958 147.34 115.207 144.577 116.878C141.814 118.484 138.698 119.287 135.229 119.287H125.109V81.3154H135.133Z" fill="#2684FF"/>
</svg>
