<svg width="200" height="200" viewBox="0 0 200 200" fill="none" xmlns="http://www.w3.org/2000/svg">
<path d="M176 0C189.255 0 200 10.7452 200 24V176C200 189.255 189.255 200 176 200H24C10.7452 200 0 189.255 0 176V24C0 10.7452 10.7452 0 24 0H176ZM42.9258 75.4619C41.1847 75.4619 39.9375 75.7207 39.1846 76.2383C38.4317 76.7559 37.9607 77.4149 37.7725 78.2148C37.6313 79.0147 37.5615 79.8619 37.5615 80.7559V119.365C37.5615 120.259 37.6313 121.13 37.7725 121.977C37.9607 122.824 38.4317 123.506 39.1846 124.023C39.9375 124.541 41.1614 124.8 42.8555 124.8C44.5962 124.8 45.8429 124.541 46.5957 124.023C47.3486 123.506 47.8196 122.847 48.0078 122.047C48.196 121.2 48.29 120.329 48.29 119.436V110.048H56.8008L65.2305 122.118C66.3596 123.671 67.4415 124.589 68.4766 124.871C69.5118 125.153 70.9006 124.659 72.6416 123.389C73.8651 122.495 74.6888 121.694 75.1123 120.988C75.5827 120.283 75.7001 119.529 75.4648 118.729C75.2766 117.93 74.7823 116.965 73.9824 115.836L67.8428 107.03C69.1541 106.055 70.2834 104.944 71.2295 103.695C72.4059 102.142 73.2771 100.448 73.8418 98.6133C74.4534 96.7783 74.7587 94.8726 74.7588 92.8965C74.7588 89.9319 74.2413 87.3667 73.2061 85.2021C72.1709 83.0377 70.8062 81.2262 69.1123 79.7676C67.4183 78.3088 65.5595 77.2263 63.5361 76.5205C61.5128 75.8147 59.5366 75.462 57.6074 75.4619H42.9258ZM80.5674 75.3916C79.8145 75.3916 79.0847 75.4614 78.3789 75.6025C77.6733 75.7437 77.109 76.1442 76.6855 76.8027C76.262 77.4145 76.0498 78.4737 76.0498 79.9795C76.0498 81.485 76.2621 82.5668 76.6855 83.2256C77.109 83.8372 77.6732 84.2375 78.3789 84.4258C79.0847 84.567 79.8145 84.6377 80.5674 84.6377H92.0723V119.506C92.0723 120.4 92.143 121.271 92.2842 122.118C92.4254 122.918 92.8722 123.577 93.625 124.095C94.3779 124.565 95.6019 124.8 97.2959 124.8C99.0365 124.8 100.26 124.565 100.966 124.095C101.719 123.577 102.166 122.918 102.308 122.118C102.496 121.318 102.59 120.471 102.59 119.577V84.6377H113.954C114.754 84.6377 115.506 84.5669 116.212 84.4258C116.918 84.2846 117.483 83.8844 117.906 83.2256C118.377 82.5668 118.612 81.5083 118.612 80.0498C118.612 78.497 118.377 77.4145 117.906 76.8027C117.483 76.1441 116.942 75.7437 116.283 75.6025C115.624 75.4614 114.895 75.3916 114.095 75.3916H80.5674ZM129.302 75.4619C127.232 75.4619 125.796 75.8382 124.996 76.5908C124.196 77.3437 123.796 78.7557 123.796 80.8262V119.436C123.796 120.329 123.867 121.2 124.008 122.047C124.196 122.894 124.666 123.577 125.419 124.095C126.172 124.565 127.396 124.8 129.09 124.8C130.877 124.8 132.124 124.565 132.83 124.095C133.583 123.577 134.054 122.918 134.242 122.118C134.43 121.271 134.524 120.4 134.524 119.506V104.613H148.924C149.912 104.613 150.759 104.543 151.465 104.401C152.218 104.26 152.806 103.883 153.229 103.271C153.653 102.613 153.864 101.531 153.864 100.025C153.864 98.4728 153.653 97.3668 153.229 96.708C152.806 96.0493 152.218 95.649 151.465 95.5078C150.759 95.3666 149.935 95.2959 148.994 95.2959H134.524V86.1904H155.841C156.782 86.1904 157.652 86.1196 158.452 85.9785C159.299 85.7903 159.981 85.3201 160.499 84.5674C161.017 83.8145 161.276 82.5905 161.276 80.8965C161.276 79.1085 161.017 77.8378 160.499 77.085C160.028 76.3323 159.394 75.8853 158.594 75.7441C157.794 75.5559 156.923 75.4619 155.982 75.4619H129.302ZM57.4658 86.1904C58.7834 86.1904 59.9366 86.4724 60.9248 87.0371C61.9129 87.5547 62.666 88.3078 63.1836 89.2959C63.7482 90.284 64.0302 91.4607 64.0303 92.8252C64.0303 94.0015 63.8422 95.0134 63.4658 95.8604C63.0894 96.7073 62.6184 97.3896 62.0537 97.9072C61.4891 98.4248 60.8542 98.8251 60.1484 99.1074C59.4427 99.3427 58.7602 99.4599 58.1016 99.46H48.29V86.1904H57.4658Z" fill="#2684FF"/>
</svg>
