<svg width="200" height="200" viewBox="0 0 200 200" fill="none" xmlns="http://www.w3.org/2000/svg">
<path d="M176 0C189.255 0 200 10.7452 200 24V176C200 189.255 189.255 200 176 200H24C10.7452 200 0 189.255 0 176V24C0 10.7452 10.7452 0 24 0H176ZM157.384 62.9053C156.181 62.4808 155.013 62.5521 153.881 63.1182C152.749 63.6843 151.51 64.7809 150.166 66.4082L131.111 88.6582L112.057 66.4082C110.712 64.7809 109.474 63.6843 108.342 63.1182C107.21 62.5521 106.042 62.4808 104.839 62.9053C103.636 63.3299 102.255 64.2853 100.698 65.7715C98.3631 67.8236 97.1954 69.6991 97.1953 71.3975C97.1953 73.0959 98.1865 75.0068 100.168 77.1299L120.595 100.938L100.168 124.792C98.1866 126.986 97.1954 128.897 97.1953 130.524C97.1953 132.152 98.3629 133.993 100.698 136.045C102.326 137.46 103.741 138.38 104.944 138.805C106.147 139.229 107.316 139.159 108.448 138.593C109.58 138.027 110.783 136.964 112.057 135.407L131.111 113.196L150.166 135.407C151.511 136.964 152.714 138.027 153.775 138.593C154.908 139.159 156.075 139.229 157.278 138.805C158.481 138.38 159.897 137.46 161.524 136.045C163.931 133.993 165.098 132.152 165.027 130.524C165.027 128.897 164.036 126.986 162.055 124.792L141.627 100.938L162.055 77.1299C164.036 75.0068 165.027 73.0959 165.027 71.3975C165.098 69.6991 163.93 67.8236 161.524 65.7715C159.968 64.2853 158.587 63.3299 157.384 62.9053ZM46.2266 63.7549C43.6084 63.7549 41.7329 64.1436 40.6006 64.9219C39.4683 65.7003 38.7606 66.7271 38.4775 68.001C38.1945 69.204 38.0527 70.4777 38.0527 71.8223V129.781C38.0527 131.126 38.1945 132.435 38.4775 133.709C38.7606 134.983 39.4326 136.01 40.4941 136.788C41.6264 137.566 43.5019 137.955 46.1201 137.955C48.7382 137.955 50.6138 137.566 51.7461 136.788C52.8784 136.01 53.5861 135.018 53.8691 133.815C54.1522 132.542 54.2939 131.232 54.2939 129.888V115.981H67.8818C70.8539 115.981 73.8614 115.451 76.9043 114.39C79.9473 113.257 82.7434 111.63 85.291 109.507C87.9094 107.313 89.9968 104.588 91.5537 101.333C93.1814 98.0777 93.9951 94.2914 93.9951 89.9746C93.9951 85.587 93.1814 81.7651 91.5537 78.5098C89.9968 75.2545 87.9094 72.5297 85.291 70.3359C82.7434 68.0713 79.9473 66.4082 76.9043 65.3467C73.9323 64.2853 70.9603 63.7549 67.9883 63.7549H46.2266ZM67.8818 79.8896C69.8633 79.8897 71.5969 80.3149 73.083 81.1641C74.6399 82.0133 75.8432 83.1809 76.6924 84.667C77.5415 86.1531 77.9658 87.8868 77.9658 89.8682C77.9658 92.2035 77.4356 94.1144 76.374 95.6006C75.3833 97.0867 74.1096 98.1839 72.5527 98.8916C71.0667 99.5285 69.545 99.8466 67.9883 99.8467H54.2939V79.8896H67.8818Z" fill="#FFB900"/>
</svg>
