<svg width="200" height="200" viewBox="0 0 200 200" fill="none" xmlns="http://www.w3.org/2000/svg">
<path d="M176 0C189.255 0 200 10.7452 200 24V176C200 189.255 189.255 200 176 200H24C10.7451 200 0 189.255 0 176V24C0 10.7452 10.7451 0 24 0H176ZM68.251 43.417C64.1623 43.417 60.2408 45.0415 57.3496 47.9326C54.4584 50.8238 52.834 54.7452 52.834 58.834V142.167C52.8341 146.256 54.4585 150.177 57.3496 153.068C60.2407 155.959 64.1624 157.584 68.251 157.584H130.751C134.839 157.584 138.761 155.959 141.652 153.068C144.543 150.177 146.167 146.256 146.167 142.167V77.0625C146.167 75.7368 145.64 74.4649 144.703 73.5273L116.057 44.8818C115.119 43.9442 113.847 43.4171 112.521 43.417H68.251ZM104.917 53.417V79.667C104.917 82.4283 107.156 84.667 109.917 84.667H136.167V142.167C136.167 143.603 135.597 144.981 134.581 145.997C133.565 147.013 132.187 147.584 130.751 147.584H68.251C66.8146 147.584 65.4367 147.013 64.4209 145.997C63.4051 144.981 62.8341 143.603 62.834 142.167V58.834C62.834 57.3974 63.4051 56.0197 64.4209 55.0039C65.4367 53.9881 66.8144 53.417 68.251 53.417H104.917ZM131.7 74.667H114.917V57.8828L131.7 74.667Z" fill="#BCC0D1"/>
</svg>
