<svg width="200" height="200" viewBox="0 0 200 200" fill="none" xmlns="http://www.w3.org/2000/svg">
<path d="M176 0C189.255 0 200 10.7452 200 24V176C200 189.255 189.255 200 176 200H24C10.7452 200 0 189.255 0 176V24C0 10.7452 10.7452 0 24 0H176ZM69.2617 145.381C67.5565 145.381 65.756 145.646 63.8613 146.177C61.9667 146.669 60.1286 147.447 58.3477 148.508C56.5668 149.531 54.9565 150.838 53.5166 152.43C52.0766 154.021 50.9204 155.897 50.0488 158.057C49.2151 160.179 48.7988 162.605 48.7988 165.333C48.7989 168.175 49.2153 170.714 50.0488 172.949C50.9204 175.147 52.0767 177.08 53.5166 178.747C54.9945 180.377 56.6242 181.722 58.4053 182.783C60.1861 183.844 62.0047 184.64 63.8613 185.171C65.7182 185.701 67.4811 185.967 69.1484 185.967C71.1565 185.967 72.8805 185.739 74.3203 185.284C75.7603 184.867 76.9165 184.413 77.7881 183.92C78.6595 183.39 79.2466 183.048 79.5498 182.896C80.2319 182.48 80.8761 182.025 81.4824 181.532C82.0887 181.002 82.3926 180.339 82.3926 179.543C82.4304 179.088 82.3545 178.633 82.165 178.179C81.9756 177.686 81.7101 177.194 81.3691 176.701C80.8008 175.792 80.2324 175.129 79.6641 174.712C79.1335 174.295 78.6028 174.086 78.0723 174.086C77.6175 174.086 77.1627 174.2 76.708 174.428C76.2914 174.655 75.8746 174.901 75.458 175.166C75.0412 175.431 74.5292 175.735 73.9229 176.076C73.3545 176.379 72.6529 176.644 71.8193 176.871C71.0236 177.098 70.0576 177.213 68.9209 177.213C67.6325 177.213 66.3056 176.985 64.9414 176.53C63.6152 176.038 62.3838 175.317 61.2471 174.37C60.1103 173.423 59.1819 172.229 58.4619 170.789C57.7799 169.349 57.4385 167.625 57.4385 165.617C57.4385 163.685 57.7798 161.998 58.4619 160.558C59.144 159.08 60.0537 157.867 61.1904 156.92C62.3272 155.973 63.5585 155.271 64.8848 154.816C66.249 154.324 67.5946 154.078 68.9209 154.078C70.209 154.078 71.2699 154.21 72.1035 154.476C72.9372 154.703 73.6011 154.968 74.0938 155.271C74.5863 155.537 74.9653 155.765 75.2305 155.954C75.8366 156.333 76.3291 156.636 76.708 156.863C77.1248 157.091 77.5609 157.204 78.0156 157.204C78.584 157.204 79.1336 157.015 79.6641 156.636C80.2324 156.219 80.8195 155.575 81.4258 154.703C81.7668 154.21 82.0135 153.756 82.165 153.339C82.3545 152.884 82.4492 152.429 82.4492 151.975C82.4113 151.103 82.0887 150.402 81.4824 149.871C80.8762 149.341 80.2317 148.867 79.5498 148.45C79.3222 148.261 78.7537 147.939 77.8447 147.484C76.9353 146.992 75.7603 146.518 74.3203 146.063C72.8804 145.609 71.1942 145.381 69.2617 145.381ZM90.8379 145.779C89.4358 145.779 88.4315 145.987 87.8252 146.404C87.2189 146.821 86.8401 147.371 86.6885 148.053C86.5369 148.697 86.461 149.379 86.4609 150.099V181.135C86.4609 181.855 86.5369 182.556 86.6885 183.238C86.8401 183.92 87.2002 184.47 87.7686 184.887C88.3749 185.303 89.3794 185.512 90.7812 185.512C92.1832 185.512 93.1877 185.304 93.7939 184.887C94.4002 184.47 94.7791 183.939 94.9307 183.295C95.0822 182.613 95.1582 181.911 95.1582 181.191V173.745H102.434C104.025 173.745 105.636 173.461 107.266 172.893C108.895 172.286 110.392 171.415 111.756 170.278C113.158 169.104 114.276 167.644 115.109 165.901C115.981 164.158 116.417 162.131 116.417 159.819C116.417 157.47 115.981 155.423 115.109 153.68C114.276 151.937 113.158 150.477 111.756 149.303C110.392 148.09 108.895 147.2 107.266 146.632C105.674 146.063 104.082 145.779 102.49 145.779H90.8379ZM124.754 145.779C123.352 145.779 122.347 145.987 121.741 146.404C121.135 146.821 120.756 147.371 120.604 148.053C120.453 148.697 120.378 149.379 120.378 150.099V181.135C120.378 181.855 120.453 182.556 120.604 183.238C120.756 183.92 121.116 184.47 121.685 184.887C122.291 185.304 123.295 185.512 124.697 185.512C126.099 185.512 127.104 185.303 127.71 184.887C128.316 184.47 128.695 183.939 128.847 183.295C128.998 182.613 129.074 181.911 129.074 181.191V173.745H136.351C137.942 173.745 139.552 173.461 141.182 172.893C142.811 172.286 144.308 171.415 145.672 170.278C147.074 169.104 148.193 167.644 149.026 165.901C149.898 164.158 150.333 162.131 150.333 159.819C150.333 157.47 149.898 155.423 149.026 153.68C148.193 151.937 147.074 150.477 145.672 149.303C144.308 148.09 142.811 147.2 141.182 146.632C139.59 146.063 137.999 145.779 136.407 145.779H124.754ZM102.434 154.419C103.495 154.419 104.423 154.646 105.219 155.101C106.052 155.555 106.697 156.181 107.151 156.977C107.606 157.772 107.834 158.701 107.834 159.762C107.834 161.012 107.549 162.036 106.98 162.832C106.45 163.628 105.768 164.215 104.935 164.594C104.139 164.935 103.324 165.105 102.49 165.105H95.1582V154.419H102.434ZM136.351 154.419C137.411 154.419 138.34 154.646 139.136 155.101C139.969 155.555 140.614 156.181 141.068 156.977C141.523 157.772 141.75 158.701 141.75 159.762C141.75 161.012 141.466 162.036 140.897 162.832C140.367 163.628 139.685 164.215 138.852 164.594C138.056 164.935 137.241 165.105 136.407 165.105H129.074V154.419H136.351ZM137.048 45.6953C132.121 40.7681 124.139 40.7682 119.212 45.6953C114.285 50.6229 114.285 58.6056 119.212 63.5332L135.53 79.8535L119.231 96.1738C119.034 96.3512 118.838 96.549 118.66 96.7461C113.891 101.831 114.147 109.814 119.231 114.584C124.316 119.354 132.298 119.097 137.067 114.012L162.295 88.7822C164.679 86.4171 166 83.2245 166 79.874C166 76.5233 164.66 73.3098 162.275 70.9248L137.048 45.6953ZM82.7617 45.6953C77.8346 40.7678 69.852 40.7678 64.9248 45.6953L39.6777 70.9443C34.7703 75.8719 34.7711 83.8546 39.6982 88.7822L64.9248 114.012C67.2701 116.397 70.4826 117.718 73.833 117.718C77.1835 117.718 80.377 116.396 82.7617 114.031C87.6885 109.104 87.6888 101.121 82.7617 96.1934L66.4424 79.874L82.7617 63.5332C87.6885 58.6056 87.6887 50.6228 82.7617 45.6953Z" fill="#00599C"/>
</svg>
