<svg width="200" height="200" viewBox="0 0 200 200" fill="none" xmlns="http://www.w3.org/2000/svg">
<path d="M176 0C189.255 0 200 10.7452 200 24V176C200 189.255 189.255 200 176 200H24C10.7452 200 0 189.255 0 176V24C0 10.7452 10.7452 0 24 0H176ZM101.796 145.153C99.257 145.153 97.0018 145.665 95.0312 146.688C93.0988 147.674 91.5833 149.038 90.4844 150.781C89.3855 152.524 88.836 154.513 88.8359 156.749C88.8359 158.075 88.9682 159.25 89.2334 160.273C89.5366 161.297 89.9351 162.206 90.4277 163.002C90.9583 163.798 91.5837 164.48 92.3037 165.049C93.0236 165.617 93.7815 166.128 94.5771 166.583C95.3729 167.038 96.2066 167.417 97.0781 167.72C98.3285 168.212 99.5787 168.648 100.829 169.027C102.118 169.368 103.274 169.728 104.297 170.107C105.358 170.486 106.192 170.941 106.798 171.472C107.442 171.964 107.765 172.627 107.765 173.461C107.765 174.484 107.537 175.336 107.082 176.019C106.627 176.663 105.964 177.137 105.093 177.44C104.221 177.744 103.16 177.895 101.909 177.895C100.924 177.894 99.9767 177.686 99.0674 177.27C98.1958 176.815 97.305 176.037 96.3955 174.938C95.7514 174.181 95.0882 173.594 94.4062 173.177C93.7243 172.76 93.0235 172.589 92.3037 172.665C91.6216 172.703 90.8817 173.063 90.0859 173.745C89.2902 174.503 88.7219 175.204 88.3809 175.849C88.0778 176.493 88.0018 177.137 88.1533 177.781C88.3049 178.388 88.7035 179.108 89.3477 179.941C89.575 180.282 89.9917 180.794 90.5977 181.476C91.204 182.158 92.0189 182.859 93.042 183.579C94.103 184.261 95.3727 184.848 96.8506 185.341C98.3663 185.833 100.128 186.08 102.137 186.08C103.728 186.08 105.358 185.833 107.025 185.341C108.693 184.886 110.247 184.147 111.687 183.124C113.126 182.101 114.282 180.775 115.153 179.146C116.025 177.516 116.461 175.564 116.461 173.29C116.461 171.471 116.196 169.937 115.665 168.687C115.172 167.436 114.509 166.393 113.676 165.56C112.842 164.726 111.895 164.044 110.834 163.514C109.773 162.945 108.674 162.472 107.537 162.093C106.287 161.714 105.054 161.391 103.842 161.126C102.667 160.823 101.588 160.52 100.603 160.217C99.6552 159.876 98.8778 159.44 98.2715 158.909C97.7033 158.379 97.419 157.678 97.4189 156.807C97.4189 156.276 97.5326 155.802 97.7598 155.386C97.9871 154.931 98.291 154.551 98.6699 154.248C99.0488 153.945 99.5038 153.718 100.034 153.566C100.565 153.377 101.133 153.282 101.739 153.282C102.762 153.282 103.577 153.396 104.184 153.623C104.828 153.813 105.377 154.078 105.832 154.419C106.287 154.76 106.742 155.139 107.196 155.556C108.371 156.351 109.413 156.674 110.322 156.522C111.27 156.371 112.217 155.632 113.164 154.306C114.074 153.055 114.472 152.088 114.358 151.406C114.245 150.686 113.657 149.834 112.596 148.849C112.406 148.621 112.046 148.317 111.516 147.938C111.023 147.522 110.341 147.105 109.47 146.688C108.598 146.272 107.518 145.912 106.229 145.608C104.979 145.305 103.501 145.153 101.796 145.153ZM132.826 145.153C130.287 145.153 128.032 145.665 126.062 146.688C124.129 147.674 122.614 149.038 121.515 150.781C120.416 152.524 119.866 154.513 119.866 156.749C119.866 158.075 119.998 159.25 120.264 160.273C120.567 161.296 120.964 162.206 121.457 163.002C121.988 163.798 122.613 164.48 123.333 165.049C124.053 165.617 124.812 166.128 125.607 166.583C126.403 167.038 127.237 167.417 128.108 167.72C129.359 168.212 130.609 168.648 131.859 169.027C133.148 169.368 134.304 169.728 135.327 170.107C136.388 170.486 137.222 170.941 137.828 171.472C138.472 171.964 138.794 172.627 138.794 173.461C138.794 174.484 138.567 175.337 138.112 176.019C137.658 176.663 136.995 177.137 136.123 177.44C135.251 177.744 134.19 177.895 132.939 177.895C131.954 177.895 131.007 177.686 130.098 177.27C129.226 176.815 128.335 176.037 127.426 174.938C126.782 174.181 126.119 173.594 125.437 173.177C124.754 172.76 124.053 172.589 123.333 172.665C122.651 172.703 121.912 173.063 121.116 173.745C120.32 174.503 119.752 175.204 119.411 175.849C119.108 176.493 119.032 177.137 119.184 177.781C119.335 178.388 119.734 179.108 120.378 179.941C120.605 180.282 121.022 180.794 121.628 181.476C122.234 182.158 123.049 182.859 124.072 183.579C125.133 184.261 126.403 184.848 127.881 185.341C129.397 185.833 131.159 186.08 133.167 186.08C134.759 186.08 136.388 185.833 138.056 185.341C139.723 184.886 141.277 184.147 142.717 183.124C144.157 182.101 145.312 180.775 146.184 179.146C147.055 177.516 147.491 175.564 147.491 173.29C147.491 171.471 147.226 169.937 146.695 168.687C146.203 167.436 145.54 166.393 144.706 165.56C143.872 164.726 142.925 164.044 141.864 163.514C140.803 162.945 139.704 162.472 138.567 162.093C137.317 161.714 136.085 161.391 134.872 161.126C133.697 160.823 132.617 160.52 131.632 160.217C130.685 159.876 129.908 159.44 129.302 158.909C128.733 158.379 128.449 157.678 128.449 156.807C128.449 156.276 128.563 155.802 128.79 155.386C129.017 154.931 129.32 154.551 129.699 154.248C130.078 153.945 130.533 153.718 131.063 153.566C131.594 153.377 132.163 153.282 132.77 153.282C133.792 153.282 134.607 153.396 135.213 153.623C135.857 153.812 136.407 154.078 136.861 154.419C137.316 154.76 137.771 155.139 138.226 155.556C139.4 156.351 140.443 156.674 141.353 156.522C142.3 156.371 143.247 155.632 144.194 154.306C145.104 153.055 145.501 152.088 145.388 151.406C145.274 150.686 144.687 149.834 143.626 148.849C143.437 148.621 143.076 148.317 142.546 147.938C142.053 147.522 141.371 147.105 140.5 146.688C139.628 146.272 138.548 145.912 137.26 145.608C136.009 145.305 134.531 145.153 132.826 145.153ZM72.1484 145.381C70.4432 145.381 68.6428 145.646 66.748 146.177C64.8534 146.669 63.0154 147.447 61.2344 148.508C59.4535 149.531 57.8432 150.838 56.4033 152.43C54.9633 154.021 53.8071 155.897 52.9355 158.057C52.1019 160.179 51.6855 162.605 51.6855 165.333C51.6856 168.175 52.102 170.714 52.9355 172.949C53.8071 175.147 54.9633 177.08 56.4033 178.747C57.8811 180.376 59.5101 181.722 61.291 182.783C63.072 183.844 64.8912 184.64 66.748 185.171C68.6047 185.701 70.3669 185.967 72.0342 185.967C74.0425 185.967 75.7671 185.739 77.207 185.284C78.647 184.867 79.8032 184.413 80.6748 183.92C81.5463 183.389 82.1334 183.048 82.4365 182.896C83.1186 182.48 83.7628 182.025 84.3691 181.532C84.9754 181.002 85.2793 180.339 85.2793 179.543C85.3171 179.088 85.2412 178.633 85.0518 178.179C84.8623 177.686 84.5968 177.194 84.2559 176.701C83.6876 175.792 83.1191 175.129 82.5508 174.712C82.0203 174.295 81.4895 174.086 80.959 174.086C80.5042 174.086 80.0495 174.2 79.5947 174.428C79.1779 174.655 78.7606 174.901 78.3438 175.166C77.9269 175.431 77.4158 175.735 76.8096 176.076C76.2411 176.379 75.5397 176.644 74.7061 176.871C73.9104 177.098 72.9443 177.213 71.8076 177.213C70.5192 177.213 69.1923 176.985 67.8281 176.53C66.5019 176.038 65.2706 175.317 64.1338 174.37C62.997 173.423 62.0686 172.229 61.3486 170.789C60.6666 169.349 60.3252 167.625 60.3252 165.617C60.3252 163.685 60.6665 161.998 61.3486 160.558C62.0307 159.08 62.9404 157.867 64.0771 156.92C65.2139 155.973 66.4453 155.271 67.7715 154.816C69.1356 154.324 70.4814 154.078 71.8076 154.078C73.0958 154.078 74.1567 154.21 74.9902 154.476C75.8237 154.703 76.4869 154.968 76.9795 155.271C77.4721 155.537 77.8519 155.765 78.1172 155.954C78.7233 156.333 79.2159 156.636 79.5947 156.863C80.0115 157.091 80.4477 157.204 80.9023 157.204C81.4706 157.204 82.0204 157.015 82.5508 156.636C83.1191 156.219 83.7063 155.575 84.3125 154.703C84.6535 154.211 84.9002 153.756 85.0518 153.339C85.2412 152.884 85.3359 152.429 85.3359 151.975C85.298 151.103 84.9754 150.402 84.3691 149.871C83.7629 149.341 83.1185 148.867 82.4365 148.45C82.209 148.261 81.6405 147.939 80.7314 147.484C79.822 146.992 78.647 146.518 77.207 146.063C75.7671 145.609 74.081 145.381 72.1484 145.381ZM137.048 45.6953C132.121 40.7681 124.139 40.7682 119.212 45.6953C114.285 50.6229 114.285 58.6056 119.212 63.5332L135.53 79.8535L119.231 96.1738C119.034 96.3512 118.838 96.549 118.66 96.7461C113.891 101.831 114.147 109.814 119.231 114.584C124.316 119.354 132.298 119.097 137.067 114.012L162.295 88.7822C164.679 86.4171 166 83.2245 166 79.874C166 76.5233 164.66 73.3098 162.275 70.9248L137.048 45.6953ZM82.7617 45.6953C77.8346 40.7678 69.852 40.7678 64.9248 45.6953L39.6777 70.9443C34.7703 75.8719 34.7711 83.8546 39.6982 88.7822L64.9248 114.012C67.2701 116.397 70.4826 117.718 73.833 117.718C77.1835 117.718 80.377 116.396 82.7617 114.031C87.6885 109.104 87.6888 101.121 82.7617 96.1934L66.4424 79.874L82.7617 63.5332C87.6885 58.6056 87.6887 50.6228 82.7617 45.6953Z" fill="#EA4EBB"/>
</svg>
