<svg width="200" height="200" viewBox="0 0 200 200" fill="none" xmlns="http://www.w3.org/2000/svg">
<path d="M176 0C189.255 0 200 10.7452 200 24V176C200 189.255 189.255 200 176 200H24C10.7452 200 0 189.255 0 176V24C0 10.7452 10.7452 0 24 0H176ZM53.957 145.779C52.555 145.779 51.5506 145.987 50.9443 146.404C50.3382 146.821 49.9592 147.352 49.8076 147.996C49.6561 148.64 49.5801 149.341 49.5801 150.099V161.752H34.1191V150.156C34.1191 149.361 34.0431 148.64 33.8916 147.996C33.7779 147.352 33.4178 146.821 32.8115 146.404C32.2431 145.988 31.2582 145.779 29.8564 145.779C28.4166 145.779 27.3935 145.988 26.7871 146.404C26.2187 146.821 25.8586 147.352 25.707 147.996C25.5555 148.64 25.4795 149.341 25.4795 150.099V181.135C25.4795 181.855 25.5357 182.556 25.6494 183.238C25.801 183.92 26.1809 184.47 26.7871 184.887C27.3935 185.303 28.398 185.512 29.7998 185.512C31.2013 185.512 32.2052 185.303 32.8115 184.887C33.4178 184.47 33.7779 183.939 33.8916 183.295C34.0432 182.613 34.1191 181.911 34.1191 181.191V169.255H49.5801V181.135C49.5801 181.855 49.656 182.556 49.8076 183.238C49.9592 183.92 50.3194 184.47 50.8877 184.887C51.494 185.304 52.4984 185.512 53.9004 185.512C55.3024 185.512 56.3068 185.303 56.9131 184.887C57.5194 184.47 57.8794 183.939 57.9932 183.295C58.1447 182.613 58.2207 181.911 58.2207 181.191V150.156C58.2207 149.361 58.1447 148.64 57.9932 147.996C57.8795 147.352 57.5194 146.821 56.9131 146.404C56.3447 145.987 55.3591 145.779 53.957 145.779ZM65.6162 145.722C65.0101 145.722 64.4228 145.779 63.8545 145.893C63.2861 146.006 62.8313 146.329 62.4902 146.859C62.1492 147.352 61.9785 148.204 61.9785 149.417C61.9785 150.63 62.1492 151.501 62.4902 152.031C62.8313 152.524 63.2861 152.846 63.8545 152.998C64.4228 153.112 65.0101 153.168 65.6162 153.168H74.8818V181.248C74.8818 181.968 74.9381 182.669 75.0518 183.352C75.1654 183.996 75.5255 184.527 76.1318 184.943C76.7382 185.322 77.7237 185.512 79.0879 185.512C80.4899 185.512 81.4756 185.322 82.0439 184.943C82.6501 184.527 83.0094 183.996 83.123 183.352C83.2746 182.707 83.3506 182.026 83.3506 181.306V153.168H92.502C93.1461 153.168 93.7529 153.112 94.3213 152.998C94.8897 152.884 95.3445 152.562 95.6855 152.031C96.0644 151.501 96.2539 150.648 96.2539 149.474C96.2539 148.223 96.0644 147.352 95.6855 146.859C95.3445 146.329 94.9085 146.006 94.3779 145.893C93.8475 145.779 93.2603 145.722 92.6162 145.722H65.6162ZM137.148 145.836C136.277 145.836 135.594 145.873 135.102 145.949C134.647 146.025 134.268 146.158 133.965 146.348C133.662 146.537 133.359 146.821 133.056 147.2L120.636 163.904L108.272 147.2C108.007 146.935 107.761 146.707 107.533 146.518C107.306 146.29 106.946 146.119 106.454 146.006C105.962 145.892 105.241 145.836 104.294 145.836C102.892 145.836 101.888 146.044 101.281 146.461C100.675 146.878 100.296 147.409 100.145 148.053C99.993 148.659 99.917 149.322 99.917 150.042V181.135C99.917 181.893 99.993 182.613 100.145 183.295C100.296 183.939 100.656 184.47 101.225 184.887C101.831 185.303 102.816 185.512 104.18 185.512C105.582 185.512 106.567 185.303 107.136 184.887C107.742 184.47 108.121 183.939 108.272 183.295C108.424 182.651 108.5 181.968 108.5 181.248V160.899L116.912 172.836C117.102 173.063 117.329 173.329 117.595 173.632C117.86 173.935 118.22 174.2 118.675 174.428C119.167 174.655 119.831 174.769 120.664 174.769C121.46 174.769 122.085 174.655 122.54 174.428C123.033 174.2 123.412 173.935 123.677 173.632C123.942 173.291 124.15 173.025 124.302 172.836L132.771 160.842V181.135C132.771 181.855 132.847 182.556 132.999 183.238C133.151 183.92 133.53 184.47 134.136 184.887C134.742 185.303 135.728 185.512 137.092 185.512C138.494 185.512 139.498 185.304 140.104 184.887C140.711 184.47 141.09 183.939 141.241 183.295C141.393 182.651 141.469 181.968 141.469 181.248V150.156C141.469 149.436 141.393 148.754 141.241 148.109C141.09 147.427 140.711 146.878 140.104 146.461C139.498 146.044 138.513 145.836 137.148 145.836ZM151.271 145.779C149.869 145.779 148.865 145.988 148.259 146.404C147.652 146.821 147.273 147.352 147.121 147.996C147.007 148.64 146.951 149.341 146.951 150.099V181.191C146.951 181.911 147.027 182.613 147.179 183.295C147.33 183.977 147.709 184.527 148.315 184.943C148.922 185.322 149.907 185.512 151.271 185.512H171.166C171.81 185.512 172.397 185.454 172.928 185.341C173.496 185.227 173.97 184.905 174.349 184.375C174.728 183.807 174.917 182.935 174.917 181.76C174.917 180.547 174.728 179.676 174.349 179.146C174.008 178.615 173.553 178.292 172.984 178.179C172.416 178.065 171.81 178.009 171.166 178.009H155.591V150.099C155.591 149.341 155.515 148.64 155.363 147.996C155.25 147.352 154.89 146.821 154.283 146.404C153.715 145.988 152.71 145.779 151.271 145.779ZM137.048 45.6953C132.121 40.7681 124.139 40.7682 119.212 45.6953C114.285 50.6229 114.285 58.6056 119.212 63.5332L135.53 79.8535L119.231 96.1738C119.034 96.3512 118.838 96.549 118.66 96.7461C113.891 101.831 114.147 109.814 119.231 114.584C124.316 119.354 132.298 119.097 137.067 114.012L162.295 88.7822C164.679 86.4171 166 83.2245 166 79.874C166 76.5233 164.66 73.3098 162.275 70.9248L137.048 45.6953ZM82.7617 45.6953C77.8346 40.7678 69.852 40.7678 64.9248 45.6953L39.6777 70.9443C34.7703 75.8719 34.7711 83.8546 39.6982 88.7822L64.9248 114.012C67.2701 116.397 70.4826 117.718 73.833 117.718C77.1835 117.718 80.377 116.396 82.7617 114.031C87.6885 109.104 87.6888 101.121 82.7617 96.1934L66.4424 79.874L82.7617 63.5332C87.6885 58.6056 87.6887 50.6228 82.7617 45.6953Z" fill="#E34F26"/>
</svg>
