<svg width="200" height="200" viewBox="0 0 200 200" fill="none" xmlns="http://www.w3.org/2000/svg">
<path d="M176 0C189.255 0 200 10.7452 200 24V176C200 189.255 189.255 200 176 200H24C10.7452 200 0 189.255 0 176V24C0 10.7452 10.7452 0 24 0H176ZM56.4434 145.779C55.0414 145.779 54.0182 146.006 53.374 146.461C52.7677 146.916 52.3889 147.522 52.2373 148.28C52.0858 149 52.0098 149.758 52.0098 150.554V171.244C52.0098 172.116 51.8963 172.931 51.6689 173.688C51.4416 174.408 51.1002 175.053 50.6455 175.621C50.2287 176.152 49.6979 176.568 49.0537 176.871C48.4095 177.136 47.6706 177.27 46.8369 177.27C46.1169 177.27 45.4915 177.175 44.9609 176.985C44.4305 176.758 43.9756 176.511 43.5967 176.246C43.2179 175.981 42.9148 175.773 42.6875 175.621C42.1192 175.053 41.5695 174.56 41.0391 174.144C40.5465 173.727 39.9593 173.518 39.2773 173.518C38.7847 173.518 38.2727 173.67 37.7422 173.973C37.2496 174.238 36.7188 174.655 36.1504 175.224C35.62 175.792 35.2035 176.36 34.9004 176.929C34.6352 177.459 34.502 177.97 34.502 178.463C34.502 179.069 34.6727 179.619 35.0137 180.111C35.3926 180.566 35.8287 181.04 36.3213 181.532C36.4729 181.684 36.8142 182.006 37.3447 182.499C37.8752 182.954 38.576 183.446 39.4473 183.977C40.3567 184.507 41.4182 184.962 42.6309 185.341C43.8434 185.758 45.1507 185.967 46.5527 185.967C48.5988 185.967 50.4746 185.607 52.1797 184.887C53.9228 184.129 55.4204 183.105 56.6709 181.816C57.9591 180.528 58.9439 179.012 59.626 177.27C60.308 175.527 60.6494 173.651 60.6494 171.643V150.156C60.6494 149.436 60.5734 148.735 60.4219 148.053C60.2703 147.371 59.9102 146.821 59.3418 146.404C58.7734 145.988 57.8073 145.779 56.4434 145.779ZM82.5146 145.779C81.719 145.779 80.9423 146.006 80.1846 146.461C79.4646 146.916 78.9151 147.522 78.5361 148.28L63.5869 179.373C63.0944 180.32 62.8289 181.154 62.791 181.874C62.7532 182.556 62.9427 183.162 63.3594 183.692C63.8141 184.185 64.5343 184.659 65.5195 185.113C67.035 185.833 68.1906 186.042 68.9863 185.739C69.82 185.474 70.6161 184.602 71.374 183.124L74.6455 176.246H90.3115L93.5996 183.124C94.3196 184.64 95.096 185.531 95.9297 185.796C96.7634 186.099 97.9384 185.891 99.4541 185.171C100.439 184.678 101.141 184.185 101.558 183.692C102.012 183.162 102.22 182.575 102.183 181.931C102.145 181.249 101.898 180.434 101.443 179.486L86.4375 148.337C86.1722 147.806 85.8309 147.352 85.4141 146.973C85.0351 146.594 84.5991 146.31 84.1064 146.12C83.6139 145.893 83.083 145.779 82.5146 145.779ZM145.741 145.779C144.945 145.779 144.168 146.006 143.41 146.461C142.69 146.916 142.141 147.522 141.762 148.28L126.812 179.373C126.32 180.32 126.054 181.154 126.017 181.874C125.979 182.556 126.168 183.162 126.585 183.692C127.04 184.185 127.76 184.659 128.745 185.113C130.261 185.833 131.417 186.042 132.213 185.739C133.046 185.474 133.842 184.602 134.6 183.124L137.871 176.246H153.537L156.825 183.124C157.545 184.64 158.322 185.531 159.155 185.796C159.989 186.099 161.164 185.891 162.68 185.171C163.665 184.678 164.366 184.185 164.783 183.692C165.238 183.162 165.446 182.575 165.408 181.931C165.37 181.249 165.124 180.434 164.669 179.486L149.663 148.337C149.398 147.806 149.056 147.352 148.64 146.973C148.261 146.594 147.825 146.31 147.332 146.12C146.84 145.893 146.309 145.779 145.741 145.779ZM101.478 145.381C100.796 145.381 99.9617 145.665 98.9766 146.233C97.5367 146.915 96.6458 147.655 96.3047 148.45C96.0015 149.208 96.1534 150.288 96.7598 151.69L110.516 183.124C110.857 183.92 111.387 184.527 112.106 184.943C112.864 185.322 113.774 185.512 114.835 185.512C115.782 185.512 116.616 185.303 117.336 184.887C118.094 184.432 118.643 183.844 118.984 183.124L132.74 151.861C133.347 150.497 133.536 149.417 133.309 148.621C133.119 147.787 132.21 146.991 130.58 146.233C129.595 145.665 128.742 145.381 128.022 145.381C127.302 145.381 126.677 145.628 126.146 146.12C125.654 146.613 125.219 147.352 124.84 148.337L114.722 173.348L104.66 148.166C104.281 147.219 103.826 146.518 103.296 146.063C102.803 145.571 102.197 145.343 101.478 145.381ZM150.031 168.914H141.358L145.684 159.819L150.031 168.914ZM86.8057 168.914H78.1328L82.458 159.819L86.8057 168.914ZM137.048 45.6953C132.121 40.7681 124.139 40.7682 119.212 45.6953C114.285 50.6229 114.285 58.6056 119.212 63.5332L135.53 79.8535L119.231 96.1738C119.034 96.3512 118.838 96.549 118.66 96.7461C113.891 101.831 114.147 109.814 119.231 114.584C124.316 119.354 132.298 119.097 137.067 114.012L162.295 88.7822C164.679 86.4171 166 83.2245 166 79.874C166 76.5233 164.66 73.3098 162.275 70.9248L137.048 45.6953ZM82.7617 45.6953C77.8346 40.7678 69.852 40.7678 64.9248 45.6953L39.6777 70.9443C34.7703 75.8719 34.7711 83.8546 39.6982 88.7822L64.9248 114.012C67.2701 116.397 70.4826 117.718 73.833 117.718C77.1835 117.718 80.377 116.396 82.7617 114.031C87.6885 109.104 87.6888 101.121 82.7617 96.1934L66.4424 79.874L82.7617 63.5332C87.6885 58.6056 87.6887 50.6228 82.7617 45.6953Z" fill="#ED8B00"/>
</svg>
