<svg width="200" height="200" viewBox="0 0 200 200" fill="none" xmlns="http://www.w3.org/2000/svg">
<path d="M176 0C189.255 0 200 10.7452 200 24V176C200 189.255 189.255 200 176 200H24C10.7452 200 0 189.255 0 176V24C0 10.7452 10.7452 0 24 0H176ZM113.785 145.153C111.246 145.153 108.992 145.665 107.021 146.688C105.089 147.674 103.573 149.038 102.474 150.781C101.375 152.524 100.825 154.514 100.825 156.749C100.825 158.075 100.958 159.25 101.224 160.273C101.527 161.297 101.924 162.206 102.417 163.002C102.948 163.798 103.573 164.48 104.293 165.049C105.013 165.617 105.771 166.128 106.566 166.583C107.362 167.038 108.196 167.417 109.067 167.72C110.318 168.212 111.569 168.648 112.819 169.027C114.108 169.368 115.264 169.728 116.287 170.107C117.348 170.486 118.182 170.941 118.788 171.472C119.432 171.964 119.754 172.627 119.754 173.461C119.754 174.484 119.527 175.337 119.072 176.019C118.618 176.663 117.954 177.137 117.082 177.44C116.211 177.743 115.15 177.895 113.899 177.895C112.914 177.895 111.967 177.686 111.058 177.27C110.186 176.815 109.295 176.037 108.386 174.938C107.742 174.181 107.078 173.594 106.396 173.177C105.714 172.76 105.013 172.589 104.293 172.665C103.611 172.703 102.872 173.063 102.076 173.745C101.28 174.503 100.712 175.204 100.371 175.849C100.068 176.493 99.992 177.137 100.144 177.781C100.295 178.388 100.693 179.108 101.337 179.941C101.564 180.282 101.982 180.794 102.588 181.476C103.194 182.158 104.009 182.859 105.032 183.579C106.093 184.261 107.363 184.848 108.841 185.341C110.357 185.833 112.119 186.08 114.127 186.08C115.718 186.08 117.347 185.833 119.015 185.341C120.682 184.886 122.236 184.147 123.676 183.124C125.116 182.101 126.272 180.775 127.144 179.146C128.015 177.516 128.451 175.564 128.451 173.29C128.451 171.471 128.186 169.937 127.655 168.687C127.163 167.436 126.5 166.393 125.666 165.56C124.832 164.726 123.884 164.044 122.823 163.514C121.762 162.945 120.663 162.472 119.526 162.093C118.276 161.714 117.045 161.391 115.832 161.126C114.657 160.823 113.577 160.52 112.592 160.217C111.645 159.876 110.868 159.44 110.262 158.909C109.693 158.379 109.409 157.678 109.409 156.807C109.409 156.276 109.523 155.803 109.75 155.386C109.977 154.931 110.28 154.551 110.659 154.248C111.038 153.945 111.493 153.718 112.023 153.566C112.554 153.377 113.122 153.282 113.729 153.282C114.752 153.282 115.567 153.396 116.173 153.623C116.817 153.813 117.367 154.078 117.821 154.419C118.276 154.76 118.731 155.139 119.186 155.556C120.36 156.351 121.402 156.674 122.312 156.522C123.259 156.371 124.207 155.632 125.154 154.306C126.064 153.055 126.461 152.088 126.348 151.406C126.234 150.686 125.647 149.834 124.586 148.849C124.396 148.621 124.036 148.317 123.506 147.938C123.013 147.522 122.331 147.105 121.459 146.688C120.588 146.272 119.508 145.912 118.22 145.608C116.969 145.305 115.49 145.153 113.785 145.153ZM91.5527 145.779C90.1507 145.779 89.1276 146.006 88.4834 146.461C87.8771 146.916 87.4983 147.522 87.3467 148.28C87.1951 149 87.1191 149.758 87.1191 150.554V171.244C87.1191 172.116 87.0057 172.931 86.7783 173.688C86.551 174.408 86.2096 175.053 85.7549 175.621C85.338 176.152 84.8073 176.568 84.1631 176.871C83.5189 177.136 82.78 177.27 81.9463 177.27C81.2264 177.27 80.6008 177.175 80.0703 176.985C79.5399 176.758 79.0849 176.511 78.7061 176.246C78.3273 175.981 78.0242 175.773 77.7969 175.621C77.2285 175.053 76.6789 174.56 76.1484 174.144C75.6559 173.727 75.0687 173.518 74.3867 173.518C73.8941 173.518 73.3821 173.669 72.8516 173.973C72.359 174.238 71.8281 174.655 71.2598 175.224C70.7294 175.792 70.3128 176.36 70.0098 176.929C69.7446 177.459 69.6114 177.97 69.6113 178.463C69.6113 179.069 69.7821 179.619 70.123 180.111C70.5019 180.566 70.9381 181.04 71.4307 181.532C71.5822 181.684 71.9236 182.006 72.4541 182.499C72.9845 182.954 73.6853 183.446 74.5566 183.977C75.4661 184.507 76.5276 184.962 77.7402 185.341C78.9528 185.758 80.2601 185.967 81.6621 185.967C83.7084 185.967 85.5848 185.607 87.29 184.887C89.0331 184.129 90.5298 183.105 91.7803 181.816C93.0686 180.528 94.0543 179.013 94.7363 177.27C95.4184 175.527 95.7587 173.651 95.7588 171.643V150.156C95.7588 149.436 95.6838 148.735 95.5322 148.053C95.3807 147.371 95.0204 146.821 94.4521 146.404C93.8837 145.987 92.9169 145.779 91.5527 145.779ZM137.048 45.6953C132.121 40.7681 124.139 40.7682 119.212 45.6953C114.285 50.6229 114.285 58.6056 119.212 63.5332L135.53 79.8535L119.231 96.1738C119.034 96.3512 118.838 96.549 118.66 96.7461C113.891 101.831 114.147 109.814 119.231 114.584C124.316 119.354 132.298 119.097 137.067 114.012L162.295 88.7822C164.679 86.4171 166 83.2245 166 79.874C166 76.5233 164.66 73.3098 162.275 70.9248L137.048 45.6953ZM82.7617 45.6953C77.8346 40.7678 69.852 40.7678 64.9248 45.6953L39.6777 70.9443C34.7703 75.8719 34.7711 83.8546 39.6982 88.7822L64.9248 114.012C67.2701 116.397 70.4826 117.718 73.833 117.718C77.1835 117.718 80.377 116.396 82.7617 114.031C87.6885 109.104 87.6888 101.121 82.7617 96.1934L66.4424 79.874L82.7617 63.5332C87.6885 58.6056 87.6887 50.6228 82.7617 45.6953Z" fill="#F7BD1E"/>
</svg>
