<svg width="200" height="200" viewBox="0 0 200 200" fill="none" xmlns="http://www.w3.org/2000/svg">
<path d="M176 0C189.255 0 200 10.7452 200 24V176C200 189.255 189.255 200 176 200H24C10.7452 200 0 189.255 0 176V24C0 10.7452 10.7452 0 24 0H176ZM144.31 145.324C143.665 145.097 143.04 145.134 142.434 145.438C141.827 145.741 141.164 146.329 140.444 147.2L130.241 159.114L120.038 147.2C119.318 146.329 118.654 145.741 118.048 145.438C117.442 145.135 116.817 145.097 116.173 145.324C115.529 145.552 114.79 146.064 113.956 146.859C112.706 147.958 112.08 148.962 112.08 149.871C112.08 150.781 112.611 151.805 113.672 152.941L124.609 165.69L113.672 178.463C112.611 179.637 112.08 180.661 112.08 181.532C112.08 182.404 112.706 183.389 113.956 184.488C114.828 185.246 115.585 185.739 116.229 185.967C116.874 186.194 117.499 186.156 118.105 185.853C118.712 185.549 119.356 184.981 120.038 184.147L130.241 172.254L140.444 184.147C141.164 184.981 141.809 185.549 142.377 185.853C142.983 186.156 143.609 186.194 144.253 185.967C144.897 185.739 145.655 185.246 146.526 184.488C147.815 183.389 148.44 182.404 148.402 181.532C148.402 180.661 147.871 179.637 146.811 178.463L135.872 165.69L146.811 152.941C147.872 151.805 148.402 150.781 148.402 149.871C148.44 148.962 147.814 147.958 146.526 146.859C145.693 146.064 144.954 145.552 144.31 145.324ZM94.6348 145.153C92.096 145.153 89.8415 145.665 87.8711 146.688C85.9385 147.674 84.4222 149.038 83.3232 150.781C82.2245 152.524 81.6749 154.514 81.6748 156.749C81.6748 158.075 81.808 159.25 82.0732 160.273C82.3764 161.297 82.774 162.206 83.2666 163.002C83.7971 163.798 84.4226 164.48 85.1426 165.049C85.8624 165.617 86.6204 166.128 87.416 166.583C88.2117 167.038 89.0455 167.417 89.917 167.72C91.1675 168.212 92.4184 168.648 93.6689 169.027C94.9572 169.368 96.1127 169.729 97.1357 170.107C98.1968 170.486 99.0314 170.941 99.6377 171.472C100.282 171.964 100.603 172.627 100.604 173.461C100.604 174.484 100.376 175.337 99.9219 176.019C99.4671 176.663 98.8032 177.137 97.9316 177.44C97.0602 177.743 95.9993 177.895 94.749 177.895C93.7638 177.895 92.8157 177.686 91.9062 177.27C91.0348 176.815 90.1447 176.037 89.2354 174.938C88.5913 174.181 87.928 173.594 87.2461 173.177C86.564 172.76 85.8625 172.589 85.1426 172.665C84.4605 172.703 83.7215 173.063 82.9258 173.745C82.13 174.503 81.5618 175.204 81.2207 175.849C80.9176 176.493 80.8416 177.137 80.9932 177.781C81.1448 178.388 81.5424 179.108 82.1865 179.941C82.4139 180.282 82.8313 180.794 83.4375 181.476C84.0438 182.158 84.8587 182.859 85.8818 183.579C86.9427 184.261 88.2119 184.848 89.6895 185.341C91.2052 185.833 92.9681 186.08 94.9766 186.08C96.5679 186.08 98.1971 185.833 99.8643 185.341C101.532 184.886 103.085 184.147 104.525 183.124C105.965 182.101 107.122 180.775 107.993 179.146C108.865 177.516 109.301 175.564 109.301 173.29C109.301 171.471 109.035 169.937 108.505 168.687C108.012 167.436 107.348 166.393 106.515 165.56C105.681 164.726 104.734 164.044 103.673 163.514C102.612 162.945 101.513 162.472 100.376 162.093C99.1255 161.714 97.8942 161.391 96.6816 161.126C95.5069 160.823 94.4267 160.52 93.4414 160.217C92.4941 159.876 91.7176 159.44 91.1113 158.909C90.543 158.379 90.2579 157.678 90.2578 156.807C90.2578 156.276 90.3723 155.803 90.5996 155.386C90.827 154.931 91.1298 154.551 91.5088 154.248C91.8877 153.945 92.3426 153.718 92.873 153.566C93.4035 153.377 93.9719 153.282 94.5781 153.282C95.6013 153.282 96.4162 153.396 97.0225 153.623C97.6667 153.813 98.2162 154.078 98.6709 154.419C99.1256 154.76 99.5804 155.139 100.035 155.556C101.21 156.351 102.252 156.674 103.161 156.522C104.108 156.371 105.057 155.632 106.004 154.306C106.913 153.055 107.311 152.088 107.197 151.406C107.084 150.686 106.496 149.834 105.436 148.849C105.246 148.621 104.886 148.317 104.355 147.938C103.863 147.522 103.18 147.105 102.309 146.688C101.437 146.272 100.357 145.912 99.0684 145.608C97.8179 145.305 96.3398 145.153 94.6348 145.153ZM72.4023 145.779C71.0004 145.779 69.9772 146.006 69.333 146.461C68.7267 146.916 68.3479 147.522 68.1963 148.28C68.0447 149 67.9688 149.758 67.9688 150.554V171.244C67.9688 172.116 67.8553 172.931 67.6279 173.688C67.4006 174.408 67.0592 175.053 66.6045 175.621C66.1877 176.152 65.6569 176.568 65.0127 176.871C64.3685 177.136 63.6296 177.27 62.7959 177.27C62.0759 177.27 61.4504 177.175 60.9199 176.985C60.3895 176.758 59.9346 176.511 59.5557 176.246C59.1769 175.981 58.8738 175.773 58.6465 175.621C58.0781 175.053 57.5285 174.56 56.998 174.144C56.5055 173.727 55.9183 173.518 55.2363 173.518C54.7437 173.518 54.2317 173.669 53.7012 173.973C53.2086 174.238 52.6778 174.655 52.1094 175.224C51.579 175.792 51.1625 176.36 50.8594 176.929C50.5942 177.459 50.461 177.97 50.4609 178.463C50.4609 179.069 50.6317 179.619 50.9727 180.111C51.3516 180.566 51.7877 181.04 52.2803 181.532C52.4319 181.684 52.7732 182.006 53.3037 182.499C53.8341 182.954 54.535 183.446 55.4062 183.977C56.3157 184.507 57.3772 184.962 58.5898 185.341C59.8024 185.758 61.1097 185.967 62.5117 185.967C64.5578 185.967 66.4336 185.607 68.1387 184.887C69.8818 184.129 71.3794 183.105 72.6299 181.816C73.9181 180.528 74.9039 179.013 75.5859 177.27C76.268 175.527 76.6083 173.651 76.6084 171.643V150.156C76.6084 149.436 76.5324 148.735 76.3809 148.053C76.2293 147.371 75.8692 146.821 75.3008 146.404C74.7323 145.988 73.7663 145.779 72.4023 145.779ZM137.048 45.6953C132.121 40.7681 124.139 40.7682 119.212 45.6953C114.285 50.6229 114.285 58.6056 119.212 63.5332L135.53 79.8535L119.231 96.1738C119.034 96.3512 118.838 96.549 118.66 96.7461C113.891 101.831 114.147 109.814 119.231 114.584C124.316 119.354 132.298 119.097 137.067 114.012L162.295 88.7822C164.679 86.4171 166 83.2245 166 79.874C166 76.5233 164.66 73.3098 162.275 70.9248L137.048 45.6953ZM82.7617 45.6953C77.8346 40.7678 69.852 40.7678 64.9248 45.6953L39.6777 70.9443C34.7703 75.8719 34.7711 83.8546 39.6982 88.7822L64.9248 114.012C67.2701 116.397 70.4826 117.718 73.833 117.718C77.1835 117.718 80.377 116.396 82.7617 114.031C87.6885 109.104 87.6888 101.121 82.7617 96.1934L66.4424 79.874L82.7617 63.5332C87.6885 58.6056 87.6887 50.6228 82.7617 45.6953Z" fill="#61DAFB"/>
</svg>
