<svg width="200" height="200" viewBox="0 0 200 200" fill="none" xmlns="http://www.w3.org/2000/svg">
<path d="M176 0C189.255 0 200 10.7452 200 24V176C200 189.255 189.255 200 176 200H24C10.7452 200 0 189.255 0 176V24C0 10.7452 10.7452 0 24 0H176ZM53.2568 145.779C51.8549 145.779 50.8504 145.987 50.2441 146.404C49.638 146.821 49.259 147.371 49.1074 148.053C48.9559 148.697 48.8799 149.379 48.8799 150.099V181.135C48.8799 181.855 48.9558 182.556 49.1074 183.238C49.259 183.92 49.6192 184.47 50.1875 184.887C50.7938 185.304 51.7982 185.512 53.2002 185.512C54.6021 185.512 55.6065 185.303 56.2129 184.887C56.8191 184.47 57.198 183.939 57.3496 183.295C57.5012 182.613 57.5771 181.911 57.5771 181.191V173.745H64.8525C66.4441 173.745 68.0551 173.461 69.6846 172.893C71.3139 172.286 72.8107 171.415 74.1748 170.278C75.5768 169.104 76.6947 167.644 77.5283 165.901C78.3999 164.158 78.8359 162.131 78.8359 159.819C78.8359 157.47 78.3999 155.423 77.5283 153.68C76.6947 151.937 75.5768 150.477 74.1748 149.303C72.8107 148.09 71.3139 147.2 69.6846 146.632C68.0931 146.063 66.5016 145.779 64.9102 145.779H53.2568ZM111.104 145.779C109.702 145.779 108.698 145.987 108.092 146.404C107.485 146.821 107.107 147.352 106.955 147.996C106.804 148.64 106.728 149.341 106.728 150.099V161.752H91.2666V150.156C91.2666 149.361 91.1906 148.64 91.0391 147.996C90.9254 147.352 90.5653 146.821 89.959 146.404C89.3906 145.987 88.405 145.779 87.0029 145.779C85.5631 145.779 84.5399 145.987 83.9336 146.404C83.3652 146.821 83.0051 147.352 82.8535 147.996C82.702 148.64 82.626 149.341 82.626 150.099V181.135C82.626 181.855 82.6832 182.556 82.7969 183.238C82.9485 183.92 83.3274 184.47 83.9336 184.887C84.5399 185.304 85.5443 185.512 86.9463 185.512C88.3482 185.512 89.3526 185.303 89.959 184.887C90.5652 184.47 90.9253 183.939 91.0391 183.295C91.1906 182.613 91.2666 181.911 91.2666 181.191V169.255H106.728V181.135C106.728 181.855 106.804 182.556 106.955 183.238C107.107 183.92 107.467 184.47 108.035 184.887C108.642 185.303 109.646 185.512 111.048 185.512C112.449 185.512 113.453 185.303 114.06 184.887C114.666 184.47 115.026 183.939 115.14 183.295C115.291 182.613 115.367 181.911 115.367 181.191V150.156C115.367 149.361 115.291 148.64 115.14 147.996C115.026 147.352 114.666 146.821 114.06 146.404C113.491 145.988 112.506 145.779 111.104 145.779ZM124.81 145.779C123.407 145.779 122.403 145.987 121.797 146.404C121.191 146.821 120.812 147.371 120.66 148.053C120.509 148.697 120.433 149.379 120.433 150.099V181.135C120.433 181.855 120.509 182.556 120.66 183.238C120.812 183.92 121.172 184.47 121.74 184.887C122.347 185.303 123.351 185.512 124.753 185.512C126.155 185.512 127.159 185.304 127.766 184.887C128.372 184.47 128.751 183.939 128.902 183.295C129.054 182.613 129.13 181.911 129.13 181.191V173.745H136.405C137.997 173.745 139.607 173.461 141.236 172.893C142.866 172.286 144.363 171.415 145.728 170.278C147.13 169.104 148.247 167.644 149.081 165.901C149.953 164.158 150.389 162.131 150.389 159.819C150.389 157.47 149.953 155.423 149.081 153.68C148.247 151.937 147.13 150.477 145.728 149.303C144.363 148.09 142.866 147.2 141.236 146.632C139.645 146.063 138.053 145.779 136.462 145.779H124.81ZM64.8525 154.419C65.9136 154.419 66.8429 154.646 67.6387 155.101C68.4723 155.555 69.1166 156.181 69.5713 156.977C70.026 157.772 70.2529 158.701 70.2529 159.762C70.2529 161.012 69.9688 162.036 69.4004 162.832C68.87 163.628 68.1879 164.215 67.3545 164.594C66.5588 164.935 65.7437 165.105 64.9102 165.105H57.5771V154.419H64.8525ZM136.405 154.419C137.466 154.419 138.395 154.646 139.19 155.101C140.024 155.555 140.668 156.181 141.123 156.977C141.578 157.772 141.806 158.701 141.806 159.762C141.806 161.012 141.521 162.036 140.952 162.832C140.422 163.628 139.74 164.215 138.906 164.594C138.11 164.935 137.296 165.105 136.462 165.105H129.13V154.419H136.405ZM137.048 45.6953C132.121 40.7681 124.139 40.7682 119.212 45.6953C114.285 50.6229 114.285 58.6056 119.212 63.5332L135.53 79.8535L119.231 96.1738C119.034 96.3512 118.838 96.549 118.66 96.7461C113.891 101.831 114.147 109.814 119.231 114.584C124.316 119.354 132.298 119.097 137.067 114.012L162.295 88.7822C164.679 86.4171 166 83.2245 166 79.874C166 76.5233 164.66 73.3098 162.275 70.9248L137.048 45.6953ZM82.7617 45.6953C77.8346 40.7678 69.852 40.7678 64.9248 45.6953L39.6777 70.9443C34.7703 75.8719 34.7711 83.8546 39.6982 88.7822L64.9248 114.012C67.2701 116.397 70.4826 117.718 73.833 117.718C77.1835 117.718 80.377 116.396 82.7617 114.031C87.6885 109.104 87.6888 101.121 82.7617 96.1934L66.4424 79.874L82.7617 63.5332C87.6885 58.6056 87.6887 50.6228 82.7617 45.6953Z" fill="#777BB4"/>
</svg>
