<svg width="200" height="200" viewBox="0 0 200 200" fill="none" xmlns="http://www.w3.org/2000/svg">
<path d="M176 0C189.255 0 200 10.7452 200 24V176C200 189.255 189.255 200 176 200H24C10.7452 200 0 189.255 0 176V24C0 10.7452 10.7452 0 24 0H176ZM128.031 145.268C127.349 145.154 126.724 145.286 126.155 145.665C125.625 146.006 125.056 146.632 124.45 147.541L115.298 161.752L106.374 147.541C105.843 146.669 105.294 146.044 104.726 145.665C104.157 145.286 103.532 145.154 102.85 145.268C102.168 145.381 101.334 145.76 100.349 146.404C99.0224 147.314 98.2647 148.205 98.0752 149.076C97.8859 149.948 98.2075 150.99 99.041 152.202L111.092 170.221V181.191C111.092 181.949 111.149 182.669 111.263 183.352C111.414 184.034 111.793 184.583 112.399 185C113.006 185.417 114.01 185.625 115.412 185.625C116.852 185.625 117.856 185.417 118.425 185C119.031 184.583 119.41 184.052 119.562 183.408C119.713 182.726 119.789 182.025 119.789 181.306V170.221L131.782 152.202C132.578 150.99 132.9 149.966 132.749 149.133C132.635 148.261 131.896 147.352 130.532 146.404C129.547 145.76 128.713 145.381 128.031 145.268ZM71.4648 145.779C70.0629 145.779 69.0585 145.988 68.4521 146.404C67.8458 146.821 67.467 147.371 67.3154 148.053C67.1639 148.697 67.0879 149.379 67.0879 150.099V181.135C67.0879 181.855 67.1639 182.556 67.3154 183.238C67.4671 183.92 67.8263 184.47 68.3945 184.887C69.0008 185.304 70.0053 185.512 71.4072 185.512C72.809 185.512 73.8136 185.303 74.4199 184.887C75.0262 184.47 75.405 183.939 75.5566 183.295C75.7082 182.613 75.7842 181.911 75.7842 181.191V173.745H83.0605C84.652 173.745 86.2623 173.461 87.8916 172.893C89.5211 172.286 91.0186 171.415 92.3828 170.278C93.7848 169.104 94.9027 167.644 95.7363 165.901C96.6079 164.158 97.0429 162.131 97.043 159.819C97.043 157.47 96.6079 155.423 95.7363 153.68C94.9027 151.937 93.7848 150.477 92.3828 149.303C91.0186 148.09 89.5211 147.2 87.8916 146.632C86.3001 146.063 84.7087 145.779 83.1172 145.779H71.4648ZM83.0605 154.419C84.1214 154.419 85.05 154.646 85.8457 155.101C86.6793 155.555 87.3236 156.181 87.7783 156.977C88.233 157.772 88.4599 158.701 88.46 159.762C88.46 161.012 88.1758 162.036 87.6074 162.832C87.077 163.628 86.395 164.215 85.5615 164.594C84.7658 164.935 83.9508 165.105 83.1172 165.105H75.7842V154.419H83.0605ZM137.048 45.6953C132.121 40.7681 124.139 40.7682 119.212 45.6953C114.285 50.6229 114.285 58.6056 119.212 63.5332L135.53 79.8535L119.231 96.1738C119.034 96.3512 118.838 96.549 118.66 96.7461C113.891 101.831 114.147 109.814 119.231 114.584C124.316 119.354 132.298 119.097 137.067 114.012L162.295 88.7822C164.679 86.4171 166 83.2245 166 79.874C166 76.5233 164.66 73.3098 162.275 70.9248L137.048 45.6953ZM82.7617 45.6953C77.8346 40.7678 69.852 40.7678 64.9248 45.6953L39.6777 70.9443C34.7703 75.8719 34.7711 83.8546 39.6982 88.7822L64.9248 114.012C67.2701 116.397 70.4826 117.718 73.833 117.718C77.1835 117.718 80.377 116.396 82.7617 114.031C87.6885 109.104 87.6888 101.121 82.7617 96.1934L66.4424 79.874L82.7617 63.5332C87.6885 58.6056 87.6887 50.6228 82.7617 45.6953Z" fill="#3776AB"/>
</svg>
