<svg width="200" height="200" viewBox="0 0 200 200" fill="none" xmlns="http://www.w3.org/2000/svg">
<path d="M176 0C189.255 0 200 10.7452 200 24V176C200 189.255 189.255 200 176 200H24C10.7452 200 0 189.255 0 176V24C0 10.7452 10.7452 0 24 0H176ZM116.922 145.153C114.383 145.153 112.129 145.665 110.158 146.688C108.226 147.674 106.709 149.038 105.61 150.781C104.512 152.524 103.962 154.514 103.962 156.749C103.962 158.075 104.095 159.25 104.36 160.273C104.663 161.297 105.061 162.206 105.554 163.002C106.084 163.798 106.71 164.48 107.43 165.049C108.15 165.617 108.908 166.128 109.703 166.583C110.499 167.038 111.333 167.417 112.204 167.72C113.455 168.212 114.706 168.648 115.956 169.027C117.244 169.368 118.401 169.728 119.424 170.107C120.485 170.486 121.319 170.941 121.925 171.472C122.569 171.964 122.891 172.627 122.891 173.461C122.891 174.484 122.664 175.337 122.209 176.019C121.754 176.663 121.09 177.137 120.219 177.44C119.347 177.743 118.286 177.895 117.036 177.895C116.051 177.895 115.104 177.686 114.194 177.27C113.323 176.815 112.432 176.037 111.522 174.938C110.878 174.181 110.215 173.594 109.533 173.177C108.851 172.76 108.15 172.589 107.43 172.665C106.748 172.703 106.009 173.063 105.213 173.745C104.417 174.503 103.849 175.204 103.508 175.849C103.205 176.493 103.129 177.137 103.28 177.781C103.432 178.388 103.829 179.108 104.474 179.941C104.701 180.282 105.118 180.794 105.725 181.476C106.331 182.158 107.146 182.859 108.169 183.579C109.23 184.261 110.5 184.848 111.978 185.341C113.493 185.833 115.255 186.08 117.264 186.08C118.855 186.08 120.484 185.833 122.151 185.341C123.819 184.886 125.373 184.147 126.812 183.124C128.252 182.101 129.409 180.775 130.28 179.146C131.152 177.516 131.588 175.564 131.588 173.29C131.588 171.471 131.322 169.937 130.792 168.687C130.299 167.436 129.636 166.393 128.803 165.56C127.969 164.726 127.021 164.044 125.96 163.514C124.899 162.945 123.8 162.472 122.663 162.093C121.413 161.714 120.181 161.391 118.969 161.126C117.794 160.823 116.714 160.52 115.729 160.217C114.781 159.876 114.005 159.44 113.398 158.909C112.83 158.379 112.546 157.678 112.546 156.807C112.546 156.276 112.659 155.803 112.887 155.386C113.114 154.931 113.417 154.551 113.796 154.248C114.175 153.945 114.63 153.718 115.16 153.566C115.691 153.377 116.259 153.282 116.865 153.282C117.888 153.282 118.703 153.396 119.31 153.623C119.954 153.813 120.503 154.078 120.958 154.419C121.413 154.76 121.868 155.139 122.322 155.556C123.497 156.351 124.539 156.674 125.448 156.522C126.396 156.371 127.344 155.632 128.291 154.306C129.2 153.055 129.598 152.088 129.484 151.406C129.371 150.686 128.783 149.834 127.723 148.849C127.533 148.621 127.173 148.317 126.643 147.938C126.15 147.522 125.467 147.105 124.596 146.688C123.724 146.272 122.645 145.912 121.356 145.608C120.106 145.305 118.627 145.153 116.922 145.153ZM71.0557 145.722C70.4495 145.722 69.8622 145.779 69.2939 145.893C68.7255 146.006 68.2707 146.329 67.9297 146.859C67.5888 147.352 67.418 148.205 67.418 149.417C67.418 150.629 67.5888 151.501 67.9297 152.031C68.2707 152.524 68.7255 152.846 69.2939 152.998C69.8622 153.112 70.4495 153.168 71.0557 153.168H80.3213V181.248C80.3213 181.968 80.3785 182.669 80.4922 183.352C80.6059 183.996 80.966 184.527 81.5723 184.943C82.1786 185.322 83.1636 185.512 84.5273 185.512C85.9293 185.512 86.915 185.322 87.4834 184.943C88.0897 184.527 88.4498 183.996 88.5635 183.352C88.715 182.707 88.791 182.026 88.791 181.306V153.168H97.9424C98.5866 153.168 99.1933 153.112 99.7617 152.998C100.33 152.884 100.785 152.562 101.126 152.031C101.505 151.501 101.694 150.648 101.694 149.474C101.694 148.224 101.505 147.352 101.126 146.859C100.785 146.329 100.349 146.006 99.8184 145.893C99.2878 145.779 98.6999 145.722 98.0557 145.722H71.0557ZM137.048 45.6953C132.121 40.7681 124.139 40.7682 119.212 45.6953C114.285 50.6229 114.285 58.6056 119.212 63.5332L135.53 79.8535L119.231 96.1738C119.034 96.3512 118.838 96.549 118.66 96.7461C113.891 101.831 114.147 109.814 119.231 114.584C124.316 119.354 132.298 119.097 137.067 114.012L162.295 88.7822C164.679 86.4171 166 83.2245 166 79.874C166 76.5233 164.66 73.3098 162.275 70.9248L137.048 45.6953ZM82.7617 45.6953C77.8346 40.7678 69.852 40.7678 64.9248 45.6953L39.6777 70.9443C34.7703 75.8719 34.7711 83.8546 39.6982 88.7822L64.9248 114.012C67.2701 116.397 70.4826 117.718 73.833 117.718C77.1835 117.718 80.377 116.396 82.7617 114.031C87.6885 109.104 87.6888 101.121 82.7617 96.1934L66.4424 79.874L82.7617 63.5332C87.6885 58.6056 87.6887 50.6228 82.7617 45.6953Z" fill="#3178C6"/>
</svg>
