<svg width="200" height="200" viewBox="0 0 200 200" fill="none" xmlns="http://www.w3.org/2000/svg">
<path d="M176 0C189.255 0 200 10.7452 200 24V176C200 189.255 189.255 200 176 200H24C10.7452 200 0 189.255 0 176V24C0 10.7452 10.7452 0 24 0H176ZM146.946 145.324C146.302 145.097 145.677 145.134 145.07 145.438C144.464 145.741 143.801 146.329 143.081 147.2L132.878 159.114L122.675 147.2C121.955 146.329 121.291 145.741 120.685 145.438C120.079 145.135 119.453 145.097 118.81 145.324C118.165 145.552 117.426 146.064 116.593 146.859C115.342 147.958 114.717 148.962 114.717 149.871C114.717 150.781 115.248 151.805 116.309 152.941L127.246 165.69L116.309 178.463C115.248 179.637 114.717 180.661 114.717 181.532C114.717 182.404 115.342 183.389 116.593 184.488C117.464 185.246 118.222 185.739 118.866 185.967C119.51 186.194 120.136 186.156 120.742 185.853C121.348 185.549 121.993 184.981 122.675 184.147L132.878 172.254L143.081 184.147C143.801 184.981 144.445 185.549 145.014 185.853C145.62 186.156 146.245 186.194 146.89 185.967C147.534 185.739 148.292 185.246 149.163 184.488C150.451 183.389 151.077 182.404 151.039 181.532C151.039 180.661 150.508 179.637 149.447 178.463L138.509 165.69L149.447 152.941C150.508 151.805 151.039 150.781 151.039 149.871C151.077 148.962 150.451 147.958 149.163 146.859C148.329 146.064 147.59 145.552 146.946 145.324ZM97.2715 145.153C94.7327 145.153 92.4782 145.665 90.5078 146.688C88.5752 147.674 87.0589 149.038 85.96 150.781C84.8612 152.524 84.3116 154.514 84.3115 156.749C84.3115 158.075 84.4447 159.25 84.71 160.273C85.0131 161.297 85.4107 162.206 85.9033 163.002C86.4338 163.798 87.0593 164.48 87.7793 165.049C88.4992 165.617 89.2571 166.128 90.0527 166.583C90.8484 167.038 91.6822 167.417 92.5537 167.72C93.8042 168.212 95.0551 168.648 96.3057 169.027C97.5939 169.368 98.7494 169.729 99.7725 170.107C100.834 170.486 101.668 170.941 102.274 171.472C102.918 171.964 103.24 172.627 103.24 173.461C103.24 174.484 103.013 175.337 102.559 176.019C102.104 176.663 101.44 177.137 100.568 177.44C99.6969 177.743 98.636 177.895 97.3857 177.895C96.4005 177.895 95.4524 177.686 94.543 177.27C93.6715 176.815 92.7814 176.037 91.8721 174.938C91.228 174.181 90.5648 173.594 89.8828 173.177C89.2007 172.76 88.4993 172.589 87.7793 172.665C87.0972 172.703 86.3582 173.063 85.5625 173.745C84.7667 174.503 84.1985 175.204 83.8574 175.849C83.5543 176.493 83.4783 177.137 83.6299 177.781C83.7815 178.388 84.1791 179.108 84.8232 179.941C85.0506 180.282 85.468 180.794 86.0742 181.476C86.6805 182.158 87.4954 182.859 88.5186 183.579C89.5794 184.261 90.8486 184.848 92.3262 185.341C93.842 185.833 95.6049 186.08 97.6133 186.08C99.2047 186.08 100.834 185.833 102.501 185.341C104.168 184.886 105.722 184.147 107.162 183.124C108.602 182.101 109.758 180.775 110.63 179.146C111.501 177.516 111.938 175.564 111.938 173.29C111.937 171.471 111.672 169.937 111.142 168.687C110.649 167.436 109.985 166.393 109.151 165.56C108.318 164.726 107.37 164.044 106.31 163.514C105.249 162.945 104.149 162.472 103.013 162.093C101.762 161.714 100.531 161.391 99.3184 161.126C98.1436 160.823 97.0634 160.52 96.0781 160.217C95.1308 159.876 94.3543 159.44 93.748 158.909C93.1797 158.379 92.8946 157.678 92.8945 156.807C92.8945 156.276 93.0091 155.803 93.2363 155.386C93.4637 154.931 93.7666 154.551 94.1455 154.248C94.5244 153.945 94.9793 153.718 95.5098 153.566C96.0402 153.377 96.6086 153.282 97.2148 153.282C98.238 153.282 99.0529 153.396 99.6592 153.623C100.303 153.813 100.853 154.078 101.308 154.419C101.762 154.76 102.217 155.139 102.672 155.556C103.846 156.351 104.888 156.674 105.798 156.522C106.745 156.371 107.693 155.632 108.641 154.306C109.55 153.055 109.948 152.088 109.834 151.406C109.72 150.686 109.133 149.834 108.072 148.849C107.883 148.621 107.523 148.317 106.992 147.938C106.5 147.522 105.817 147.105 104.945 146.688C104.074 146.272 102.993 145.912 101.705 145.608C100.455 145.305 98.9766 145.153 97.2715 145.153ZM51.4053 145.722C50.7991 145.722 50.2119 145.779 49.6436 145.893C49.0751 146.006 48.6203 146.329 48.2793 146.859C47.9384 147.352 47.7676 148.205 47.7676 149.417C47.7676 150.629 47.9384 151.501 48.2793 152.031C48.6203 152.524 49.0751 152.846 49.6436 152.998C50.2118 153.112 50.7991 153.168 51.4053 153.168H60.6709V181.248C60.6709 181.968 60.7281 182.669 60.8418 183.352C60.9555 183.996 61.3147 184.527 61.9209 184.943C62.5272 185.322 63.5129 185.512 64.877 185.512C66.279 185.512 67.2646 185.322 67.833 184.943C68.4393 184.527 68.7994 183.996 68.9131 183.352C69.0646 182.707 69.1406 182.025 69.1406 181.306V153.168H78.292C78.9362 153.168 79.5429 153.112 80.1113 152.998C80.6795 152.884 81.1336 152.562 81.4746 152.031C81.8536 151.501 82.0439 150.648 82.0439 149.474C82.0439 148.223 81.8535 147.352 81.4746 146.859C81.1336 146.329 80.6984 146.006 80.168 145.893C79.6374 145.779 79.0495 145.722 78.4053 145.722H51.4053ZM137.048 45.6953C132.121 40.7681 124.139 40.7682 119.212 45.6953C114.285 50.6229 114.285 58.6056 119.212 63.5332L135.53 79.8535L119.231 96.1738C119.034 96.3512 118.838 96.549 118.66 96.7461C113.891 101.831 114.147 109.814 119.231 114.584C124.316 119.354 132.298 119.097 137.067 114.012L162.295 88.7822C164.679 86.4171 166 83.2245 166 79.874C166 76.5233 164.66 73.3098 162.275 70.9248L137.048 45.6953ZM82.7617 45.6953C77.8346 40.7678 69.852 40.7678 64.9248 45.6953L39.6777 70.9443C34.7703 75.8719 34.7711 83.8546 39.6982 88.7822L64.9248 114.012C67.2701 116.397 70.4826 117.718 73.833 117.718C77.1835 117.718 80.377 116.396 82.7617 114.031C87.6885 109.104 87.6888 101.121 82.7617 96.1934L66.4424 79.874L82.7617 63.5332C87.6885 58.6056 87.6887 50.6228 82.7617 45.6953Z" fill="#61DAFB"/>
</svg>
