<svg width="200" height="200" viewBox="0 0 200 200" fill="none" xmlns="http://www.w3.org/2000/svg">
<g clip-path="url(#clip0_102_15)">
<path d="M111.765 0C108.235 2.52199e-05 105.883 2.35342 105.883 5.88281C105.883 9.41195 108.235 11.7646 111.765 11.7646H123.529C127.059 11.7646 129.412 9.41197 129.412 5.88281C129.412 2.3534 127.059 0 123.529 0H176.471C189.412 6.19058e-05 200 10.5882 200 23.5293V176.471C200 189.412 189.412 200 176.471 200H23.5293C10.5882 200 6.19019e-05 189.412 0 176.471V23.5293C6.27186e-05 10.5882 10.5882 6.27147e-05 23.5293 0H111.765ZM103.766 150.722C103.046 150.722 102.344 150.798 101.662 150.949C100.98 151.101 100.43 151.48 100.014 152.086C99.5969 152.654 99.3887 153.659 99.3887 155.099C99.3887 156.425 99.6156 157.392 100.07 157.998C100.525 158.566 101.093 158.908 101.775 159.021C102.495 159.135 103.216 159.191 103.936 159.191H117.521L100.014 184.089C99.8243 184.316 99.6722 184.619 99.5586 184.998C99.445 185.377 99.3887 185.794 99.3887 186.248C99.3887 187.536 99.805 188.598 100.639 189.432C101.472 190.227 102.496 190.625 103.708 190.625H126.389C127.184 190.625 127.905 190.549 128.549 190.397C129.193 190.284 129.723 189.924 130.14 189.318C130.556 188.712 130.766 187.708 130.766 186.306C130.766 185.017 130.556 184.088 130.14 183.52C129.761 182.914 129.249 182.554 128.605 182.44C127.961 182.289 127.26 182.213 126.502 182.213H111.894L129.287 157.486C129.514 157.183 129.685 156.842 129.799 156.463C129.912 156.046 129.97 155.591 129.97 155.099C129.97 153.886 129.552 152.863 128.719 152.029C127.923 151.158 126.919 150.722 125.706 150.722H103.766ZM73.002 150.836C72.3199 150.836 71.6756 150.912 71.0693 151.063C70.4631 151.177 69.9707 151.537 69.5918 152.144C69.213 152.712 69.0235 153.697 69.0234 155.099C69.0234 156.463 69.2128 157.448 69.5918 158.055C70.0086 158.661 70.5394 159.04 71.1836 159.191C71.8655 159.343 72.5663 159.419 73.2861 159.419H86.9854C86.8717 160.101 86.4927 160.972 85.8486 162.033C85.2423 163.056 84.4649 164.25 83.5176 165.614C82.6081 166.941 81.6423 168.419 80.6191 170.049C79.5961 171.678 78.6291 173.402 77.7197 175.221C76.8481 177.002 76.128 178.878 75.5596 180.849C75.0291 182.819 74.7646 184.828 74.7646 186.874C74.7647 187.594 74.8397 188.238 74.9912 188.807C75.1428 189.375 75.5227 189.791 76.1289 190.057C76.7352 190.36 77.7201 190.512 79.084 190.512C80.4482 190.512 81.4337 190.36 82.04 190.057C82.6462 189.791 83.0252 189.394 83.1768 188.863C83.3662 188.295 83.4609 187.669 83.4609 186.987C83.4609 185.244 83.7835 183.482 84.4277 181.701C85.1098 179.882 85.9622 178.063 86.9854 176.244C88.0464 174.387 89.1641 172.549 90.3389 170.73C91.5515 168.912 92.6692 167.111 93.6924 165.33C94.7533 163.549 95.6068 161.825 96.251 160.158C96.9331 158.453 97.2734 156.842 97.2734 155.326C97.2734 154.53 97.1975 153.791 97.0459 153.109C96.9322 152.427 96.5729 151.878 95.9668 151.461C95.3984 151.044 94.4127 150.836 93.0107 150.836H73.002ZM70.5879 82.3525V117.647C70.5881 130.588 81.1764 141.177 94.1172 141.177H105.883C118.824 141.177 129.412 130.588 129.412 117.647V82.3525H70.5879ZM76.4707 58.8232C72.9413 58.8232 70.5879 61.1766 70.5879 64.7061C70.588 68.2354 72.9413 70.5879 76.4707 70.5879H88.2354C91.7647 70.5879 94.1171 68.2354 94.1172 64.7061C94.1172 61.1767 91.7647 58.8233 88.2354 58.8232H76.4707ZM111.765 47.0586C108.235 47.0586 105.883 49.412 105.883 52.9414C105.883 56.4707 108.235 58.8232 111.765 58.8232H123.529C127.059 58.8232 129.412 56.4707 129.412 52.9414C129.412 49.412 127.059 47.0586 123.529 47.0586H111.765ZM76.4707 35.2939C72.9413 35.2939 70.5879 37.6473 70.5879 41.1768C70.588 44.706 72.9414 47.0586 76.4707 47.0586H88.2354C91.7646 47.0586 94.1171 44.706 94.1172 41.1768C94.1172 37.6474 91.7647 35.294 88.2354 35.2939H76.4707ZM111.765 23.5293C108.235 23.5293 105.883 25.8827 105.883 29.4121C105.883 32.9413 108.235 35.2939 111.765 35.2939H123.529C127.059 35.2939 129.412 32.9413 129.412 29.4121C129.412 25.8827 127.059 23.5293 123.529 23.5293H111.765ZM76.4707 11.7646C72.9413 11.7646 70.5879 14.118 70.5879 17.6475C70.5881 21.1766 72.9414 23.5293 76.4707 23.5293H88.2354C91.7646 23.5293 94.117 21.1766 94.1172 17.6475C94.1172 14.1181 91.7647 11.7647 88.2354 11.7646H76.4707Z" fill="#FF650F"/>
</g>
<defs>
<clipPath id="clip0_102_15">
<rect width="200" height="200" fill="white"/>
</clipPath>
</defs>
</svg>
