<svg width="200" height="200" viewBox="0 0 200 200" fill="none" xmlns="http://www.w3.org/2000/svg">
<g clip-path="url(#clip0_102_24)">
<path d="M111.765 0C108.235 2.52199e-05 105.883 2.35342 105.883 5.88281C105.883 9.41195 108.235 11.7646 111.765 11.7646H123.529C127.059 11.7646 129.412 9.41197 129.412 5.88281C129.412 2.3534 127.059 0 123.529 0H176.471C189.412 6.19058e-05 200 10.5882 200 23.5293V176.471C200 189.412 189.412 200 176.471 200H23.5293C10.5882 200 6.19019e-05 189.412 0 176.471V23.5293C6.27186e-05 10.5882 10.5882 6.27147e-05 23.5293 0H111.765ZM85.623 150.153C82.7431 150.191 80.0715 150.722 77.6084 151.745C75.1454 152.73 73.0044 154.132 71.1855 155.951C69.3666 157.732 67.945 159.836 66.9219 162.261C65.8987 164.648 65.3877 167.245 65.3877 170.049C65.3877 173.004 65.8801 175.751 66.8652 178.29C67.8884 180.829 69.2902 183.047 71.0713 184.941C72.8902 186.836 74.9935 188.314 77.3809 189.375C79.7681 190.436 82.3639 190.967 85.168 190.967C86.6079 190.967 87.9724 190.871 89.2607 190.682C90.5492 190.492 91.7626 190.247 92.8994 189.943C94.074 189.602 95.116 189.185 96.0254 188.692C97.4653 187.972 98.6019 187.139 99.4355 186.191C100.269 185.206 100.686 184.259 100.687 183.35V170.958C100.687 170.238 100.611 169.575 100.459 168.969C100.307 168.325 99.9661 167.794 99.4355 167.377C98.9051 166.96 98.0149 166.732 96.7646 166.694H86.0215C85.4152 166.694 84.8272 166.752 84.2588 166.865C83.7283 166.979 83.2922 167.302 82.9512 167.832C82.6103 168.325 82.4404 169.177 82.4404 170.39C82.4404 171.602 82.5915 172.473 82.8945 173.004C83.2356 173.534 83.6529 173.857 84.1455 173.971C84.6759 174.084 85.2632 174.141 85.9072 174.141H91.9893V181.076C91.3831 181.341 90.701 181.568 89.9434 181.758C89.2235 181.909 88.4655 182.023 87.6699 182.099C86.912 182.174 86.1534 182.213 85.3955 182.213C83.2735 182.213 81.3407 181.682 79.5977 180.621C77.8925 179.56 76.5477 178.138 75.5625 176.357C74.5773 174.539 74.0652 172.492 74.0273 170.219C74.0653 167.983 74.5577 166.013 75.5049 164.308C76.4901 162.602 77.8358 161.275 79.541 160.328C81.2462 159.343 83.1789 158.851 85.3389 158.851C86.324 158.851 87.2713 158.964 88.1807 159.191C89.1279 159.381 89.9617 159.609 90.6816 159.874C91.4014 160.139 91.9324 160.385 92.2734 160.612C92.9933 161.067 93.5617 161.39 93.9785 161.579C94.3952 161.769 94.7555 161.863 95.0586 161.863C95.627 161.863 96.1962 161.674 96.7646 161.295C97.3709 160.916 97.9768 160.29 98.583 159.419C98.924 158.926 99.1894 158.453 99.3789 157.998C99.5684 157.505 99.6443 157.069 99.6064 156.69C99.6064 155.933 99.3034 155.288 98.6973 154.758C98.1288 154.189 97.4649 153.659 96.707 153.166C95.7597 152.522 94.6418 151.972 93.3535 151.518C92.0653 151.063 90.739 150.722 89.375 150.495C88.0487 150.268 86.7978 150.153 85.623 150.153ZM109.09 150.722C108.37 150.722 107.669 150.798 106.987 150.949C106.305 151.101 105.756 151.48 105.339 152.086C104.922 152.654 104.713 153.659 104.713 155.099C104.713 156.425 104.941 157.392 105.396 157.998C105.85 158.566 106.419 158.908 107.101 159.021C107.821 159.135 108.541 159.191 109.261 159.191H122.846L105.339 184.089C105.149 184.316 104.997 184.619 104.884 184.998C104.77 185.377 104.713 185.794 104.713 186.248C104.713 187.536 105.13 188.598 105.964 189.432C106.798 190.227 107.821 190.625 109.033 190.625H131.713C132.509 190.625 133.229 190.549 133.873 190.397C134.517 190.284 135.048 189.924 135.465 189.318C135.882 188.712 136.09 187.708 136.09 186.306C136.09 185.017 135.882 184.088 135.465 183.52C135.086 182.913 134.574 182.554 133.93 182.44C133.286 182.289 132.585 182.213 131.827 182.213H117.219L134.612 157.486C134.84 157.183 135.01 156.842 135.124 156.463C135.238 156.046 135.294 155.591 135.294 155.099C135.294 153.962 134.928 152.991 134.195 152.188L133.893 151.871C133.122 151.105 132.168 150.722 131.031 150.722H109.09ZM70.5879 82.3525V117.647C70.5881 130.588 81.1764 141.177 94.1172 141.177H105.883C118.824 141.177 129.412 130.588 129.412 117.647V82.3525H70.5879ZM76.4707 58.8232C72.9413 58.8232 70.5879 61.1766 70.5879 64.7061C70.588 68.2354 72.9413 70.5879 76.4707 70.5879H88.2354C91.7647 70.5879 94.1171 68.2354 94.1172 64.7061C94.1172 61.1767 91.7647 58.8233 88.2354 58.8232H76.4707ZM111.765 47.0586C108.235 47.0586 105.883 49.412 105.883 52.9414C105.883 56.4707 108.235 58.8232 111.765 58.8232H123.529C127.059 58.8232 129.412 56.4707 129.412 52.9414C129.412 49.412 127.059 47.0586 123.529 47.0586H111.765ZM76.4707 35.2939C72.9413 35.2939 70.5879 37.6473 70.5879 41.1768C70.588 44.706 72.9414 47.0586 76.4707 47.0586H88.2354C91.7646 47.0586 94.1171 44.706 94.1172 41.1768C94.1172 37.6474 91.7647 35.294 88.2354 35.2939H76.4707ZM111.765 23.5293C108.235 23.5293 105.883 25.8827 105.883 29.4121C105.883 32.9413 108.235 35.2939 111.765 35.2939H123.529C127.059 35.2939 129.412 32.9413 129.412 29.4121C129.412 25.8827 127.059 23.5293 123.529 23.5293H111.765ZM76.4707 11.7646C72.9413 11.7646 70.5879 14.118 70.5879 17.6475C70.5881 21.1766 72.9414 23.5293 76.4707 23.5293H88.2354C91.7646 23.5293 94.117 21.1766 94.1172 17.6475C94.1172 14.1181 91.7647 11.7647 88.2354 11.7646H76.4707Z" fill="#FF650F"/>
</g>
<defs>
<clipPath id="clip0_102_24">
<rect width="200" height="200" fill="white"/>
</clipPath>
</defs>
</svg>
