<svg width="200" height="200" viewBox="0 0 200 200" fill="none" xmlns="http://www.w3.org/2000/svg">
<g clip-path="url(#clip0_102_11)">
<path d="M111.765 0C108.235 2.52199e-05 105.883 2.35342 105.883 5.88281C105.883 9.41195 108.235 11.7646 111.765 11.7646H123.529C127.059 11.7646 129.412 9.41197 129.412 5.88281C129.412 2.3534 127.059 0 123.529 0H176.471C189.412 6.19058e-05 200 10.5882 200 23.5293V176.471C200 189.412 189.412 200 176.471 200H23.5293C10.5882 200 6.19019e-05 189.412 0 176.471V23.5293C6.27186e-05 10.5882 10.5882 6.27147e-05 23.5293 0H111.765ZM99.6514 150.779C98.8557 150.779 98.0791 151.006 97.3213 151.461C96.6013 151.916 96.0518 152.522 95.6729 153.28L80.7227 184.373C80.2302 185.32 79.9646 186.154 79.9268 186.874C79.889 187.556 80.0793 188.162 80.4961 188.692C80.9508 189.185 81.6703 189.659 82.6553 190.113C84.171 190.833 85.3273 191.042 86.123 190.739C86.9567 190.474 87.7528 189.602 88.5107 188.124L91.7822 181.246H107.447L110.735 188.124C111.455 189.64 112.233 190.531 113.066 190.796C113.9 191.099 115.075 190.891 116.591 190.171C117.576 189.678 118.277 189.185 118.693 188.692C119.148 188.162 119.356 187.575 119.318 186.931C119.28 186.249 119.035 185.434 118.58 184.486L103.573 153.337C103.308 152.807 102.967 152.352 102.551 151.973C102.172 151.594 101.736 151.31 101.243 151.12C100.751 150.893 100.22 150.779 99.6514 150.779ZM53.1055 150.779C51.7034 150.779 50.6991 150.987 50.0928 151.404C49.4865 151.821 49.1076 152.352 48.9561 152.996C48.8424 153.64 48.7852 154.322 48.7852 155.042V186.135C48.7852 186.855 48.8424 187.556 48.9561 188.238C49.1077 188.92 49.4866 189.47 50.0928 189.887C50.6991 190.303 51.6848 190.512 53.0488 190.512C54.4507 190.512 55.4553 190.304 56.0615 189.887C56.6677 189.47 57.0467 188.939 57.1982 188.295C57.3498 187.613 57.4248 186.911 57.4248 186.191V178.632H64.2793L71.0674 188.352C71.9767 189.602 72.8481 190.341 73.6816 190.568C74.5153 190.796 75.634 190.398 77.0361 189.375C78.0213 188.655 78.6843 188.011 79.0254 187.442C79.4043 186.874 79.499 186.267 79.3096 185.623C79.158 184.979 78.7602 184.202 78.1162 183.293L73.1699 176.199C74.226 175.414 75.1375 174.521 75.8994 173.516C76.8467 172.265 77.5473 170.901 78.002 169.423C78.4945 167.945 78.7412 166.411 78.7412 164.819C78.7412 162.432 78.3239 160.366 77.4902 158.623C76.6566 156.88 75.5575 155.421 74.1934 154.246C72.8292 153.071 71.3325 152.2 69.7031 151.632C68.0738 151.063 66.4823 150.779 64.9287 150.779H53.1055ZM126.878 150.779C125.476 150.779 124.472 150.987 123.865 151.404C123.259 151.821 122.88 152.352 122.729 152.996C122.615 153.64 122.558 154.322 122.558 155.042V186.135C122.558 186.855 122.615 187.556 122.729 188.238C122.88 188.92 123.259 189.47 123.865 189.887C124.472 190.303 125.457 190.512 126.821 190.512C128.223 190.512 129.228 190.304 129.834 189.887C130.44 189.47 130.819 188.939 130.971 188.295C131.122 187.613 131.198 186.911 131.198 186.191V178.632H138.052L144.84 188.352C145.749 189.602 146.621 190.341 147.455 190.568C148.289 190.796 149.407 190.398 150.809 189.375C151.794 188.655 152.457 188.011 152.798 187.442C153.177 186.874 153.272 186.267 153.082 185.623C152.93 184.979 152.533 184.202 151.889 183.293L146.942 176.199C147.998 175.414 148.91 174.521 149.672 173.516C150.619 172.265 151.32 170.901 151.774 169.423C152.267 167.945 152.514 166.411 152.514 164.819C152.514 162.432 152.096 160.366 151.263 158.623C150.429 156.88 149.33 155.421 147.966 154.246C146.602 153.072 145.105 152.2 143.476 151.632C141.846 151.063 140.255 150.779 138.701 150.779H126.878ZM103.942 173.914H95.2695L99.5947 164.819L103.942 173.914ZM64.8145 159.419C65.8753 159.419 66.8039 159.646 67.5996 160.101C68.3954 160.517 69.0021 161.124 69.4189 161.92C69.8736 162.716 70.1005 163.663 70.1006 164.762C70.1006 165.709 69.9496 166.524 69.6465 167.206C69.3434 167.888 68.9644 168.438 68.5098 168.854C68.055 169.271 67.543 169.594 66.9746 169.821C66.4063 170.011 65.8566 170.105 65.3262 170.105H57.4248V159.419H64.8145ZM138.587 159.419C139.648 159.419 140.577 159.646 141.373 160.101C142.169 160.517 142.775 161.124 143.191 161.92C143.646 162.716 143.874 163.663 143.874 164.762C143.874 165.709 143.722 166.524 143.419 167.206C143.116 167.888 142.737 168.438 142.282 168.854C141.827 169.271 141.315 169.594 140.747 169.821C140.179 170.011 139.629 170.105 139.099 170.105H131.198V159.419H138.587ZM70.5879 82.3525V117.647C70.5881 130.588 81.1764 141.177 94.1172 141.177H105.883C118.824 141.177 129.412 130.588 129.412 117.647V82.3525H70.5879ZM76.4707 58.8232C72.9413 58.8232 70.5879 61.1766 70.5879 64.7061C70.588 68.2354 72.9413 70.5879 76.4707 70.5879H88.2354C91.7647 70.5879 94.1171 68.2354 94.1172 64.7061C94.1172 61.1767 91.7647 58.8233 88.2354 58.8232H76.4707ZM111.765 47.0586C108.235 47.0586 105.883 49.412 105.883 52.9414C105.883 56.4707 108.235 58.8232 111.765 58.8232H123.529C127.059 58.8232 129.412 56.4707 129.412 52.9414C129.412 49.412 127.059 47.0586 123.529 47.0586H111.765ZM76.4707 35.2939C72.9413 35.2939 70.5879 37.6473 70.5879 41.1768C70.588 44.706 72.9414 47.0586 76.4707 47.0586H88.2354C91.7646 47.0586 94.1171 44.706 94.1172 41.1768C94.1172 37.6474 91.7647 35.294 88.2354 35.2939H76.4707ZM111.765 23.5293C108.235 23.5293 105.883 25.8827 105.883 29.4121C105.883 32.9413 108.235 35.2939 111.765 35.2939H123.529C127.059 35.2939 129.412 32.9413 129.412 29.4121C129.412 25.8827 127.059 23.5293 123.529 23.5293H111.765ZM76.4707 11.7646C72.9413 11.7646 70.5879 14.118 70.5879 17.6475C70.5881 21.1766 72.9414 23.5293 76.4707 23.5293H88.2354C91.7646 23.5293 94.117 21.1766 94.1172 17.6475C94.1172 14.1181 91.7647 11.7647 88.2354 11.7646H76.4707Z" fill="#FF650F"/>
</g>
<defs>
<clipPath id="clip0_102_11">
<rect width="200" height="200" fill="white"/>
</clipPath>
</defs>
</svg>
