<svg width="200" height="200" viewBox="0 0 200 200" fill="none" xmlns="http://www.w3.org/2000/svg">
<g clip-path="url(#clip0_102_19)">
<path d="M111.765 0C108.235 2.52199e-05 105.883 2.35342 105.883 5.88281C105.883 9.41195 108.235 11.7646 111.765 11.7646H123.529C127.059 11.7646 129.412 9.41197 129.412 5.88281C129.412 2.3534 127.059 0 123.529 0H176.471C189.412 6.19058e-05 200 10.5882 200 23.5293V176.471C200 189.412 189.412 200 176.471 200H23.5293C10.5882 200 6.19019e-05 189.412 0 176.471V23.5293C6.27186e-05 10.5882 10.5882 6.27147e-05 23.5293 0H111.765ZM96.2119 150.779C95.4163 150.779 94.6396 151.006 93.8818 151.461C93.1618 151.916 92.6123 152.522 92.2334 153.28L77.2842 184.373C76.7916 185.32 76.5262 186.154 76.4883 186.874C76.4505 187.556 76.6399 188.162 77.0566 188.692C77.5114 189.185 78.2315 189.659 79.2168 190.113C80.7323 190.833 81.8878 191.042 82.6836 190.739C83.5173 190.474 84.3134 189.602 85.0713 188.124L88.3428 181.246H104.009L107.297 188.124C108.017 189.64 108.793 190.531 109.627 190.796C110.461 191.099 111.636 190.891 113.151 190.171C114.137 189.678 114.837 189.185 115.254 188.692C115.709 188.162 115.918 187.575 115.88 186.931C115.842 186.249 115.595 185.434 115.141 184.486L100.135 153.337C99.8695 152.806 99.5281 152.352 99.1113 151.973C98.7324 151.594 98.2963 151.31 97.8037 151.12C97.3111 150.893 96.7803 150.779 96.2119 150.779ZM123.438 150.779C122.037 150.779 121.032 150.987 120.426 151.404C119.82 151.821 119.441 152.352 119.289 152.996C119.175 153.64 119.119 154.322 119.119 155.042V186.135C119.119 186.855 119.175 187.556 119.289 188.238C119.441 188.92 119.82 189.47 120.426 189.887C121.032 190.304 122.018 190.512 123.382 190.512C124.784 190.512 125.788 190.303 126.395 189.887C127.001 189.47 127.38 188.939 127.531 188.295C127.683 187.613 127.759 186.911 127.759 186.191V178.632H134.612L141.4 188.352C142.31 189.602 143.182 190.341 144.016 190.568C144.849 190.796 145.967 190.398 147.369 189.375C148.354 188.655 149.017 188.011 149.358 187.442C149.737 186.874 149.832 186.267 149.643 185.623C149.491 184.979 149.093 184.202 148.449 183.293L143.503 176.199C144.559 175.414 145.47 174.521 146.232 173.516C147.18 172.265 147.881 170.901 148.336 169.423C148.828 167.945 149.074 166.411 149.074 164.819C149.074 162.432 148.658 160.366 147.824 158.623C146.991 156.88 145.892 155.421 144.527 154.246C143.163 153.071 141.666 152.2 140.037 151.632C138.408 151.063 136.815 150.779 135.262 150.779H123.438ZM53.9453 150.722C53.3391 150.722 52.7519 150.779 52.1836 150.893C51.6152 151.006 51.1604 151.329 50.8193 151.859C50.4783 152.352 50.3076 153.204 50.3076 154.417C50.3076 155.63 50.4783 156.501 50.8193 157.031C51.1604 157.524 51.6152 157.846 52.1836 157.998C52.7519 158.112 53.3392 158.168 53.9453 158.168H63.2109V186.248C63.2109 186.968 63.2672 187.669 63.3809 188.352C63.4945 188.996 63.8546 189.527 64.4609 189.943C65.0673 190.322 66.0528 190.512 67.417 190.512C68.819 190.512 69.8046 190.322 70.373 189.943C70.9792 189.527 71.3385 188.996 71.4521 188.352C71.6037 187.707 71.6797 187.026 71.6797 186.306V158.168H80.832C81.476 158.168 82.0821 158.112 82.6504 157.998C83.2188 157.884 83.6736 157.562 84.0146 157.031C84.3935 156.501 84.583 155.648 84.583 154.474C84.583 153.223 84.3935 152.352 84.0146 151.859C83.6736 151.329 83.2376 151.006 82.707 150.893C82.1766 150.779 81.5894 150.722 80.9453 150.722H53.9453ZM100.503 173.914H91.8301L96.1553 164.819L100.503 173.914ZM135.148 159.419C136.209 159.419 137.138 159.646 137.934 160.101C138.729 160.517 139.335 161.124 139.752 161.92C140.207 162.716 140.435 163.663 140.435 164.762C140.435 165.709 140.283 166.524 139.979 167.206C139.676 167.888 139.297 168.438 138.843 168.854C138.388 169.271 137.877 169.594 137.309 169.821C136.74 170.011 136.191 170.105 135.66 170.105H127.759V159.419H135.148ZM70.5879 82.3525V117.647C70.5881 130.588 81.1764 141.177 94.1172 141.177H105.883C118.824 141.177 129.412 130.588 129.412 117.647V82.3525H70.5879ZM76.4707 58.8232C72.9413 58.8232 70.5879 61.1766 70.5879 64.7061C70.588 68.2354 72.9413 70.5879 76.4707 70.5879H88.2354C91.7647 70.5879 94.1171 68.2354 94.1172 64.7061C94.1172 61.1767 91.7647 58.8233 88.2354 58.8232H76.4707ZM111.765 47.0586C108.235 47.0586 105.883 49.412 105.883 52.9414C105.883 56.4707 108.235 58.8232 111.765 58.8232H123.529C127.059 58.8232 129.412 56.4707 129.412 52.9414C129.412 49.412 127.059 47.0586 123.529 47.0586H111.765ZM76.4707 35.2939C72.9413 35.2939 70.5879 37.6473 70.5879 41.1768C70.588 44.706 72.9414 47.0586 76.4707 47.0586H88.2354C91.7646 47.0586 94.1171 44.706 94.1172 41.1768C94.1172 37.6474 91.7647 35.294 88.2354 35.2939H76.4707ZM111.765 23.5293C108.235 23.5293 105.883 25.8827 105.883 29.4121C105.883 32.9413 108.235 35.2939 111.765 35.2939H123.529C127.059 35.2939 129.412 32.9413 129.412 29.4121C129.412 25.8827 127.059 23.5293 123.529 23.5293H111.765ZM76.4707 11.7646C72.9413 11.7646 70.5879 14.118 70.5879 17.6475C70.5881 21.1766 72.9414 23.5293 76.4707 23.5293H88.2354C91.7646 23.5293 94.117 21.1766 94.1172 17.6475C94.1172 14.1181 91.7647 11.7647 88.2354 11.7646H76.4707Z" fill="#FF650F"/>
</g>
<defs>
<clipPath id="clip0_102_19">
<rect width="200" height="200" fill="white"/>
</clipPath>
</defs>
</svg>
