<svg width="200" height="200" viewBox="0 0 200 200" fill="none" xmlns="http://www.w3.org/2000/svg">
<g clip-path="url(#clip0_102_7)">
<path d="M111.765 0C108.235 2.52199e-05 105.883 2.35342 105.883 5.88281C105.883 9.41195 108.235 11.7646 111.765 11.7646H123.529C127.059 11.7646 129.412 9.41197 129.412 5.88281C129.412 2.3534 127.059 0 123.529 0H176.471C189.412 6.19058e-05 200 10.5882 200 23.5293V176.471C200 189.412 189.412 200 176.471 200H23.5293C10.5882 200 6.19019e-05 189.412 0 176.471V23.5293C6.27186e-05 10.5882 10.5882 6.27147e-05 23.5293 0H111.765ZM65.457 150.722C64.737 150.722 64.0356 150.798 63.3535 150.949C62.6715 151.101 62.1219 151.48 61.7051 152.086C61.2883 152.654 61.0801 153.659 61.0801 155.099C61.0801 156.425 61.307 157.392 61.7617 157.998C62.2165 158.566 62.7857 158.908 63.4678 159.021C64.1875 159.135 64.9072 159.191 65.627 159.191H79.2129L61.7051 184.089C61.5157 184.316 61.3646 184.619 61.251 184.998C61.1373 185.377 61.0801 185.793 61.0801 186.248C61.0801 187.536 61.4965 188.598 62.3301 189.432C63.1638 190.227 64.1878 190.625 65.4004 190.625H88.0801C88.8758 190.625 89.596 190.549 90.2402 190.397C90.8843 190.284 91.4153 189.925 91.832 189.318C92.2488 188.712 92.457 187.708 92.457 186.306C92.457 185.017 92.2489 184.088 91.832 183.52C91.4531 182.913 90.941 182.554 90.2969 182.44C89.6527 182.289 88.9513 182.213 88.1934 182.213H73.585L90.9785 157.486C91.2059 157.183 91.3765 156.842 91.4902 156.463C91.6039 156.046 91.6611 155.591 91.6611 155.099C91.6611 153.886 91.2438 152.863 90.4102 152.029C89.6144 151.158 88.61 150.722 87.3975 150.722H65.457ZM100.122 150.779C98.7201 150.779 97.7157 150.988 97.1094 151.404C96.5031 151.821 96.1242 152.352 95.9727 152.996C95.859 153.64 95.8018 154.341 95.8018 155.099V186.191C95.8018 186.911 95.859 187.613 95.9727 188.295C96.1243 188.977 96.5031 189.527 97.1094 189.943C97.7157 190.322 98.7007 190.512 100.064 190.512C101.504 190.512 102.509 190.322 103.077 189.943C103.683 189.527 104.062 188.996 104.214 188.352C104.365 187.669 104.441 186.968 104.441 186.248V155.156C104.441 154.361 104.365 153.64 104.214 152.996C104.1 152.352 103.741 151.821 103.135 151.404C102.566 150.987 101.562 150.779 100.122 150.779ZM113.73 150.779C112.329 150.779 111.324 150.987 110.718 151.404C110.112 151.821 109.733 152.371 109.581 153.053C109.43 153.697 109.355 154.379 109.354 155.099V186.135C109.354 186.855 109.429 187.556 109.581 188.238C109.733 188.92 110.093 189.47 110.661 189.887C111.267 190.304 112.272 190.512 113.674 190.512C115.076 190.512 116.08 190.303 116.687 189.887C117.293 189.47 117.672 188.939 117.823 188.295C117.975 187.613 118.051 186.911 118.051 186.191V178.745H125.327C126.919 178.745 128.529 178.461 130.158 177.893C131.788 177.286 133.284 176.415 134.648 175.278C136.051 174.104 137.169 172.644 138.003 170.901C138.874 169.158 139.31 167.131 139.31 164.819C139.31 162.47 138.875 160.423 138.003 158.68C137.169 156.937 136.051 155.477 134.648 154.303C133.284 153.09 131.788 152.2 130.158 151.632C128.567 151.063 126.975 150.779 125.384 150.779H113.73ZM125.327 159.419C126.388 159.419 127.317 159.646 128.112 160.101C128.946 160.555 129.59 161.181 130.045 161.977C130.5 162.772 130.727 163.701 130.727 164.762C130.727 166.012 130.442 167.036 129.874 167.832C129.344 168.628 128.662 169.215 127.828 169.594C127.032 169.935 126.217 170.105 125.384 170.105H118.051V159.419H125.327ZM70.5879 82.3525V117.647C70.5881 130.588 81.1764 141.177 94.1172 141.177H105.883C118.824 141.177 129.412 130.588 129.412 117.647V82.3525H70.5879ZM76.4707 58.8232C72.9413 58.8232 70.5879 61.1766 70.5879 64.7061C70.588 68.2354 72.9413 70.5879 76.4707 70.5879H88.2354C91.7647 70.5879 94.1171 68.2354 94.1172 64.7061C94.1172 61.1767 91.7647 58.8233 88.2354 58.8232H76.4707ZM111.765 47.0586C108.235 47.0586 105.883 49.412 105.883 52.9414C105.883 56.4707 108.235 58.8232 111.765 58.8232H123.529C127.059 58.8232 129.412 56.4707 129.412 52.9414C129.412 49.412 127.059 47.0586 123.529 47.0586H111.765ZM76.4707 35.2939C72.9413 35.2939 70.5879 37.6473 70.5879 41.1768C70.588 44.706 72.9414 47.0586 76.4707 47.0586H88.2354C91.7646 47.0586 94.1171 44.706 94.1172 41.1768C94.1172 37.6474 91.7647 35.294 88.2354 35.2939H76.4707ZM111.765 23.5293C108.235 23.5293 105.883 25.8827 105.883 29.4121C105.883 32.9413 108.235 35.2939 111.765 35.2939H123.529C127.059 35.2939 129.412 32.9413 129.412 29.4121C129.412 25.8827 127.059 23.5293 123.529 23.5293H111.765ZM76.4707 11.7646C72.9413 11.7646 70.5879 14.118 70.5879 17.6475C70.5881 21.1766 72.9414 23.5293 76.4707 23.5293H88.2354C91.7646 23.5293 94.117 21.1766 94.1172 17.6475C94.1172 14.1181 91.7647 11.7647 88.2354 11.7646H76.4707Z" fill="#FF650F"/>
</g>
<defs>
<clipPath id="clip0_102_7">
<rect width="200" height="200" fill="white"/>
</clipPath>
</defs>
</svg>
