<svg width="200" height="200" viewBox="0 0 200 200" fill="none" xmlns="http://www.w3.org/2000/svg">
<path d="M176 0C189.255 0 200 10.7452 200 24V176C200 189.255 189.255 200 176 200H24C10.7452 200 0 189.255 0 176V24C0 10.7452 10.7452 0 24 0H176ZM97.6816 72.2451C94.0655 72.2452 90.8544 72.9744 88.0479 74.4316C85.2951 75.835 83.1356 77.7779 81.5703 80.2607C80.0051 82.7435 79.2227 85.5773 79.2227 88.7617C79.2227 90.6507 79.4113 92.324 79.7891 93.7812C80.2209 95.2386 80.7876 96.5345 81.4893 97.668C82.2448 98.8013 83.1357 99.7725 84.1611 100.582C85.1866 101.392 86.266 102.121 87.3994 102.769C88.5328 103.416 89.7206 103.956 90.9619 104.388C92.7431 105.089 94.5245 105.71 96.3057 106.25C98.1407 106.736 99.7869 107.248 101.244 107.788C102.755 108.328 103.943 108.975 104.807 109.73C105.724 110.432 106.184 111.377 106.184 112.564C106.184 114.022 105.86 115.236 105.212 116.208C104.564 117.126 103.619 117.801 102.378 118.232C101.137 118.664 99.6249 118.88 97.8438 118.88C96.4405 118.88 95.0912 118.583 93.7959 117.989C92.5545 117.342 91.2856 116.235 89.9902 114.67C89.0728 113.591 88.1286 112.754 87.1572 112.16C86.1857 111.566 85.1867 111.323 84.1611 111.431C83.1896 111.485 82.1373 111.998 81.0039 112.97C79.8706 114.049 79.061 115.047 78.5752 115.965C78.1434 116.882 78.0351 117.8 78.251 118.718C78.4669 119.581 79.0337 120.607 79.9512 121.794C80.275 122.28 80.8688 123.009 81.7324 123.98C82.596 124.952 83.7566 125.95 85.2139 126.976C86.7252 127.947 88.5336 128.784 90.6387 129.485C92.7976 130.187 95.3074 130.538 98.168 130.538C100.435 130.538 102.756 130.187 105.131 129.485C107.506 128.838 109.719 127.785 111.77 126.328C113.82 124.871 115.467 122.982 116.708 120.661C117.949 118.34 118.57 115.56 118.57 112.321C118.57 109.731 118.192 107.545 117.437 105.764C116.735 103.983 115.791 102.498 114.604 101.311C113.416 100.123 112.066 99.1521 110.555 98.3965C109.043 97.5869 107.479 96.9118 105.859 96.3721C104.078 95.8323 102.324 95.3739 100.597 94.9961C98.9235 94.5643 97.3848 94.132 95.9814 93.7002C94.6323 93.2144 93.5256 92.5935 92.6621 91.8379C91.8528 91.0823 91.4483 90.0839 91.4482 88.8428C91.4482 88.0871 91.6097 87.4121 91.9336 86.8184C92.2574 86.1707 92.6898 85.631 93.2295 85.1992C93.7691 84.7676 94.4165 84.4434 95.1719 84.2275C95.9275 83.9577 96.738 83.8232 97.6016 83.8232C99.0587 83.8233 100.219 83.9848 101.083 84.3086C102 84.5785 102.783 84.9567 103.431 85.4424C104.078 85.9281 104.726 86.4679 105.374 87.0615C107.047 88.1947 108.531 88.6533 109.826 88.4375C111.176 88.2216 112.526 87.1694 113.875 85.2803C115.17 83.4993 115.737 82.1229 115.575 81.1514C115.413 80.1259 114.577 78.9111 113.065 77.5078C112.796 77.184 112.282 76.7526 111.526 76.2129C110.825 75.6192 109.854 75.0253 108.612 74.4316C107.371 73.8379 105.832 73.3244 103.997 72.8926C102.216 72.4608 100.11 72.2451 97.6816 72.2451ZM55.4541 72.5693C53.0253 72.5693 50.4613 72.9466 47.7627 73.7021C45.0639 74.4038 42.446 75.5112 39.9092 77.0225C37.3724 78.4798 35.0784 80.3415 33.0273 82.6084C30.9763 84.8753 29.3303 87.5474 28.0889 90.624C26.9014 93.6466 26.3076 97.1011 26.3076 100.987C26.3076 105.035 26.9014 108.651 28.0889 111.836C29.3303 114.966 30.9764 117.719 33.0273 120.094C35.1324 122.415 37.4534 124.331 39.9902 125.843C42.527 127.354 45.118 128.488 47.7627 129.243C50.4073 129.999 52.9172 130.376 55.292 130.376C58.1524 130.376 60.6082 130.053 62.6592 129.405C64.7102 128.812 66.3572 128.164 67.5986 127.462C68.8399 126.706 69.6766 126.22 70.1084 126.004C71.0796 125.41 71.997 124.763 72.8604 124.062C73.724 123.306 74.1562 122.361 74.1562 121.228C74.2102 120.58 74.1019 119.932 73.832 119.284C73.5622 118.583 73.1848 117.881 72.6992 117.18C71.8896 115.884 71.0792 114.939 70.2695 114.346C69.514 113.752 68.7585 113.455 68.0029 113.455C67.3553 113.455 66.7072 113.618 66.0596 113.941C65.466 114.265 64.8719 114.615 64.2783 114.993C63.6846 115.371 62.9563 115.803 62.0928 116.289C61.2833 116.721 60.2848 117.098 59.0977 117.422C57.9642 117.746 56.587 117.908 54.9678 117.908C53.1327 117.908 51.2438 117.584 49.3008 116.937C47.4117 116.235 45.6573 115.21 44.0381 113.86C42.419 112.511 41.0968 110.811 40.0713 108.76C39.0997 106.709 38.6133 104.252 38.6133 101.392C38.6133 98.639 39.0998 96.2375 40.0713 94.1865C41.0428 92.0816 42.3379 90.3542 43.957 89.0049C45.5763 87.6555 47.3306 86.6565 49.2197 86.0088C51.1627 85.3072 53.0788 84.9561 54.9678 84.9561C56.8029 84.9561 58.3145 85.1456 59.502 85.5234C60.6894 85.8473 61.6343 86.2245 62.3359 86.6562C63.0376 87.0341 63.5773 87.3581 63.9551 87.6279C64.8186 88.1676 65.5198 88.6 66.0596 88.9238C66.6532 89.2476 67.2742 89.4091 67.9219 89.4092C68.7314 89.4092 69.514 89.1392 70.2695 88.5996C71.0792 88.0059 71.9167 87.0881 72.7803 85.8467C73.2658 85.1453 73.6162 84.4978 73.832 83.9043C74.1019 83.2566 74.2373 82.6086 74.2373 81.9609C74.1833 80.7195 73.724 79.7205 72.8604 78.9648C71.997 78.2094 71.0797 77.535 70.1084 76.9414C69.7845 76.6715 68.9741 76.2122 67.6787 75.5645C66.3834 74.8629 64.71 74.1886 62.6592 73.541C60.6082 72.8934 58.2066 72.5694 55.4541 72.5693ZM128.498 72.5693C127.527 72.5695 126.339 72.9739 124.937 73.7832C122.885 74.7548 121.617 75.8079 121.131 76.9414C120.699 78.0208 120.915 79.5589 121.778 81.5557L141.371 126.328C141.857 127.462 142.613 128.325 143.639 128.919C144.718 129.459 146.013 129.728 147.524 129.729C148.874 129.729 150.061 129.432 151.087 128.838C152.166 128.19 152.949 127.354 153.435 126.328L173.028 81.7988C173.892 79.8558 174.162 78.317 173.838 77.1836C173.568 75.9962 172.272 74.8626 169.951 73.7832C168.548 72.9737 167.333 72.5693 166.308 72.5693C165.282 72.5694 164.391 72.9205 163.636 73.6221C162.934 74.3237 162.314 75.3763 161.774 76.7793L147.362 112.402L133.032 76.5361C132.492 75.1869 131.844 74.1887 131.089 73.541C130.387 72.8394 129.524 72.5154 128.498 72.5693Z" fill="#01AC49"/>
</svg>
