<svg width="200" height="200" viewBox="0 0 200 200" fill="none" xmlns="http://www.w3.org/2000/svg">
<path d="M176 0C189.255 0 200 10.7452 200 24V176C200 189.255 189.255 200 176 200H24C10.7452 200 0 189.255 0 176V24C0 10.7452 10.7452 0 24 0H176ZM75.0107 71.4883C74.0932 71.1644 73.2025 71.2186 72.3389 71.6504C71.4753 72.0822 70.5303 72.9188 69.5049 74.1602L54.9717 91.1299L40.4395 74.1602C39.4141 72.9189 38.4699 72.0822 37.6064 71.6504C36.7429 71.2186 35.8521 71.1645 34.9346 71.4883C34.017 71.8121 32.9638 72.5404 31.7764 73.6738C29.9954 75.2389 29.1056 76.6695 29.1055 77.9648C29.1055 79.2602 29.8608 80.7177 31.3721 82.3369L46.9512 100.496L31.3721 118.689C29.8608 120.363 29.1055 121.82 29.1055 123.062C29.1056 124.303 29.9954 125.706 31.7764 127.271C33.0178 128.351 34.098 129.052 35.0156 129.376C35.9331 129.7 36.824 129.647 37.6875 129.215C38.551 128.783 39.468 127.973 40.4395 126.785L54.9717 109.846L69.5049 126.785C70.5304 127.973 71.4482 128.783 72.2578 129.215C73.1214 129.647 74.0121 129.7 74.9297 129.376C75.8472 129.052 76.9267 128.351 78.168 127.271C80.003 125.706 80.8937 124.303 80.8398 123.062C80.8398 121.82 80.0845 120.363 78.5732 118.689L62.9932 100.496L78.5732 82.3369C80.0844 80.7177 80.8398 79.2602 80.8398 77.9648C80.8937 76.6695 80.003 75.239 78.168 73.6738C76.9807 72.5405 75.9282 71.8121 75.0107 71.4883ZM150.212 71.2451C146.596 71.2451 143.384 71.9743 140.577 73.4316C137.825 74.835 135.666 76.778 134.101 79.2607C132.535 81.7436 131.752 84.5772 131.752 87.7617C131.752 89.6508 131.942 91.3239 132.319 92.7812C132.751 94.2386 133.318 95.5345 134.02 96.668C134.775 97.8011 135.665 98.7726 136.69 99.582C137.716 100.392 138.796 101.121 139.93 101.769C141.063 102.416 142.251 102.956 143.492 103.388C145.273 104.089 147.054 104.71 148.835 105.25C150.67 105.736 152.317 106.248 153.774 106.788C155.285 107.328 156.472 107.975 157.336 108.73C158.253 109.432 158.713 110.377 158.713 111.564C158.713 113.022 158.389 114.236 157.741 115.208C157.094 116.126 156.149 116.801 154.907 117.232C153.666 117.664 152.155 117.88 150.374 117.88C148.971 117.88 147.621 117.583 146.325 116.989C145.084 116.342 143.816 115.235 142.521 113.67C141.603 112.59 140.658 111.754 139.687 111.16C138.715 110.566 137.716 110.323 136.69 110.431C135.719 110.485 134.667 110.998 133.533 111.97C132.4 113.049 131.59 114.047 131.104 114.965C130.673 115.882 130.564 116.8 130.78 117.718C130.996 118.581 131.563 119.607 132.48 120.794C132.804 121.28 133.398 122.009 134.262 122.98C135.125 123.952 136.286 124.95 137.743 125.976C139.254 126.947 141.063 127.784 143.168 128.485C145.327 129.187 147.837 129.538 150.697 129.538C152.964 129.538 155.285 129.187 157.66 128.485C160.035 127.838 162.248 126.785 164.299 125.328C166.35 123.871 167.997 121.982 169.238 119.661C170.48 117.34 171.1 114.56 171.1 111.321C171.1 108.731 170.722 106.545 169.967 104.764C169.265 102.982 168.32 101.498 167.133 100.311C165.945 99.1232 164.596 98.1521 163.085 97.3965C161.574 96.5869 160.008 95.9118 158.389 95.3721C156.608 94.8323 154.853 94.3739 153.126 93.9961C151.453 93.5643 149.915 93.132 148.512 92.7002C147.162 92.2144 146.056 91.5935 145.192 90.8379C144.383 90.0823 143.978 89.0841 143.978 87.8428C143.978 87.0871 144.139 86.4121 144.463 85.8184C144.787 85.1707 145.219 84.631 145.759 84.1992C146.299 83.7675 146.947 83.4434 147.702 83.2275C148.458 82.9578 149.267 82.8232 150.131 82.8232C151.588 82.8233 152.749 82.9848 153.612 83.3086C154.53 83.5785 155.312 83.9566 155.96 84.4424C156.608 84.9281 157.256 85.4678 157.903 86.0615C159.576 87.1949 161.061 87.6534 162.356 87.4375C163.706 87.2214 165.055 86.1692 166.404 84.2803C167.7 82.4993 168.266 81.1229 168.104 80.1514C167.943 79.1259 167.106 77.9111 165.595 76.5078C165.325 76.184 164.812 75.7525 164.057 75.2129C163.355 74.6192 162.383 74.0253 161.142 73.4316C159.9 72.8379 158.362 72.3244 156.526 71.8926C154.745 71.4609 152.64 71.2451 150.212 71.2451ZM93.584 72.1357C91.587 72.1358 90.1566 72.4326 89.293 73.0264C88.4295 73.62 87.8898 74.3756 87.6738 75.293C87.5119 76.2105 87.4307 77.2096 87.4307 78.2891V122.575C87.4307 123.601 87.539 124.6 87.7549 125.571C87.9708 126.543 88.5105 127.325 89.374 127.919C90.2376 128.459 91.6409 128.729 93.584 128.729H121.921C122.838 128.729 123.675 128.647 124.431 128.485C125.24 128.323 125.915 127.865 126.455 127.109C126.995 126.3 127.265 125.058 127.265 123.385C127.265 121.658 126.995 120.417 126.455 119.661C125.969 118.905 125.321 118.446 124.512 118.284C123.702 118.122 122.838 118.042 121.921 118.042H99.7373V78.2891C99.7373 77.2096 99.629 76.2105 99.4131 75.293C99.2511 74.3756 98.7385 73.62 97.875 73.0264C97.0654 72.4327 95.635 72.1357 93.584 72.1357Z" fill="#01AC49"/>
</svg>
