<svg width="200" height="200" viewBox="0 0 200 200" fill="none" xmlns="http://www.w3.org/2000/svg">
<path d="M176 0C189.255 0 200 10.7452 200 24V176C200 189.255 189.255 200 176 200H24C10.7452 200 0 189.255 0 176V24C0 10.7452 10.7452 0 24 0H176ZM55.9297 76C55.1667 75.7307 54.4262 75.7758 53.708 76.1348C52.9898 76.4939 52.2035 77.1893 51.3506 78.2217L39.2637 92.335L27.1777 78.2217C26.325 77.1895 25.5394 76.4939 24.8213 76.1348C24.103 75.7756 23.3618 75.7307 22.5986 76C21.8355 76.2694 20.9602 76.8757 19.9727 77.8184C18.4915 79.12 17.751 80.3094 17.751 81.3867C17.751 82.4641 18.3788 83.6767 19.6357 85.0234L32.5928 100.126L19.6357 115.257C18.3791 116.648 17.751 117.86 17.751 118.893C17.751 119.925 18.4915 121.092 19.9727 122.394C21.005 123.291 21.9029 123.875 22.666 124.145C23.4291 124.414 24.1704 124.369 24.8887 124.01C25.6068 123.651 26.3699 122.978 27.1777 121.99L39.2637 107.901L51.3506 121.99C52.2035 122.978 52.9673 123.651 53.6406 124.01C54.3588 124.369 55.0992 124.414 55.8623 124.145C56.6254 123.875 57.5232 123.291 58.5557 122.394C60.0818 121.092 60.8232 119.925 60.7783 118.893C60.7783 117.86 60.1493 116.648 58.8926 115.257L45.9346 100.126L58.8926 85.0234C60.1495 83.6767 60.7783 82.4641 60.7783 81.3867C60.8231 80.3094 60.0818 79.1201 58.5557 77.8184C57.5681 76.8757 56.6928 76.2693 55.9297 76ZM177.317 76C176.554 75.7307 175.813 75.7756 175.095 76.1348C174.377 76.4939 173.591 77.1895 172.738 78.2217L160.651 92.335L148.565 78.2217C147.713 77.1892 146.926 76.4939 146.208 76.1348C145.49 75.7758 144.749 75.7307 143.986 76C143.223 76.2693 142.348 76.8757 141.36 77.8184C139.879 79.1201 139.138 80.3094 139.138 81.3867C139.138 82.4641 139.767 83.6767 141.023 85.0234L153.98 100.126L141.023 115.257C139.767 116.648 139.138 117.86 139.138 118.893C139.138 119.925 139.879 121.092 141.36 122.394C142.393 123.291 143.291 123.875 144.054 124.145C144.817 124.414 145.557 124.369 146.275 124.01C146.994 123.651 147.757 122.978 148.565 121.99L160.651 107.901L172.738 121.99C173.591 122.978 174.354 123.651 175.027 124.01C175.746 124.369 176.487 124.414 177.25 124.145C178.013 123.875 178.911 123.291 179.943 122.394C181.469 121.092 182.21 119.925 182.165 118.893C182.165 117.86 181.537 116.648 180.28 115.257L167.322 100.126L180.28 85.0234C181.537 83.6767 182.165 82.4641 182.165 81.3867C182.21 80.3094 181.469 79.12 179.943 77.8184C178.956 76.8757 178.08 76.2694 177.317 76ZM118.473 75.7979C115.465 75.7979 112.794 76.4042 110.46 77.6162C108.171 78.7833 106.375 80.3991 105.073 82.4639C103.771 84.5287 103.121 86.8858 103.121 89.5342C103.121 91.1052 103.278 92.497 103.592 93.709C103.951 94.921 104.422 95.9987 105.006 96.9414C105.634 97.8841 106.376 98.6919 107.229 99.3652C108.081 100.039 108.979 100.645 109.922 101.184C110.864 101.722 111.852 102.171 112.884 102.53C114.365 103.114 115.847 103.63 117.328 104.079C118.854 104.483 120.224 104.91 121.436 105.358C122.692 105.807 123.68 106.346 124.398 106.975C125.161 107.558 125.543 108.344 125.543 109.331C125.543 110.543 125.274 111.553 124.735 112.361C124.197 113.124 123.411 113.685 122.379 114.044C121.346 114.403 120.089 114.583 118.607 114.583C117.441 114.583 116.318 114.336 115.241 113.843C114.209 113.304 113.153 112.384 112.076 111.082C111.313 110.184 110.528 109.488 109.72 108.994C108.912 108.5 108.081 108.299 107.229 108.389C106.42 108.434 105.544 108.86 104.602 109.668C103.659 110.566 102.986 111.396 102.582 112.159C102.223 112.922 102.133 113.685 102.312 114.448C102.492 115.166 102.964 116.019 103.727 117.007C103.996 117.411 104.49 118.017 105.208 118.825C105.926 119.633 106.892 120.464 108.104 121.316C109.36 122.124 110.865 122.821 112.615 123.404C114.411 123.988 116.498 124.279 118.877 124.279C120.762 124.279 122.693 123.988 124.668 123.404C126.643 122.866 128.484 121.99 130.189 120.778C131.895 119.566 133.264 117.995 134.297 116.064C135.329 114.134 135.846 111.822 135.846 109.129C135.846 106.974 135.532 105.156 134.903 103.675C134.32 102.193 133.533 100.959 132.546 99.9717C131.558 98.9841 130.437 98.1753 129.18 97.5469C127.923 96.8735 126.62 96.3132 125.273 95.8643C123.792 95.4154 122.334 95.0329 120.897 94.7188C119.506 94.3596 118.226 94.0007 117.059 93.6416C115.937 93.2376 115.016 92.7211 114.298 92.0928C113.625 91.4644 113.288 90.6338 113.288 89.6016C113.288 88.9732 113.423 88.4117 113.692 87.918C113.962 87.3795 114.321 86.9303 114.77 86.5713C115.218 86.2122 115.757 85.9432 116.386 85.7637C117.014 85.5393 117.687 85.4268 118.405 85.4268C119.617 85.4268 120.583 85.5618 121.301 85.8311C122.064 86.0555 122.715 86.3695 123.254 86.7734C123.793 87.1774 124.331 87.6263 124.87 88.1201C126.262 89.0628 127.496 89.4442 128.573 89.2646C129.695 89.0851 130.818 88.2098 131.94 86.6387C133.017 85.1576 133.489 84.013 133.354 83.2051C133.22 82.3522 132.524 81.3419 131.267 80.1748C131.042 79.9055 130.616 79.5465 129.987 79.0977C129.404 78.6039 128.596 78.11 127.563 77.6162C126.531 77.1225 125.252 76.696 123.726 76.3369C122.244 75.9778 120.493 75.7979 118.473 75.7979ZM71.377 76.5391C69.716 76.5391 68.5259 76.7855 67.8076 77.2793C67.0895 77.7731 66.6405 78.402 66.4609 79.165C66.3263 79.9281 66.2598 80.7586 66.2598 81.6562V118.488C66.2598 119.341 66.3488 120.172 66.5283 120.979C66.7079 121.787 67.1569 122.439 67.875 122.933C68.5932 123.382 69.7609 123.606 71.377 123.606H94.9443C95.7073 123.606 96.4029 123.539 97.0312 123.404C97.7045 123.27 98.266 122.888 98.7148 122.26C99.1637 121.586 99.3886 120.554 99.3887 119.162C99.3887 117.726 99.1637 116.693 98.7148 116.064C98.3108 115.436 97.772 115.055 97.0986 114.92C96.4254 114.785 95.7073 114.718 94.9443 114.718H76.4941V81.6562C76.4941 80.7585 76.4041 79.9281 76.2246 79.165C76.0899 78.4019 75.6636 77.7731 74.9453 77.2793C74.2719 76.7856 73.0825 76.5391 71.377 76.5391Z" fill="#01AC49"/>
</svg>
