<?xml version="1.0" encoding="utf-8"?>
<!-- Generator: Adobe Illustrator 24.3.0, SVG Export Plug-In . SVG Version: 6.00 Build 0)  -->
<svg version="1.1" id="Capa_1" xmlns="http://www.w3.org/2000/svg" xmlns:xlink="http://www.w3.org/1999/xlink" x="0px" y="0px"
	 viewBox="0 0 24 24" enable-background="new 0 0 24 24" xml:space="preserve">
<g>
	<g>
		<path fill="#FFFFFF" d="M21,13.7V7c0-0.27-0.11-0.52-0.29-0.71l-5-5C15.52,1.11,15.27,1,15,1H6C4.35,1,3,2.35,3,4v16
			c0,1.65,1.35,3,3,3h12c1.65,0,3-1.35,3-3v-0.35h-2V20c0,0.55-0.45,1-1,1H6c-0.55,0-1-0.45-1-1V4c0-0.55,0.45-1,1-1h7v3
			c0,1.65,1.35,3,3,3h3v4.7H21z M16,7c-0.55,0-1-0.45-1-1V3.41L18.59,7H16z"/>
	</g>
</g>
<g>
	<path fill="#33CC33" d="M12.83,18.54c-0.07-0.06-0.1-0.15-0.1-0.28c0-0.13,0.04-0.23,0.1-0.29c0.07-0.06,0.18-0.09,0.32-0.09
		c0.15,0,0.25,0.03,0.33,0.09c0.07,0.06,0.1,0.16,0.1,0.29c0,0.13-0.04,0.22-0.1,0.28c-0.07,0.06-0.18,0.09-0.33,0.09
		C13,18.63,12.89,18.6,12.83,18.54z"/>
	<path fill="#33CC33" d="M13.72,17.33v-1.34c0-0.44,0.09-0.76,0.28-0.98c0.18-0.22,0.46-0.33,0.84-0.33c0.75,0,1.12,0.42,1.12,1.26
		v0.3h-0.82v-0.38c0-0.15-0.02-0.26-0.06-0.34s-0.12-0.11-0.23-0.11c-0.2,0-0.3,0.15-0.3,0.45v1.58c0,0.3,0.1,0.46,0.29,0.46
		c0.1,0,0.18-0.04,0.22-0.11s0.07-0.18,0.07-0.34v-0.44h0.82v0.35c0,0.42-0.09,0.73-0.26,0.94c-0.18,0.21-0.46,0.32-0.86,0.32
		C14.1,18.63,13.72,18.2,13.72,17.33z"/>
	<path fill="#33CC33" d="M16.46,18.36c-0.19-0.18-0.29-0.45-0.29-0.82v-0.22h0.81v0.22c0,0.26,0.1,0.38,0.31,0.38
		c0.09,0,0.15-0.02,0.2-0.07c0.04-0.05,0.07-0.12,0.07-0.2V17.4c0-0.09-0.02-0.16-0.05-0.21c-0.03-0.05-0.08-0.1-0.15-0.13
		c-0.07-0.04-0.19-0.1-0.38-0.18c-0.19-0.09-0.34-0.18-0.45-0.27s-0.19-0.19-0.24-0.31c-0.05-0.12-0.08-0.27-0.08-0.44v-0.22
		c0-0.3,0.1-0.53,0.29-0.7c0.2-0.17,0.46-0.25,0.78-0.25c0.35,0,0.61,0.09,0.8,0.28c0.19,0.19,0.28,0.45,0.27,0.79v0.2h-0.78v-0.2
		c0-0.25-0.1-0.37-0.3-0.37c-0.08,0-0.14,0.02-0.19,0.07c-0.04,0.04-0.06,0.1-0.06,0.17v0.22c0,0.1,0.04,0.17,0.1,0.23
		s0.16,0.11,0.3,0.17c0.24,0.1,0.43,0.2,0.56,0.3c0.14,0.1,0.24,0.22,0.3,0.36c0.06,0.13,0.09,0.3,0.09,0.5v0.25
		c0,0.3-0.1,0.54-0.3,0.71s-0.47,0.26-0.8,0.26C16.93,18.63,16.66,18.54,16.46,18.36z"/>
	<path fill="#33CC33" d="M19.19,18.56l-0.74-3.8h0.84l0.41,2.66l0.03,0.34h0.01l0.03-0.34l0.41-2.66h0.84l-0.74,3.8H19.19z"/>
</g>
</svg>
