<?xml version="1.0" encoding="utf-8"?>
<!-- Generator: Adobe Illustrator 24.3.0, SVG Export Plug-In . SVG Version: 6.00 Build 0)  -->
<svg version="1.1" id="Capa_1" xmlns="http://www.w3.org/2000/svg" xmlns:xlink="http://www.w3.org/1999/xlink" x="0px" y="0px"
	 viewBox="0 0 24 24" enable-background="new 0 0 24 24" xml:space="preserve">
<g>
	<g>
		<path fill="#FFFFFF" d="M21,13.7V7c0-0.27-0.11-0.52-0.29-0.71l-5-5C15.52,1.11,15.27,1,15,1H6C4.35,1,3,2.35,3,4v16
			c0,1.65,1.35,3,3,3h12c1.65,0,3-1.35,3-3v-0.35h-2V20c0,0.55-0.45,1-1,1H6c-0.55,0-1-0.45-1-1V4c0-0.55,0.45-1,1-1h7v3
			c0,1.65,1.35,3,3,3h3v4.7H21z M16,7c-0.55,0-1-0.45-1-1V3.41L18.59,7H16z"/>
	</g>
</g>
<g>
	<path fill="#007AFF" d="M12.57,18.54c-0.07-0.06-0.1-0.15-0.1-0.28c0-0.13,0.04-0.23,0.1-0.29c0.07-0.06,0.18-0.09,0.32-0.09
		c0.15,0,0.25,0.03,0.33,0.09c0.07,0.06,0.1,0.16,0.1,0.29c0,0.13-0.04,0.22-0.1,0.28c-0.07,0.06-0.18,0.09-0.33,0.09
		C12.75,18.63,12.64,18.6,12.57,18.54z"/>
	<path fill="#007AFF" d="M13.62,18.56v-3.8h1.1c0.39,0,0.67,0.12,0.85,0.35c0.18,0.23,0.27,0.59,0.27,1.07v0.96
		c0,0.48-0.09,0.84-0.27,1.07s-0.46,0.35-0.84,0.35H13.62z M14.62,17.85c0.13,0,0.23-0.04,0.29-0.13c0.06-0.08,0.09-0.23,0.09-0.45
		v-1.25c0-0.21-0.03-0.35-0.09-0.44c-0.06-0.08-0.16-0.13-0.29-0.13h-0.18v2.39H14.62z"/>
	<path fill="#007AFF" d="M16.14,17.33v-1.34c0-0.87,0.37-1.3,1.12-1.3c0.75,0,1.12,0.43,1.12,1.3v1.34c0,0.87-0.37,1.3-1.12,1.3
		C16.51,18.63,16.14,18.2,16.14,17.33z M17.48,17.8c0.05-0.07,0.07-0.19,0.07-0.34v-1.58c0-0.16-0.02-0.27-0.07-0.35
		c-0.05-0.07-0.12-0.11-0.22-0.11c-0.2,0-0.3,0.15-0.3,0.46v1.58c0,0.3,0.1,0.46,0.3,0.46C17.36,17.91,17.43,17.87,17.48,17.8z"/>
	<path fill="#007AFF" d="M18.68,17.33v-1.34c0-0.44,0.09-0.76,0.28-0.98c0.18-0.22,0.46-0.33,0.84-0.33c0.75,0,1.12,0.42,1.12,1.26
		v0.3h-0.82v-0.38c0-0.15-0.02-0.26-0.06-0.34c-0.04-0.08-0.12-0.11-0.23-0.11c-0.2,0-0.3,0.15-0.3,0.45v1.58
		c0,0.3,0.1,0.46,0.29,0.46c0.1,0,0.18-0.04,0.23-0.11s0.07-0.18,0.07-0.34v-0.44h0.82v0.35c0,0.42-0.09,0.73-0.26,0.94
		c-0.17,0.21-0.46,0.32-0.86,0.32C19.06,18.63,18.68,18.2,18.68,17.33z"/>
</g>
</svg>
