<?xml version="1.0" encoding="utf-8"?>
<!-- Generator: Adobe Illustrator 24.3.0, SVG Export Plug-In . SVG Version: 6.00 Build 0)  -->
<svg version="1.1" id="Capa_1" xmlns="http://www.w3.org/2000/svg" xmlns:xlink="http://www.w3.org/1999/xlink" x="0px" y="0px"
	 viewBox="0 0 24 24" enable-background="new 0 0 24 24" xml:space="preserve">
<g>
	<g>
		<path d="M21,13.7V7c0-0.27-0.11-0.52-0.29-0.71l-5-5C15.52,1.11,15.27,1,15,1H6C4.35,1,3,2.35,3,4v16c0,1.65,1.35,3,3,3h12
			c1.65,0,3-1.35,3-3v-0.35h-2V20c0,0.55-0.45,1-1,1H6c-0.55,0-1-0.45-1-1V4c0-0.55,0.45-1,1-1h7v3c0,1.65,1.35,3,3,3h3v4.7H21z
			 M16,7c-0.55,0-1-0.45-1-1V3.41L18.59,7H16z"/>
	</g>
</g>
<g>
	<path fill="#007AFF" d="M10.45,17.88c-0.14,0-0.25,0.03-0.32,0.09c-0.07,0.06-0.1,0.16-0.1,0.29c0,0.13,0.03,0.22,0.1,0.28
		c0.07,0.06,0.18,0.09,0.32,0.09c0.15,0,0.25-0.03,0.32-0.09s0.1-0.15,0.1-0.28c0-0.13-0.04-0.23-0.1-0.29
		C10.71,17.91,10.6,17.88,10.45,17.88z"/>
	<path fill="#007AFF" d="M12.27,14.76h-1.1v3.8h1.1c0.38,0,0.66-0.12,0.84-0.35c0.18-0.23,0.27-0.59,0.27-1.07v-0.96
		c0-0.48-0.09-0.84-0.27-1.07C12.94,14.87,12.66,14.76,12.27,14.76z M12.56,17.28c0,0.21-0.03,0.36-0.09,0.45s-0.16,0.13-0.29,0.13
		H12v-2.39h0.18c0.13,0,0.23,0.04,0.29,0.13s0.09,0.23,0.09,0.44V17.28z"/>
	<path fill="#007AFF" d="M14.81,14.69c-0.75,0-1.12,0.43-1.12,1.3v1.34c0,0.87,0.37,1.3,1.12,1.3c0.75,0,1.12-0.43,1.12-1.3v-1.34
		C15.93,15.12,15.56,14.69,14.81,14.69z M15.11,17.45c0,0.16-0.02,0.27-0.07,0.34c-0.05,0.07-0.12,0.11-0.22,0.11
		c-0.2,0-0.3-0.15-0.3-0.46v-1.58c0-0.3,0.1-0.46,0.3-0.46c0.1,0,0.17,0.04,0.22,0.11c0.05,0.07,0.07,0.19,0.07,0.35V17.45z"/>
	<path fill="#007AFF" d="M17.35,14.69c-0.37,0-0.65,0.11-0.84,0.33c-0.18,0.22-0.28,0.54-0.28,0.98v1.34c0,0.87,0.37,1.3,1.11,1.3
		c0.4,0,0.68-0.11,0.86-0.32c0.18-0.21,0.26-0.53,0.26-0.94v-0.35h-0.82v0.44c0,0.15-0.02,0.27-0.07,0.34s-0.12,0.11-0.23,0.11
		c-0.19,0-0.29-0.15-0.29-0.46v-1.58c0-0.3,0.1-0.45,0.3-0.45c0.11,0,0.18,0.04,0.23,0.11c0.04,0.08,0.06,0.19,0.06,0.34v0.38h0.82
		v-0.3C18.47,15.11,18.1,14.69,17.35,14.69z"/>
	<polygon fill="#007AFF" points="20.39,16.59 20.95,14.76 20.08,14.76 19.81,15.91 19.75,16.2 19.74,16.2 19.69,15.91 19.41,14.76 
		18.54,14.76 19.1,16.59 18.48,18.56 19.36,18.56 19.68,17.29 19.74,16.99 19.75,16.99 19.81,17.29 20.14,18.56 21.01,18.56 	"/>
</g>
</svg>
