<?xml version="1.0" encoding="utf-8"?>
<!-- Generator: Adobe Illustrator 24.3.0, SVG Export Plug-In . SVG Version: 6.00 Build 0)  -->
<svg version="1.1" id="Capa_1" xmlns="http://www.w3.org/2000/svg" xmlns:xlink="http://www.w3.org/1999/xlink" x="0px" y="0px"
	 viewBox="0 0 24 24" enable-background="new 0 0 24 24" xml:space="preserve">
<g>
	<g>
		<path fill="#FFFFFF" d="M21,13.7V7c0-0.27-0.11-0.52-0.29-0.71l-5-5C15.52,1.11,15.27,1,15,1H6C4.35,1,3,2.35,3,4v16
			c0,1.65,1.35,3,3,3h12c1.65,0,3-1.35,3-3v-0.35h-2V20c0,0.55-0.45,1-1,1H6c-0.55,0-1-0.45-1-1V4c0-0.55,0.45-1,1-1h7v3
			c0,1.65,1.35,3,3,3h3v4.7H21z M16,7c-0.55,0-1-0.45-1-1V3.41L18.59,7H16z"/>
	</g>
</g>
<g>
	<path fill="#007AFF" d="M10.13,18.54c-0.07-0.06-0.1-0.15-0.1-0.28c0-0.13,0.03-0.23,0.1-0.29c0.07-0.06,0.18-0.09,0.32-0.09
		c0.15,0,0.25,0.03,0.32,0.09c0.07,0.06,0.11,0.16,0.11,0.29c0,0.13-0.04,0.22-0.11,0.28c-0.07,0.06-0.18,0.09-0.32,0.09
		S10.2,18.6,10.13,18.54z"/>
	<path fill="#007AFF" d="M11.17,18.56v-3.8h1.1c0.39,0,0.67,0.12,0.85,0.35c0.18,0.23,0.27,0.59,0.27,1.07v0.96
		c0,0.48-0.09,0.84-0.27,1.07c-0.18,0.23-0.46,0.35-0.84,0.35H11.17z M12.18,17.85c0.13,0,0.23-0.04,0.29-0.13
		c0.06-0.08,0.09-0.23,0.09-0.45v-1.25c0-0.21-0.03-0.35-0.09-0.44c-0.06-0.08-0.16-0.13-0.29-0.13H12v2.39H12.18z"/>
	<path fill="#007AFF" d="M13.69,17.33v-1.34c0-0.87,0.37-1.3,1.12-1.3s1.12,0.43,1.12,1.3v1.34c0,0.87-0.37,1.3-1.12,1.3
		S13.69,18.2,13.69,17.33z M15.04,17.79c0.05-0.07,0.07-0.19,0.07-0.34v-1.58c0-0.16-0.03-0.27-0.07-0.35
		c-0.05-0.07-0.12-0.11-0.22-0.11c-0.2,0-0.3,0.15-0.3,0.46v1.58c0,0.3,0.1,0.46,0.3,0.46C14.91,17.91,14.99,17.87,15.04,17.79z"/>
	<path fill="#007AFF" d="M16.24,17.33v-1.34c0-0.44,0.09-0.76,0.28-0.98c0.18-0.22,0.46-0.33,0.84-0.33c0.75,0,1.12,0.42,1.12,1.26
		v0.3h-0.82v-0.38c0-0.15-0.02-0.26-0.06-0.34s-0.12-0.11-0.23-0.11c-0.2,0-0.3,0.15-0.3,0.45v1.58c0,0.3,0.1,0.46,0.29,0.46
		c0.1,0,0.18-0.04,0.22-0.11s0.07-0.18,0.07-0.34v-0.44h0.82v0.35c0,0.42-0.09,0.73-0.26,0.94c-0.18,0.21-0.46,0.32-0.86,0.32
		C16.61,18.63,16.24,18.2,16.24,17.33z"/>
	<path fill="#007AFF" d="M19.36,18.56h-0.87l0.62-1.97l-0.56-1.84h0.87l0.27,1.15l0.06,0.3h0.01l0.06-0.3l0.27-1.15h0.88l-0.57,1.83
		l0.62,1.97h-0.87l-0.33-1.27l-0.06-0.3h-0.01l-0.07,0.3L19.36,18.56z"/>
</g>
</svg>
