<?xml version="1.0" encoding="utf-8"?>
<!-- Generator: Adobe Illustrator 24.3.0, SVG Export Plug-In . SVG Version: 6.00 Build 0)  -->
<svg version="1.1" id="Capa_1" xmlns="http://www.w3.org/2000/svg" xmlns:xlink="http://www.w3.org/1999/xlink" x="0px" y="0px"
	 viewBox="0 0 24 24" enable-background="new 0 0 24 24" xml:space="preserve">
<g>
	<g>
		<path fill="#FFFFFF" d="M21,13.7V7c0-0.27-0.11-0.52-0.29-0.71l-5-5C15.52,1.11,15.27,1,15,1H6C4.35,1,3,2.35,3,4v16
			c0,1.65,1.35,3,3,3h12c1.65,0,3-1.35,3-3v-0.35h-2V20c0,0.55-0.45,1-1,1H6c-0.55,0-1-0.45-1-1V4c0-0.55,0.45-1,1-1h7v3
			c0,1.65,1.35,3,3,3h3v4.7H21z M16,7c-0.55,0-1-0.45-1-1V3.41L18.59,7H16z"/>
	</g>
</g>
<g>
	<path d="M12.77,18.54c-0.07-0.06-0.1-0.15-0.1-0.28c0-0.13,0.03-0.23,0.1-0.29c0.07-0.06,0.18-0.09,0.32-0.09
		c0.15,0,0.25,0.03,0.32,0.09c0.07,0.06,0.11,0.16,0.11,0.29c0,0.13-0.04,0.22-0.11,0.28c-0.07,0.06-0.18,0.09-0.32,0.09
		S12.84,18.6,12.77,18.54z"/>
	<path d="M14.73,14.76h0.82v2.77c0,0.38-0.09,0.67-0.26,0.84c-0.17,0.17-0.45,0.26-0.83,0.26c-0.21,0-0.44-0.02-0.66-0.07l0.03-0.72
		c0.2,0.04,0.36,0.06,0.5,0.06c0.15,0,0.25-0.03,0.32-0.1c0.07-0.07,0.1-0.17,0.1-0.33v-2h-0.81v-0.71L14.73,14.76L14.73,14.76z"/>
	<path d="M16.11,18.56v-3.8h1.08c0.35,0,0.62,0.1,0.82,0.29s0.29,0.49,0.29,0.87v0.42c0,0.4-0.09,0.7-0.27,0.9s-0.43,0.3-0.76,0.3
		h-0.33v1.02H16.11z M17.11,16.81c0.12,0,0.21-0.03,0.27-0.1s0.09-0.19,0.09-0.37v-0.4c0-0.17-0.03-0.29-0.09-0.35
		c-0.06-0.07-0.15-0.1-0.26-0.1h-0.19v1.32H17.11z"/>
	<path d="M18.96,18.31c-0.19-0.21-0.28-0.54-0.28-0.98v-1.34c0-0.44,0.09-0.76,0.28-0.98c0.19-0.22,0.47-0.33,0.84-0.33
		c0.38,0,0.67,0.11,0.84,0.31c0.18,0.21,0.26,0.52,0.26,0.93v0.22h-0.81v-0.33c0-0.13-0.02-0.23-0.07-0.3s-0.12-0.11-0.22-0.11
		c-0.09,0-0.17,0.04-0.22,0.11c-0.05,0.07-0.08,0.18-0.08,0.32v1.64c0,0.31,0.1,0.47,0.31,0.47c0.12,0,0.2-0.04,0.26-0.11
		c0.06-0.07,0.08-0.18,0.08-0.34v-0.27h-0.32v-0.64h1.07v0.71c0,0.46-0.09,0.8-0.26,1.02c-0.17,0.22-0.46,0.33-0.85,0.33
		C19.43,18.63,19.15,18.52,18.96,18.31z"/>
</g>
</svg>
