<?xml version="1.0" encoding="utf-8"?>
<!-- Generator: Adobe Illustrator 24.3.0, SVG Export Plug-In . SVG Version: 6.00 Build 0)  -->
<svg version="1.1" id="Capa_1" xmlns="http://www.w3.org/2000/svg" xmlns:xlink="http://www.w3.org/1999/xlink" x="0px" y="0px"
	 viewBox="0 0 24 24" enable-background="new 0 0 24 24" xml:space="preserve">
<g>
	<g>
		<path d="M21,13.7V7c0-0.27-0.11-0.52-0.29-0.71l-5-5C15.52,1.11,15.27,1,15,1H6C4.35,1,3,2.35,3,4v16c0,1.65,1.35,3,3,3h12
			c1.65,0,3-1.35,3-3v-0.35h-2V20c0,0.55-0.45,1-1,1H6c-0.55,0-1-0.45-1-1V4c0-0.55,0.45-1,1-1h7v3c0,1.65,1.35,3,3,3h3v4.7H21z
			 M16,7c-0.55,0-1-0.45-1-1V3.41L18.59,7H16z"/>
	</g>
</g>
<g>
	<path fill="#E01919" d="M13.15,18.54c-0.07-0.06-0.1-0.15-0.1-0.28c0-0.13,0.04-0.23,0.1-0.29c0.07-0.06,0.18-0.09,0.32-0.09
		c0.15,0,0.25,0.03,0.33,0.09c0.07,0.06,0.1,0.16,0.1,0.29c0,0.13-0.04,0.22-0.1,0.28c-0.07,0.06-0.18,0.09-0.33,0.09
		S13.22,18.6,13.15,18.54z"/>
	<path fill="#E01919" d="M14.2,18.56v-3.8h1.08c0.35,0,0.62,0.1,0.82,0.29s0.29,0.49,0.29,0.87v0.42c0,0.4-0.09,0.7-0.27,0.9
		s-0.43,0.3-0.76,0.3h-0.33v1.02H14.2z M15.2,16.81c0.12,0,0.21-0.03,0.27-0.1s0.09-0.19,0.09-0.37v-0.4c0-0.17-0.03-0.29-0.09-0.35
		c-0.06-0.07-0.14-0.1-0.26-0.1h-0.19v1.32H15.2z"/>
	<path fill="#E01919" d="M16.64,18.56v-3.8h1.1c0.39,0,0.67,0.12,0.85,0.35c0.18,0.23,0.27,0.59,0.27,1.07v0.96
		c0,0.48-0.09,0.84-0.27,1.07c-0.18,0.23-0.46,0.35-0.84,0.35H16.64z M17.65,17.85c0.13,0,0.23-0.04,0.29-0.13
		c0.06-0.08,0.09-0.23,0.09-0.45v-1.25c0-0.21-0.03-0.35-0.09-0.44c-0.06-0.08-0.16-0.13-0.29-0.13h-0.18v2.39H17.65z"/>
	<path fill="#E01919" d="M20.04,18.56h-0.82v-3.8h1.77v0.73h-0.95v0.86h0.83v0.73h-0.83V18.56z"/>
</g>
</svg>
