<?xml version="1.0" encoding="utf-8"?>
<!-- Generator: Adobe Illustrator 24.3.0, SVG Export Plug-In . SVG Version: 6.00 Build 0)  -->
<svg version="1.1" id="Capa_1" xmlns="http://www.w3.org/2000/svg" xmlns:xlink="http://www.w3.org/1999/xlink" x="0px" y="0px"
	 viewBox="0 0 24 24" enable-background="new 0 0 24 24" xml:space="preserve">
<g>
	<g>
		<path d="M21,13.7V7c0-0.27-0.11-0.52-0.29-0.71l-5-5C15.52,1.11,15.27,1,15,1H6C4.35,1,3,2.35,3,4v16c0,1.65,1.35,3,3,3h12
			c1.65,0,3-1.35,3-3v-0.35h-2V20c0,0.55-0.45,1-1,1H6c-0.55,0-1-0.45-1-1V4c0-0.55,0.45-1,1-1h7v3c0,1.65,1.35,3,3,3h3v4.7H21z
			 M16,7c-0.55,0-1-0.45-1-1V3.41L18.59,7H16z"/>
	</g>
</g>
<g>
	<path d="M9.2,18.54c-0.07-0.06-0.1-0.15-0.1-0.28c0-0.13,0.03-0.23,0.1-0.29c0.07-0.06,0.18-0.09,0.32-0.09
		c0.15,0,0.25,0.03,0.32,0.09c0.07,0.06,0.1,0.16,0.1,0.29c0,0.13-0.04,0.22-0.1,0.28s-0.18,0.09-0.32,0.09
		C9.38,18.63,9.27,18.6,9.2,18.54z"/>
	<path d="M11.71,18.56h-1.06l-0.59-3.8h0.83l0.29,2.66l0.03,0.32h0.01l0.03-0.32l0.29-2.66h0.96l0.29,2.66l0.03,0.32h0.01l0.03-0.32
		l0.28-2.66h0.84l-0.59,3.8H12.3l-0.27-2.53l-0.02-0.3H12l-0.02,0.3L11.71,18.56z"/>
	<path d="M16.01,18.56h-1.83v-3.8h1.79v0.73h-0.97v0.8h0.86v0.7h-0.86v0.85h1V18.56z"/>
	<path d="M16.33,18.56v-3.8h1.02c0.32,0,0.56,0.07,0.74,0.21c0.18,0.14,0.27,0.34,0.27,0.61v0.24c0,0.35-0.14,0.59-0.42,0.72v0
		c0.18,0.04,0.32,0.13,0.41,0.25c0.09,0.13,0.14,0.29,0.14,0.49v0.32c0,0.3-0.09,0.54-0.26,0.71s-0.43,0.25-0.78,0.25H16.33z
		 M17.3,16.29c0.11,0,0.19-0.03,0.24-0.08c0.05-0.05,0.07-0.13,0.07-0.25v-0.23c0-0.1-0.02-0.18-0.07-0.23s-0.13-0.07-0.24-0.07
		h-0.18v0.86H17.3z M17.32,17.89c0.12,0,0.21-0.03,0.26-0.08c0.05-0.06,0.08-0.14,0.08-0.26v-0.28c0-0.12-0.03-0.21-0.08-0.26
		c-0.05-0.05-0.14-0.08-0.27-0.08h-0.19v0.97H17.32z"/>
	<path d="M18.8,18.56v-3.8h1.08c0.35,0,0.62,0.1,0.82,0.29s0.29,0.49,0.29,0.87v0.42c0,0.4-0.09,0.7-0.27,0.9
		c-0.18,0.2-0.43,0.3-0.76,0.3h-0.33v1.02H18.8z M19.8,16.81c0.12,0,0.21-0.03,0.27-0.1c0.06-0.07,0.09-0.19,0.09-0.37v-0.4
		c0-0.17-0.03-0.29-0.09-0.35c-0.06-0.07-0.15-0.1-0.26-0.1h-0.19v1.32H19.8z"/>
</g>
</svg>
