<?xml version="1.0" encoding="utf-8"?>
<!-- Generator: Adobe Illustrator 24.3.0, SVG Export Plug-In . SVG Version: 6.00 Build 0)  -->
<svg version="1.1" id="Capa_1" xmlns="http://www.w3.org/2000/svg" xmlns:xlink="http://www.w3.org/1999/xlink" x="0px" y="0px"
	 viewBox="0 0 24 24" enable-background="new 0 0 24 24" xml:space="preserve">
<g>
	<g>
		<path fill="#FFFFFF" d="M21,13.7V7c0-0.27-0.11-0.52-0.29-0.71l-5-5C15.52,1.11,15.27,1,15,1H6C4.35,1,3,2.35,3,4v16
			c0,1.65,1.35,3,3,3h12c1.65,0,3-1.35,3-3v-0.35h-2V20c0,0.55-0.45,1-1,1H6c-0.55,0-1-0.45-1-1V4c0-0.55,0.45-1,1-1h7v3
			c0,1.65,1.35,3,3,3h3v4.7H21z M16,7c-0.55,0-1-0.45-1-1V3.41L18.59,7H16z"/>
	</g>
</g>
<g>
	<path fill="#33CC33" d="M10.65,18.54c-0.07-0.06-0.1-0.15-0.1-0.28c0-0.13,0.03-0.23,0.1-0.29c0.07-0.06,0.18-0.09,0.32-0.09
		c0.15,0,0.25,0.03,0.32,0.09c0.07,0.06,0.11,0.16,0.11,0.29c0,0.13-0.04,0.22-0.11,0.28c-0.07,0.06-0.18,0.09-0.32,0.09
		S10.72,18.6,10.65,18.54z"/>
	<path fill="#33CC33" d="M12.39,18.56h-0.87l0.62-1.97l-0.56-1.84h0.87l0.27,1.15l0.06,0.3h0.01l0.06-0.3l0.27-1.15h0.87l-0.57,1.83
		l0.62,1.97h-0.87l-0.33-1.27l-0.06-0.3h-0.01l-0.07,0.3L12.39,18.56z"/>
	<path fill="#33CC33" d="M16,18.56h-1.73v-3.8h0.82v3.05H16V18.56z"/>
	<path fill="#33CC33" d="M16.42,18.36c-0.19-0.18-0.29-0.45-0.29-0.82v-0.22h0.81v0.22c0,0.26,0.1,0.38,0.31,0.38
		c0.09,0,0.16-0.02,0.2-0.07c0.04-0.05,0.07-0.12,0.07-0.2V17.4c0-0.09-0.02-0.16-0.05-0.21s-0.08-0.1-0.15-0.13
		c-0.07-0.04-0.19-0.1-0.38-0.18c-0.19-0.09-0.34-0.18-0.45-0.27c-0.11-0.09-0.19-0.19-0.24-0.31s-0.08-0.27-0.08-0.44v-0.22
		c0-0.3,0.1-0.53,0.29-0.7c0.2-0.17,0.46-0.25,0.78-0.25c0.35,0,0.61,0.09,0.8,0.28c0.19,0.19,0.28,0.45,0.27,0.79v0.2h-0.78v-0.2
		c0-0.25-0.1-0.37-0.3-0.37c-0.08,0-0.14,0.02-0.19,0.07c-0.04,0.04-0.06,0.1-0.06,0.17v0.22c0,0.1,0.04,0.17,0.1,0.23
		c0.06,0.05,0.16,0.11,0.3,0.17c0.24,0.1,0.43,0.2,0.57,0.3c0.14,0.1,0.24,0.22,0.3,0.36c0.06,0.13,0.09,0.3,0.09,0.5v0.25
		c0,0.3-0.1,0.54-0.3,0.71s-0.47,0.26-0.8,0.26C16.89,18.63,16.62,18.54,16.42,18.36z"/>
	<path fill="#33CC33" d="M19.36,18.56h-0.87l0.62-1.97l-0.56-1.84h0.87l0.27,1.15l0.06,0.3h0.01l0.06-0.3l0.27-1.15h0.88l-0.57,1.83
		l0.62,1.97h-0.87l-0.33-1.27l-0.06-0.3h-0.01l-0.07,0.3L19.36,18.56z"/>
</g>
</svg>
