<svg width="200" height="200" viewBox="0 0 200 200" fill="none" xmlns="http://www.w3.org/2000/svg">
<path d="M176 0C189.255 0 200 10.7452 200 24V176C200 189.255 189.255 200 176 200H24C10.7452 200 0 189.255 0 176V24C0 10.7452 10.7452 0 24 0H176ZM77.623 145.153C74.7431 145.191 72.0715 145.722 69.6084 146.745C67.1454 147.73 65.0044 149.132 63.1855 150.951C61.3666 152.732 59.945 154.836 58.9219 157.261C57.8987 159.648 57.3877 162.245 57.3877 165.049C57.3877 168.004 57.8801 170.751 58.8652 173.29C59.8884 175.829 61.2902 178.047 63.0713 179.941C64.8902 181.836 66.9935 183.314 69.3809 184.375C71.7681 185.436 74.3639 185.967 77.168 185.967C78.6079 185.967 79.9724 185.871 81.2607 185.682C82.5492 185.492 83.7626 185.247 84.8994 184.943C86.074 184.602 87.116 184.185 88.0254 183.692C89.4653 182.972 90.6019 182.139 91.4355 181.191C92.2692 180.206 92.6865 179.259 92.6865 178.35V165.958C92.6865 165.238 92.6105 164.575 92.459 163.969C92.3074 163.325 91.9661 162.794 91.4355 162.377C90.9051 161.96 90.0149 161.732 88.7646 161.694H78.0215C77.4152 161.694 76.8272 161.752 76.2588 161.865C75.7283 161.979 75.2922 162.302 74.9512 162.832C74.6103 163.325 74.4404 164.177 74.4404 165.39C74.4404 166.602 74.5915 167.473 74.8945 168.004C75.2356 168.534 75.6529 168.857 76.1455 168.971C76.6759 169.084 77.2632 169.141 77.9072 169.141H83.9893V176.076C83.3831 176.341 82.701 176.568 81.9434 176.758C81.2235 176.909 80.4655 177.023 79.6699 177.099C78.912 177.174 78.1534 177.213 77.3955 177.213C75.2735 177.213 73.3407 176.682 71.5977 175.621C69.8925 174.56 68.5477 173.138 67.5625 171.357C66.5773 169.539 66.0652 167.492 66.0273 165.219C66.0653 162.983 66.5577 161.013 67.5049 159.308C68.4901 157.602 69.8358 156.275 71.541 155.328C73.2462 154.343 75.1789 153.851 77.3389 153.851C78.324 153.851 79.2713 153.964 80.1807 154.191C81.1279 154.381 81.9617 154.609 82.6816 154.874C83.4014 155.139 83.9324 155.385 84.2734 155.612C84.9933 156.067 85.5617 156.39 85.9785 156.579C86.3952 156.769 86.7555 156.863 87.0586 156.863C87.627 156.863 88.1962 156.674 88.7646 156.295C89.3709 155.916 89.9768 155.29 90.583 154.419C90.924 153.926 91.1894 153.453 91.3789 152.998C91.5684 152.505 91.6443 152.069 91.6064 151.69C91.6064 150.933 91.3034 150.288 90.6973 149.758C90.1288 149.189 89.4649 148.659 88.707 148.166C87.7597 147.522 86.6418 146.972 85.3535 146.518C84.0653 146.063 82.739 145.722 81.375 145.495C80.0487 145.268 78.7978 145.153 77.623 145.153ZM102.227 145.779C100.825 145.779 99.8201 145.987 99.2139 146.404C98.6077 146.821 98.2287 147.352 98.0771 147.996C97.9635 148.64 97.9072 149.341 97.9072 150.099V181.191C97.9072 181.911 97.9635 182.613 98.0771 183.295C98.2287 183.977 98.6077 184.527 99.2139 184.943C99.8202 185.322 100.806 185.512 102.17 185.512C103.61 185.512 104.614 185.322 105.183 184.943C105.789 184.527 106.168 183.996 106.319 183.352C106.471 182.669 106.547 181.968 106.547 181.248V150.156C106.547 149.361 106.471 148.64 106.319 147.996C106.206 147.352 105.846 146.821 105.239 146.404C104.671 145.988 103.666 145.779 102.227 145.779ZM116.177 145.779C114.51 145.779 113.354 146.082 112.71 146.688C112.066 147.295 111.743 148.431 111.743 150.099V181.191C111.743 181.911 111.8 182.613 111.914 183.295C112.066 183.977 112.445 184.527 113.051 184.943C113.657 185.322 114.643 185.512 116.007 185.512C117.447 185.512 118.451 185.322 119.02 184.943C119.626 184.527 120.005 183.996 120.156 183.352C120.308 182.669 120.384 181.968 120.384 181.248V169.255H131.979C132.775 169.255 133.457 169.198 134.025 169.084C134.632 168.97 135.105 168.667 135.446 168.175C135.787 167.644 135.958 166.772 135.958 165.56C135.958 164.309 135.787 163.419 135.446 162.889C135.105 162.358 134.632 162.036 134.025 161.922C133.457 161.808 132.794 161.752 132.036 161.752H120.384V154.419H137.55C138.308 154.419 139.009 154.362 139.653 154.248C140.335 154.096 140.885 153.718 141.302 153.111C141.718 152.505 141.927 151.52 141.927 150.156C141.927 148.716 141.719 147.692 141.302 147.086C140.923 146.48 140.411 146.12 139.767 146.006C139.122 145.854 138.421 145.779 137.663 145.779H116.177ZM121.59 70.4248C119.803 68.1796 115.952 68.1797 114.165 70.4248L87.9941 103.304C83.8673 97.2797 79.9222 91.5211 74.6621 83.8428C72.4704 80.6447 66.5394 80.6447 64.3477 83.8428L40.6855 118.383C38.6289 121.385 41.446 125 45.8428 125H156.492C160.111 125 162.25 121.51 160.205 118.94L121.59 70.4248ZM60.2285 27C52.2064 27.0002 45.7031 33.5003 45.7031 41.5186C45.7031 49.5368 52.2064 56.0369 60.2285 56.0371C68.2508 56.0371 74.7549 49.5369 74.7549 41.5186C74.7549 33.5002 68.2508 27 60.2285 27Z" fill="#FF3093"/>
</svg>
