<svg width="200" height="200" viewBox="0 0 200 200" fill="none" xmlns="http://www.w3.org/2000/svg">
<path d="M176 0C189.255 0 200 10.7452 200 24V176C200 189.255 189.255 200 176 200H24C10.7452 200 0 189.255 0 176V24C0 10.7452 10.7452 0 24 0H176ZM124.181 145.381C121.49 145.381 118.97 145.912 116.62 146.973C114.271 148.034 112.206 149.512 110.425 151.406C108.682 153.301 107.299 155.499 106.275 158C105.29 160.463 104.798 163.116 104.798 165.958C104.798 168.762 105.309 171.377 106.332 173.802C107.393 176.227 108.815 178.369 110.596 180.226C112.415 182.044 114.518 183.484 116.905 184.545C119.33 185.568 121.907 186.08 124.636 186.08C127.288 186.08 129.771 185.549 132.082 184.488C134.431 183.427 136.496 181.968 138.277 180.111C140.058 178.217 141.442 176.057 142.427 173.632C143.45 171.169 143.962 168.553 143.962 165.787C143.962 162.907 143.431 160.236 142.37 157.772C141.347 155.31 139.945 153.15 138.164 151.293C136.383 149.436 134.28 147.996 131.854 146.973C129.467 145.912 126.909 145.381 124.181 145.381ZM89.1895 145.381C87.4844 145.381 85.6846 145.646 83.79 146.177C81.8953 146.669 80.0574 147.447 78.2764 148.508C76.4953 149.531 74.8843 150.838 73.4443 152.43C72.0045 154.021 70.8491 155.897 69.9775 158.057C69.1439 160.179 68.7266 162.605 68.7266 165.333C68.7266 168.175 69.1439 170.714 69.9775 172.949C70.8491 175.147 72.0044 177.08 73.4443 178.747C74.9222 180.377 76.552 181.722 78.333 182.783C80.114 183.844 81.9332 184.64 83.79 185.171C85.6468 185.701 87.4089 185.967 89.0762 185.967C91.0846 185.967 92.809 185.739 94.249 185.284C95.6888 184.867 96.8443 184.412 97.7158 183.92C98.5874 183.389 99.1754 183.048 99.4785 182.896C100.16 182.48 100.805 182.025 101.411 181.532C102.017 181.002 102.32 180.339 102.32 179.543C102.358 179.088 102.282 178.633 102.093 178.179C101.903 177.686 101.638 177.194 101.297 176.701C100.728 175.792 100.16 175.129 99.5918 174.712C99.0613 174.295 98.5305 174.086 98 174.086C97.5454 174.086 97.0904 174.2 96.6357 174.428C96.2191 174.655 95.8024 174.901 95.3857 175.166C94.9689 175.431 94.4569 175.735 93.8506 176.076C93.2823 176.379 92.5814 176.644 91.748 176.871C90.9523 177.098 89.9855 177.213 88.8486 177.213C87.5603 177.213 86.2342 176.985 84.8701 176.53C83.5438 176.038 82.3116 175.317 81.1748 174.37C80.0381 173.423 79.1096 172.229 78.3896 170.789C77.7077 169.349 77.3663 167.625 77.3662 165.617C77.3662 163.685 77.7075 161.998 78.3896 160.558C79.0717 159.08 79.9814 157.867 81.1182 156.92C82.2549 155.973 83.4863 155.271 84.8125 154.816C86.1767 154.324 87.5224 154.078 88.8486 154.078C90.1371 154.078 91.1985 154.21 92.0322 154.476C92.8658 154.703 93.5289 154.968 94.0215 155.271C94.5141 155.537 94.8929 155.765 95.1582 155.954C95.7643 156.333 96.2569 156.636 96.6357 156.863C97.0525 157.091 97.4887 157.204 97.9434 157.204C98.5118 157.204 99.0613 157.015 99.5918 156.636C100.16 156.219 100.748 155.575 101.354 154.703C101.695 154.211 101.941 153.756 102.093 153.339C102.282 152.884 102.377 152.429 102.377 151.975C102.339 151.103 102.017 150.402 101.411 149.871C100.805 149.341 100.161 148.867 99.4785 148.45C99.2512 148.261 98.6827 147.939 97.7734 147.484C96.864 146.992 95.6889 146.518 94.249 146.063C92.809 145.609 91.1221 145.381 89.1895 145.381ZM60.6309 145.779C59.2289 145.779 58.2244 145.987 57.6182 146.404C57.012 146.821 56.633 147.352 56.4814 147.996C56.3678 148.64 56.3115 149.341 56.3115 150.099V181.191C56.3115 181.911 56.3678 182.613 56.4814 183.295C56.633 183.977 57.012 184.527 57.6182 184.943C58.2245 185.322 59.21 185.512 60.5742 185.512C62.0142 185.512 63.0185 185.322 63.5869 184.943C64.1932 184.527 64.5721 183.996 64.7236 183.352C64.8752 182.669 64.9512 181.968 64.9512 181.248V150.156C64.9512 149.361 64.8752 148.64 64.7236 147.996C64.6099 147.352 64.2499 146.821 63.6436 146.404C63.0751 145.987 62.0708 145.779 60.6309 145.779ZM124.352 154.021C125.867 154.022 127.269 154.324 128.558 154.931C129.884 155.537 131.039 156.39 132.024 157.488C133.048 158.549 133.844 159.8 134.412 161.24C134.98 162.642 135.265 164.139 135.265 165.73C135.265 167.398 134.981 168.952 134.412 170.392C133.882 171.794 133.105 173.025 132.082 174.086C131.097 175.109 129.941 175.924 128.614 176.53C127.288 177.137 125.867 177.44 124.352 177.44C122.836 177.44 121.433 177.137 120.145 176.53C118.856 175.924 117.701 175.09 116.678 174.029C115.693 172.968 114.896 171.737 114.29 170.335C113.722 168.895 113.438 167.379 113.438 165.787C113.438 164.158 113.722 162.642 114.29 161.24C114.896 159.8 115.692 158.549 116.678 157.488C117.701 156.39 118.856 155.537 120.145 154.931C121.471 154.324 122.874 154.021 124.352 154.021ZM121.59 70.4248C119.803 68.1796 115.952 68.1797 114.165 70.4248L87.9941 103.304C83.8673 97.2797 79.9222 91.5211 74.6621 83.8428C72.4704 80.6447 66.5394 80.6447 64.3477 83.8428L40.6855 118.383C38.6289 121.385 41.446 125 45.8428 125H156.492C160.111 125 162.25 121.51 160.205 118.94L121.59 70.4248ZM60.2285 27C52.2064 27.0002 45.7031 33.5003 45.7031 41.5186C45.7031 49.5368 52.2064 56.0369 60.2285 56.0371C68.2508 56.0371 74.7549 49.5369 74.7549 41.5186C74.7549 33.5002 68.2508 27 60.2285 27Z" fill="#FF3093"/>
</svg>
