<svg width="200" height="200" viewBox="0 0 200 200" fill="none" xmlns="http://www.w3.org/2000/svg">
<path d="M176 0C189.255 0 200 10.7452 200 24V176C200 189.255 189.255 200 176 200H24C10.7452 200 0 189.255 0 176V24C0 10.7452 10.7452 0 24 0H176ZM53.3057 145.779C51.9036 145.779 50.8796 146.006 50.2354 146.461C49.6292 146.916 49.2502 147.522 49.0986 148.28C48.9471 149 48.8711 149.758 48.8711 150.554V171.244C48.8711 172.116 48.7576 172.931 48.5303 173.688C48.3029 174.408 47.9624 175.053 47.5078 175.621C47.0911 176.152 46.5601 176.568 45.916 176.871C45.2719 177.136 44.5328 177.27 43.6992 177.27C42.9793 177.27 42.3537 177.175 41.8232 176.985C41.2927 176.758 40.8379 176.511 40.459 176.246C40.0802 175.981 39.7771 175.773 39.5498 175.621C38.9815 175.053 38.4318 174.56 37.9014 174.144C37.4087 173.727 36.8208 173.518 36.1387 173.518C35.6462 173.518 35.1348 173.67 34.6045 173.973C34.1119 174.238 33.5811 174.655 33.0127 175.224C32.4823 175.792 32.0648 176.36 31.7617 176.929C31.4966 177.459 31.3643 177.97 31.3643 178.463C31.3643 179.069 31.535 179.619 31.876 180.111C32.2549 180.566 32.691 181.04 33.1836 181.532C33.3352 181.684 33.6756 182.006 34.2061 182.499C34.7366 182.954 35.438 183.446 36.3096 183.977C37.2189 184.507 38.2798 184.962 39.4922 185.341C40.7048 185.758 42.0129 185.967 43.415 185.967C45.4611 185.967 47.3369 185.607 49.042 184.887C50.7852 184.129 52.2817 183.105 53.5322 181.816C54.8206 180.528 55.8062 179.013 56.4883 177.27C57.1703 175.527 57.5117 173.651 57.5117 171.643V150.156C57.5117 149.436 57.4357 148.735 57.2842 148.053C57.1326 147.371 56.7725 146.821 56.2041 146.404C55.6357 145.988 54.6696 145.779 53.3057 145.779ZM151.708 145.153C148.828 145.191 146.156 145.722 143.693 146.745C141.23 147.73 139.089 149.132 137.271 150.951C135.452 152.732 134.03 154.836 133.007 157.261C131.984 159.648 131.473 162.245 131.473 165.049C131.473 168.004 131.965 170.751 132.95 173.29C133.973 175.829 135.375 178.047 137.156 179.941C138.975 181.836 141.079 183.314 143.466 184.375C145.853 185.436 148.45 185.967 151.254 185.967C152.694 185.967 154.058 185.871 155.346 185.682C156.634 185.492 157.848 185.247 158.984 184.943C160.159 184.602 161.201 184.185 162.11 183.692C163.55 182.972 164.687 182.139 165.521 181.191C166.354 180.206 166.771 179.259 166.771 178.35V165.958C166.771 165.238 166.695 164.575 166.544 163.969C166.392 163.325 166.051 162.794 165.521 162.377C164.99 161.96 164.1 161.732 162.85 161.694H152.106C151.5 161.694 150.912 161.752 150.344 161.865C149.813 161.979 149.378 162.302 149.037 162.832C148.696 163.325 148.525 164.177 148.525 165.39C148.525 166.602 148.676 167.473 148.979 168.004C149.321 168.534 149.738 168.857 150.23 168.971C150.761 169.084 151.348 169.141 151.992 169.141H158.074V176.076C157.468 176.341 156.786 176.568 156.028 176.758C155.308 176.909 154.551 177.023 153.755 177.099C152.997 177.174 152.238 177.213 151.48 177.213C149.359 177.213 147.426 176.682 145.683 175.621C143.977 174.56 142.633 173.138 141.647 171.357C140.662 169.539 140.15 167.492 140.112 165.219C140.15 162.983 140.643 161.013 141.591 159.308C142.576 157.602 143.921 156.275 145.626 155.328C147.331 154.343 149.264 153.851 151.424 153.851C152.409 153.851 153.357 153.964 154.267 154.191C155.214 154.381 156.048 154.609 156.768 154.874C157.487 155.139 158.017 155.385 158.358 155.612C159.078 156.067 159.648 156.39 160.064 156.579C160.481 156.768 160.841 156.863 161.145 156.863C161.713 156.863 162.281 156.674 162.85 156.295C163.456 155.916 164.062 155.29 164.668 154.419C165.009 153.926 165.274 153.453 165.464 152.998C165.653 152.505 165.729 152.069 165.691 151.69C165.691 150.933 165.388 150.288 164.782 149.758C164.214 149.189 163.551 148.659 162.793 148.166C161.846 147.522 160.727 146.972 159.438 146.518C158.15 146.063 156.824 145.722 155.46 145.495C154.134 145.268 152.883 145.153 151.708 145.153ZM67.4668 145.779C66.0648 145.779 65.0604 145.988 64.4541 146.404C63.8478 146.821 63.469 147.371 63.3174 148.053C63.1658 148.697 63.0899 149.379 63.0898 150.099V181.135C63.0898 181.855 63.1658 182.556 63.3174 183.238C63.469 183.92 63.8292 184.47 64.3975 184.887C65.0038 185.303 66.0077 185.512 67.4092 185.512C68.8109 185.512 69.8155 185.303 70.4219 184.887C71.0282 184.47 71.408 183.939 71.5596 183.295C71.7111 182.613 71.7861 181.911 71.7861 181.191V173.745H79.0625C80.6539 173.745 82.2642 173.461 83.8936 172.893C85.523 172.286 87.0206 171.415 88.3848 170.278C89.7868 169.104 90.9046 167.644 91.7383 165.901C92.6098 164.158 93.0458 162.131 93.0459 159.819C93.0459 157.47 92.6099 155.423 91.7383 153.68C90.9046 151.937 89.7868 150.477 88.3848 149.303C87.0206 148.09 85.523 147.2 83.8936 146.632C82.302 146.063 80.7107 145.779 79.1191 145.779H67.4668ZM101.724 145.779C100.057 145.779 98.901 146.082 98.2568 146.688C97.6127 147.295 97.2901 148.431 97.29 150.099V181.191C97.29 181.911 97.3473 182.613 97.4609 183.295C97.6125 183.977 97.9914 184.527 98.5977 184.943C99.204 185.322 100.19 185.512 101.554 185.512H123.153C123.911 185.512 124.613 185.436 125.257 185.284C125.939 185.17 126.488 184.81 126.905 184.204C127.322 183.598 127.53 182.612 127.53 181.248C127.53 179.808 127.322 178.804 126.905 178.235C126.488 177.629 125.958 177.25 125.313 177.099C124.669 176.947 123.968 176.871 123.21 176.871H105.931V169.255H117.526C118.322 169.255 119.023 169.198 119.629 169.084C120.235 168.97 120.71 168.649 121.051 168.118C121.392 167.588 121.562 166.734 121.562 165.56C121.561 164.31 121.392 163.419 121.051 162.889C120.71 162.358 120.235 162.036 119.629 161.922C119.061 161.808 118.397 161.752 117.64 161.752H105.931V154.419H123.153C123.911 154.419 124.613 154.362 125.257 154.248C125.939 154.096 126.488 153.718 126.905 153.111C127.322 152.505 127.53 151.52 127.53 150.156C127.53 148.716 127.322 147.692 126.905 147.086C126.488 146.48 125.958 146.12 125.313 146.006C124.669 145.854 123.968 145.779 123.21 145.779H101.724ZM79.0625 154.419C80.1234 154.419 81.0519 154.646 81.8477 155.101C82.6813 155.555 83.3255 156.181 83.7803 156.977C84.235 157.772 84.4619 158.701 84.4619 159.762C84.4619 161.012 84.1778 162.036 83.6094 162.832C83.0789 163.628 82.397 164.215 81.5635 164.594C80.7677 164.935 79.9528 165.105 79.1191 165.105H71.7861V154.419H79.0625ZM121.59 70.4248C119.803 68.1796 115.952 68.1797 114.165 70.4248L87.9941 103.304C83.8673 97.2797 79.9222 91.5211 74.6621 83.8428C72.4704 80.6447 66.5394 80.6447 64.3477 83.8428L40.6855 118.383C38.6289 121.385 41.446 125 45.8428 125H156.492C160.111 125 162.25 121.51 160.205 118.94L121.59 70.4248ZM60.2285 27C52.2064 27.0002 45.7031 33.5003 45.7031 41.5186C45.7031 49.5368 52.2064 56.0369 60.2285 56.0371C68.2508 56.0371 74.7549 49.5369 74.7549 41.5186C74.7549 33.5002 68.2508 27 60.2285 27Z" fill="#FF3093"/>
</svg>
