<svg width="200" height="200" viewBox="0 0 200 200" fill="none" xmlns="http://www.w3.org/2000/svg">
<path d="M176 0C189.255 0 200 10.7452 200 24V176C200 189.255 189.255 200 176 200H24C10.7452 200 0 189.255 0 176V24C0 10.7452 10.7452 0 24 0H176ZM71.3057 145.779C69.9036 145.779 68.8796 146.006 68.2354 146.461C67.6292 146.916 67.2502 147.522 67.0986 148.28C66.9471 149 66.8711 149.758 66.8711 150.554V171.244C66.8711 172.116 66.7576 172.931 66.5303 173.688C66.3029 174.408 65.9624 175.053 65.5078 175.621C65.0911 176.152 64.5601 176.568 63.916 176.871C63.2719 177.136 62.5328 177.27 61.6992 177.27C60.9793 177.27 60.3537 177.175 59.8232 176.985C59.2927 176.758 58.8379 176.511 58.459 176.246C58.0802 175.981 57.7771 175.773 57.5498 175.621C56.9815 175.053 56.4318 174.56 55.9014 174.144C55.4087 173.727 54.8208 173.518 54.1387 173.518C53.6462 173.518 53.1348 173.67 52.6045 173.973C52.1119 174.238 51.5811 174.655 51.0127 175.224C50.4823 175.792 50.0648 176.36 49.7617 176.929C49.4966 177.459 49.3643 177.97 49.3643 178.463C49.3643 179.069 49.535 179.619 49.876 180.111C50.2549 180.566 50.691 181.04 51.1836 181.532C51.3352 181.684 51.6756 182.006 52.2061 182.499C52.7366 182.954 53.438 183.446 54.3096 183.977C55.2189 184.507 56.2798 184.962 57.4922 185.341C58.7048 185.758 60.0129 185.967 61.415 185.967C63.4611 185.967 65.3369 185.607 67.042 184.887C68.7852 184.129 70.2817 183.105 71.5322 181.816C72.8206 180.528 73.8062 179.013 74.4883 177.27C75.1703 175.527 75.5117 173.651 75.5117 171.643V150.156C75.5117 149.436 75.4357 148.735 75.2842 148.053C75.1326 147.371 74.7725 146.821 74.2041 146.404C73.6357 145.988 72.6696 145.779 71.3057 145.779ZM135.015 145.153C132.135 145.191 129.463 145.722 127 146.745C124.537 147.73 122.396 149.132 120.577 150.951C118.758 152.732 117.337 154.836 116.313 157.261C115.29 159.648 114.779 162.245 114.779 165.049C114.779 168.004 115.272 170.751 116.257 173.29C117.28 175.829 118.682 178.047 120.463 179.941C122.282 181.836 124.385 183.314 126.772 184.375C129.16 185.436 131.755 185.967 134.56 185.967C136 185.967 137.364 185.871 138.652 185.682C139.941 185.492 141.153 185.246 142.29 184.943C143.465 184.602 144.508 184.185 145.417 183.692C146.857 182.972 147.994 182.139 148.827 181.191C149.661 180.206 150.078 179.259 150.078 178.35V165.958C150.078 165.238 150.002 164.575 149.851 163.969C149.699 163.325 149.358 162.794 148.827 162.377C148.297 161.96 147.406 161.732 146.155 161.694H135.412C134.806 161.694 134.219 161.752 133.65 161.865C133.12 161.979 132.684 162.302 132.343 162.832C132.002 163.325 131.831 164.177 131.831 165.39C131.831 166.602 131.983 167.473 132.286 168.004C132.627 168.534 133.044 168.857 133.537 168.971C134.068 169.084 134.655 169.141 135.299 169.141H141.381V176.076C140.775 176.341 140.093 176.568 139.335 176.758C138.615 176.909 137.856 177.023 137.061 177.099C136.303 177.174 135.545 177.213 134.787 177.213C132.665 177.213 130.732 176.682 128.989 175.621C127.284 174.56 125.938 173.138 124.953 171.357C123.968 169.539 123.457 167.492 123.419 165.219C123.457 162.983 123.949 161.013 124.896 159.308C125.882 157.602 127.227 156.275 128.933 155.328C130.638 154.343 132.571 153.851 134.73 153.851C135.716 153.851 136.663 153.964 137.572 154.191C138.52 154.381 139.353 154.609 140.073 154.874C140.793 155.139 141.324 155.385 141.665 155.612C142.385 156.067 142.953 156.39 143.37 156.579C143.787 156.769 144.147 156.863 144.45 156.863C145.018 156.863 145.587 156.674 146.155 156.295C146.762 155.916 147.368 155.291 147.975 154.419C148.316 153.926 148.581 153.453 148.771 152.998C148.96 152.505 149.036 152.069 148.998 151.69C148.998 150.933 148.694 150.288 148.088 149.758C147.52 149.189 146.856 148.659 146.099 148.166C145.151 147.522 144.033 146.972 142.745 146.518C141.457 146.063 140.131 145.722 138.767 145.495C137.44 145.268 136.189 145.153 135.015 145.153ZM85.4668 145.779C84.0648 145.779 83.0604 145.988 82.4541 146.404C81.8478 146.821 81.469 147.371 81.3174 148.053C81.1658 148.697 81.0899 149.379 81.0898 150.099V181.135C81.0898 181.855 81.1658 182.556 81.3174 183.238C81.469 183.92 81.8292 184.47 82.3975 184.887C83.0038 185.303 84.0077 185.512 85.4092 185.512C86.8109 185.512 87.8155 185.303 88.4219 184.887C89.0282 184.47 89.408 183.939 89.5596 183.295C89.7111 182.613 89.7861 181.911 89.7861 181.191V173.745H97.0625C98.6539 173.745 100.264 173.461 101.894 172.893C103.523 172.286 105.021 171.415 106.385 170.278C107.787 169.104 108.905 167.644 109.738 165.901C110.61 164.158 111.046 162.131 111.046 159.819C111.046 157.47 110.61 155.423 109.738 153.68C108.905 151.937 107.787 150.477 106.385 149.303C105.021 148.09 103.523 147.2 101.894 146.632C100.302 146.063 98.7107 145.779 97.1191 145.779H85.4668ZM97.0625 154.419C98.1234 154.419 99.0519 154.646 99.8477 155.101C100.681 155.555 101.326 156.181 101.78 156.977C102.235 157.772 102.462 158.701 102.462 159.762C102.462 161.012 102.178 162.036 101.609 162.832C101.079 163.628 100.397 164.215 99.5635 164.594C98.7677 164.935 97.9528 165.105 97.1191 165.105H89.7861V154.419H97.0625ZM121.59 70.4248C119.803 68.1796 115.952 68.1797 114.165 70.4248L87.9941 103.304C83.8673 97.2797 79.9222 91.5211 74.6621 83.8428C72.4704 80.6447 66.5394 80.6447 64.3477 83.8428L40.6855 118.383C38.6289 121.385 41.446 125 45.8428 125H156.492C160.111 125 162.25 121.51 160.205 118.94L121.59 70.4248ZM60.2285 27C52.2064 27.0002 45.7031 33.5003 45.7031 41.5186C45.7031 49.5368 52.2064 56.0369 60.2285 56.0371C68.2508 56.0371 74.7549 49.5369 74.7549 41.5186C74.7549 33.5002 68.2508 27 60.2285 27Z" fill="#FF3093"/>
</svg>
