<svg width="200" height="200" viewBox="0 0 200 200" fill="none" xmlns="http://www.w3.org/2000/svg">
<path d="M176 0C189.255 0 200 10.7452 200 24V176C200 189.255 189.255 200 176 200H24C10.7452 200 0 189.255 0 176V24C0 10.7452 10.7452 0 24 0H176ZM138.341 145.153C135.461 145.191 132.789 145.722 130.326 146.745C127.863 147.73 125.722 149.132 123.903 150.951C122.084 152.732 120.663 154.836 119.64 157.261C118.616 159.648 118.105 162.245 118.105 165.049C118.106 168.004 118.598 170.751 119.583 173.29C120.606 175.829 122.008 178.047 123.789 179.941C125.608 181.836 127.711 183.314 130.099 184.375C132.486 185.436 135.083 185.967 137.887 185.967C139.326 185.967 140.69 185.871 141.979 185.682C143.267 185.492 144.48 185.247 145.617 184.943C146.792 184.602 147.834 184.185 148.743 183.692C150.183 182.972 151.32 182.139 152.153 181.191C152.987 180.206 153.404 179.259 153.404 178.35V165.958C153.404 165.238 153.328 164.575 153.177 163.969C153.025 163.325 152.684 162.794 152.153 162.377C151.623 161.96 150.733 161.732 149.482 161.694H138.739C138.133 161.694 137.545 161.752 136.977 161.865C136.446 161.979 136.011 162.302 135.67 162.832C135.329 163.325 135.158 164.177 135.158 165.39C135.158 166.602 135.309 167.473 135.612 168.004C135.953 168.534 136.371 168.857 136.863 168.971C137.394 169.084 137.981 169.141 138.625 169.141H144.707V176.076C144.101 176.341 143.419 176.568 142.661 176.758C141.941 176.909 141.183 177.023 140.388 177.099C139.63 177.174 138.871 177.213 138.113 177.213C135.991 177.213 134.058 176.682 132.315 175.621C130.61 174.56 129.265 173.138 128.28 171.357C127.295 169.539 126.783 167.492 126.745 165.219C126.783 162.983 127.276 161.013 128.224 159.308C129.209 157.602 130.554 156.275 132.259 155.328C133.964 154.343 135.897 153.851 138.057 153.851C139.042 153.851 139.99 153.964 140.899 154.191C141.847 154.381 142.68 154.609 143.4 154.874C144.12 155.139 144.65 155.385 144.991 155.612C145.711 156.067 146.28 156.39 146.697 156.579C147.114 156.768 147.474 156.863 147.777 156.863C148.346 156.863 148.914 156.674 149.482 156.295C150.089 155.916 150.695 155.29 151.301 154.419C151.642 153.926 151.907 153.453 152.097 152.998C152.286 152.505 152.362 152.069 152.324 151.69C152.324 150.933 152.021 150.288 151.415 149.758C150.847 149.189 150.184 148.659 149.426 148.166C148.478 147.522 147.36 146.972 146.071 146.518C144.783 146.063 143.457 145.722 142.093 145.495C140.766 145.268 139.516 145.153 138.341 145.153ZM49.9912 145.779C48.5893 145.779 47.5848 145.987 46.9785 146.404C46.3724 146.821 45.9933 147.371 45.8418 148.053C45.6903 148.697 45.6143 149.379 45.6143 150.099V181.135C45.6143 181.855 45.6902 182.556 45.8418 183.238C45.9934 183.92 46.3535 184.47 46.9219 184.887C47.5282 185.304 48.5326 185.512 49.9346 185.512C51.3365 185.512 52.3409 185.303 52.9473 184.887C53.5535 184.47 53.9324 183.939 54.084 183.295C54.2356 182.613 54.3115 181.911 54.3115 181.191V173.745H61.5869C63.1785 173.745 64.7895 173.461 66.4189 172.893C68.0483 172.286 69.5451 171.415 70.9092 170.278C72.3112 169.104 73.429 167.644 74.2627 165.901C75.1342 164.158 75.5703 162.131 75.5703 159.819C75.5703 157.47 75.1343 155.423 74.2627 153.68C73.429 151.937 72.3112 150.477 70.9092 149.303C69.5451 148.09 68.0482 147.2 66.4189 146.632C64.8275 146.063 63.236 145.779 61.6445 145.779H49.9912ZM108.861 145.836C107.498 145.836 106.513 146.044 105.906 146.461C105.3 146.84 104.901 147.332 104.712 147.938C104.56 148.545 104.485 149.209 104.485 149.929V170.448L87.8867 147.654C87.47 147.086 86.9962 146.651 86.4658 146.348C85.9353 146.007 84.9882 145.836 83.624 145.836C82.2221 145.836 81.1989 146.044 80.5547 146.461C79.9485 146.84 79.5696 147.332 79.418 147.938C79.2664 148.545 79.1904 149.209 79.1904 149.929V181.135C79.1904 181.893 79.2664 182.613 79.418 183.295C79.5696 183.939 79.9485 184.47 80.5547 184.887C81.161 185.303 82.1272 185.512 83.4531 185.512C84.855 185.512 85.8595 185.303 86.4658 184.887C87.0721 184.47 87.4509 183.939 87.6025 183.295C87.7541 182.613 87.8301 181.911 87.8301 181.191V161.184L104.77 184.147C105.186 184.678 105.679 185.038 106.247 185.228C106.853 185.417 107.687 185.512 108.748 185.512C110.15 185.512 111.154 185.303 111.761 184.887C112.367 184.47 112.746 183.939 112.897 183.295C113.049 182.613 113.125 181.911 113.125 181.191V150.156C113.125 149.436 113.049 148.754 112.897 148.109C112.784 147.427 112.424 146.878 111.817 146.461C111.249 146.044 110.263 145.836 108.861 145.836ZM61.5869 154.419C62.648 154.419 63.5773 154.646 64.373 155.101C65.2067 155.555 65.851 156.181 66.3057 156.977C66.7603 157.772 66.9872 158.701 66.9873 159.762C66.9873 161.012 66.7032 162.036 66.1348 162.832C65.6043 163.628 64.9223 164.215 64.0889 164.594C63.2932 164.935 62.4781 165.105 61.6445 165.105H54.3115V154.419H61.5869ZM121.59 70.4248C119.803 68.1796 115.952 68.1797 114.165 70.4248L87.9941 103.304C83.8673 97.2797 79.9222 91.5211 74.6621 83.8428C72.4704 80.6447 66.5394 80.6447 64.3477 83.8428L40.6855 118.383C38.6289 121.385 41.446 125 45.8428 125H156.492C160.111 125 162.25 121.51 160.205 118.94L121.59 70.4248ZM60.2285 27C52.2064 27.0002 45.7031 33.5003 45.7031 41.5186C45.7031 49.5368 52.2064 56.0369 60.2285 56.0371C68.2508 56.0371 74.7549 49.5369 74.7549 41.5186C74.7549 33.5002 68.2508 27 60.2285 27Z" fill="#FF3093"/>
</svg>
