<svg width="200" height="200" viewBox="0 0 200 200" fill="none" xmlns="http://www.w3.org/2000/svg">
<path d="M176 0C189.255 0 200 10.7452 200 24V176C200 189.255 189.255 200 176 200H24C10.7452 200 0 189.255 0 176V24C0 10.7452 10.7452 0 24 0H176ZM60.0801 145.153C57.5413 145.153 55.2868 145.665 53.3164 146.688C51.3838 147.674 49.8675 149.038 48.7686 150.781C47.6698 152.524 47.1202 154.513 47.1201 156.749C47.1201 158.075 47.2533 159.25 47.5186 160.273C47.8217 161.297 48.2193 162.206 48.7119 163.002C49.2424 163.798 49.8679 164.48 50.5879 165.049C51.3078 165.617 52.0657 166.128 52.8613 166.583C53.6571 167.038 54.4908 167.417 55.3623 167.72C56.6128 168.212 57.8637 168.648 59.1143 169.027C60.4025 169.368 61.558 169.729 62.5811 170.107C63.642 170.486 64.4757 170.941 65.082 171.472C65.7262 171.964 66.0488 172.627 66.0488 173.461C66.0488 174.484 65.8209 175.336 65.3662 176.019C64.9115 176.663 64.2485 177.137 63.377 177.44C62.5055 177.743 61.4446 177.894 60.1943 177.895C59.2091 177.895 58.261 177.686 57.3516 177.27C56.48 176.815 55.5901 176.037 54.6807 174.938C54.0365 174.181 53.3725 173.594 52.6904 173.177C52.0085 172.76 51.3077 172.589 50.5879 172.665C49.9059 172.703 49.1668 173.063 48.3711 173.745C47.5753 174.503 47.0061 175.204 46.665 175.849C46.362 176.493 46.2869 177.137 46.4385 177.781C46.5901 178.388 46.9877 179.108 47.6318 179.941C47.8592 180.282 48.2767 180.794 48.8828 181.476C49.4891 182.158 50.3032 182.859 51.3262 183.579C52.3872 184.261 53.657 184.848 55.1348 185.341C56.6505 185.833 58.4126 186.08 60.4209 186.08C62.0125 186.08 63.6422 185.833 65.3096 185.341C66.9769 184.886 68.5307 184.147 69.9707 183.124C71.4107 182.101 72.5669 180.775 73.4385 179.146C74.3101 177.516 74.7451 175.564 74.7451 173.29C74.7451 171.471 74.4797 169.937 73.9492 168.687C73.4566 167.436 72.7936 166.393 71.96 165.56C71.1264 164.726 70.1791 164.044 69.1182 163.514C68.0571 162.945 66.9581 162.472 65.8213 162.093C64.5709 161.714 63.3395 161.391 62.127 161.126C60.9523 160.823 59.8719 160.52 58.8867 160.217C57.9394 159.876 57.162 159.44 56.5557 158.909C55.9875 158.379 55.7032 157.678 55.7031 156.807C55.7031 156.276 55.8168 155.802 56.0439 155.386C56.2713 154.931 56.5752 154.551 56.9541 154.248C57.333 153.945 57.788 153.718 58.3184 153.566C58.8488 153.377 59.4172 153.282 60.0234 153.282C61.0466 153.282 61.8615 153.396 62.4678 153.623C63.1119 153.813 63.6615 154.078 64.1162 154.419C64.5709 154.76 65.0258 155.139 65.4805 155.556C66.6551 156.351 67.697 156.674 68.6064 156.522C69.5537 156.371 70.501 155.632 71.4482 154.306C72.3577 153.055 72.7563 152.088 72.6426 151.406C72.5289 150.686 71.9409 149.834 70.8799 148.849C70.6904 148.621 70.3303 148.317 69.7998 147.938C69.3072 147.522 68.6252 147.105 67.7539 146.688C66.8823 146.272 65.8021 145.912 64.5137 145.608C63.2632 145.305 61.7852 145.153 60.0801 145.153ZM135.973 145.153C133.093 145.191 130.421 145.722 127.958 146.745C125.495 147.73 123.354 149.132 121.535 150.951C119.716 152.732 118.295 154.836 117.271 157.261C116.248 159.648 115.737 162.245 115.737 165.049C115.737 168.004 116.23 170.751 117.215 173.29C118.238 175.829 119.64 178.047 121.421 179.941C123.24 181.836 125.343 183.314 127.73 184.375C130.118 185.436 132.714 185.967 135.519 185.967C136.958 185.967 138.322 185.871 139.61 185.682C140.899 185.492 142.112 185.247 143.249 184.943C144.424 184.602 145.466 184.185 146.375 183.692C147.815 182.972 148.951 182.139 149.785 181.191C150.619 180.206 151.036 179.259 151.036 178.35V165.958C151.036 165.238 150.96 164.575 150.809 163.969C150.657 163.325 150.316 162.794 149.785 162.377C149.255 161.96 148.364 161.732 147.114 161.694H136.371C135.765 161.694 135.177 161.752 134.608 161.865C134.078 161.979 133.643 162.302 133.302 162.832C132.961 163.325 132.79 164.177 132.79 165.39C132.79 166.602 132.941 167.473 133.244 168.004C133.585 168.534 134.002 168.857 134.495 168.971C135.026 169.084 135.613 169.141 136.257 169.141H142.339V176.076C141.733 176.341 141.051 176.568 140.293 176.758C139.573 176.909 138.815 177.023 138.02 177.099C137.262 177.174 136.503 177.213 135.745 177.213C133.623 177.213 131.69 176.682 129.947 175.621C128.242 174.56 126.897 173.138 125.912 171.357C124.927 169.539 124.415 167.492 124.377 165.219C124.415 162.983 124.907 161.013 125.854 159.308C126.84 157.602 128.185 156.275 129.891 155.328C131.596 154.343 133.529 153.851 135.688 153.851C136.674 153.851 137.622 153.964 138.531 154.191C139.478 154.381 140.312 154.609 141.032 154.874C141.752 155.139 142.282 155.385 142.623 155.612C143.343 156.067 143.912 156.39 144.329 156.579C144.746 156.768 145.105 156.863 145.408 156.863C145.977 156.863 146.546 156.674 147.114 156.295C147.72 155.916 148.326 155.29 148.933 154.419C149.274 153.926 149.539 153.453 149.729 152.998C149.918 152.505 149.994 152.069 149.956 151.69C149.956 150.933 149.653 150.288 149.047 149.758C148.478 149.189 147.815 148.659 147.057 148.166C146.109 147.522 144.991 146.972 143.703 146.518C142.415 146.063 141.089 145.722 139.725 145.495C138.398 145.268 137.147 145.153 135.973 145.153ZM81.7158 145.381C81.0338 145.381 80.2 145.665 79.2148 146.233C77.775 146.915 76.8841 147.654 76.543 148.45C76.2398 149.208 76.3917 150.288 76.998 151.69L90.7539 183.124C91.095 183.92 91.6257 184.527 92.3457 184.943C93.1034 185.322 94.0126 185.512 95.0732 185.512C96.0204 185.512 96.8543 185.303 97.5742 184.887C98.3321 184.432 98.8816 183.844 99.2227 183.124L112.979 151.861C113.585 150.497 113.774 149.417 113.547 148.621C113.357 147.787 112.449 146.991 110.819 146.233C109.834 145.665 108.981 145.381 108.261 145.381C107.541 145.381 106.915 145.628 106.385 146.12C105.892 146.613 105.457 147.352 105.078 148.337L94.96 173.348L84.8984 148.166C84.5196 147.219 84.0654 146.518 83.5352 146.063C83.0425 145.571 82.4358 145.343 81.7158 145.381ZM121.59 70.4248C119.803 68.1796 115.952 68.1797 114.165 70.4248L87.9941 103.304C83.8673 97.2797 79.9222 91.5211 74.6621 83.8428C72.4704 80.6447 66.5394 80.6447 64.3477 83.8428L40.6855 118.383C38.6289 121.385 41.446 125 45.8428 125H156.492C160.111 125 162.25 121.51 160.205 118.94L121.59 70.4248ZM60.2285 27C52.2064 27.0002 45.7031 33.5003 45.7031 41.5186C45.7031 49.5368 52.2064 56.0369 60.2285 56.0371C68.2508 56.0371 74.7549 49.5369 74.7549 41.5186C74.7549 33.5002 68.2508 27 60.2285 27Z" fill="#FF3093"/>
</svg>
