<svg width="200" height="200" viewBox="0 0 200 200" fill="none" xmlns="http://www.w3.org/2000/svg">
<path d="M176 0C189.255 0 200 10.7452 200 24V176C200 189.255 189.255 200 176 200H24C10.7452 200 0 189.255 0 176V24C0 10.7452 10.7452 0 24 0H176ZM83.5107 145.779C81.8434 145.779 80.6872 146.082 80.043 146.688C79.3988 147.295 79.0762 148.431 79.0762 150.099V181.191C79.0762 181.911 79.1334 182.613 79.2471 183.295C79.3987 183.977 79.7775 184.527 80.3838 184.943C80.9901 185.322 81.9756 185.512 83.3398 185.512H104.939C105.697 185.512 106.399 185.436 107.043 185.284C107.725 185.17 108.275 184.81 108.691 184.204C109.108 183.598 109.316 182.612 109.316 181.248C109.316 179.808 109.108 178.804 108.691 178.235C108.275 177.629 107.744 177.25 107.1 177.099C106.455 176.947 105.754 176.871 104.996 176.871H87.7168V169.255H99.3125C100.108 169.255 100.81 169.198 101.416 169.084C102.022 168.97 102.496 168.649 102.837 168.118C103.178 167.588 103.349 166.734 103.349 165.56C103.349 164.31 103.178 163.419 102.837 162.889C102.496 162.358 102.022 162.036 101.416 161.922C100.848 161.808 100.184 161.752 99.4258 161.752H87.7168V154.419H104.939C105.697 154.419 106.399 154.362 107.043 154.248C107.725 154.096 108.275 153.718 108.691 153.111C109.108 152.505 109.316 151.52 109.316 150.156C109.316 148.716 109.108 147.692 108.691 147.086C108.275 146.48 107.744 146.12 107.1 146.006C106.455 145.854 105.754 145.779 104.996 145.779H83.5107ZM117.408 145.722C116.006 145.722 115.002 145.95 114.396 146.404C113.789 146.821 113.41 147.371 113.259 148.053C113.145 148.697 113.088 149.398 113.088 150.156V180.964C113.088 181.722 113.145 182.461 113.259 183.181C113.41 183.863 113.789 184.432 114.396 184.887C115.002 185.303 115.987 185.512 117.352 185.512H132.13C133.797 185.512 135.37 185.189 136.848 184.545C138.326 183.901 139.634 183.03 140.771 181.931C141.907 180.794 142.778 179.467 143.385 177.951C144.029 176.398 144.37 174.749 144.408 173.006C144.408 171.907 144.256 170.827 143.953 169.767C143.688 168.706 143.29 167.701 142.76 166.754C142.229 165.769 141.566 164.897 140.771 164.139C141.301 163.532 141.736 162.869 142.077 162.149C142.456 161.392 142.741 160.615 142.931 159.819C143.12 159.024 143.195 158.209 143.157 157.375C143.195 155.291 142.703 153.358 141.68 151.577C140.657 149.796 139.273 148.375 137.53 147.313C135.787 146.252 133.797 145.722 131.562 145.722H117.408ZM153.056 145.779C151.654 145.779 150.65 145.988 150.044 146.404C149.438 146.821 149.058 147.371 148.906 148.053C148.755 148.697 148.68 149.379 148.68 150.099V181.135C148.68 181.855 148.755 182.556 148.906 183.238C149.058 183.92 149.418 184.47 149.986 184.887C150.593 185.304 151.597 185.512 152.999 185.512C154.401 185.512 155.405 185.303 156.012 184.887C156.618 184.47 156.997 183.939 157.148 183.295C157.3 182.613 157.376 181.911 157.376 181.191V173.745H164.652C166.244 173.745 167.854 173.461 169.483 172.893C171.113 172.286 172.61 171.415 173.974 170.278C175.376 169.104 176.494 167.644 177.328 165.901C178.2 164.158 178.635 162.131 178.635 159.819C178.635 157.47 178.2 155.423 177.328 153.68C176.494 151.937 175.376 150.477 173.974 149.303C172.61 148.09 171.113 147.2 169.483 146.632C167.892 146.063 166.3 145.779 164.709 145.779H153.056ZM69.2354 145.495C68.5535 145.571 67.9849 145.874 67.5303 146.404C67.1135 146.897 66.7345 147.674 66.3936 148.734L59.3457 169.88L53.3203 148.905C53.2066 148.64 53.0359 148.261 52.8086 147.769C52.5812 147.276 52.1639 146.821 51.5576 146.404C50.9892 145.988 50.1179 145.779 48.9434 145.779C47.9202 145.779 47.1241 145.969 46.5557 146.348C45.9876 146.726 45.5709 147.162 45.3057 147.654C45.0783 148.147 44.9076 148.583 44.7939 148.962L38.8252 169.767L31.7197 148.678C31.3787 147.617 30.981 146.84 30.5264 146.348C30.1095 145.855 29.56 145.59 28.8779 145.552C28.2338 145.514 27.3812 145.665 26.3203 146.006C24.6908 146.536 23.7053 147.2 23.3643 147.996C23.0234 148.754 23.0993 149.928 23.5918 151.52L34.2783 182.499C34.3541 182.689 34.5051 183.03 34.7324 183.522C34.9977 184.015 35.4151 184.45 35.9834 184.829C36.5518 185.208 37.3283 185.397 38.3135 185.397C39.3745 185.397 40.1894 185.189 40.7578 184.772C41.3641 184.318 41.8002 183.825 42.0654 183.295C42.3306 182.765 42.4816 182.404 42.5195 182.215L49.0566 161.013L55.5938 182.215C55.6696 182.404 55.8215 182.765 56.0488 183.295C56.3141 183.787 56.7494 184.261 57.3555 184.716C57.9617 185.171 58.7767 185.397 59.7998 185.397C60.8609 185.397 61.657 185.208 62.1875 184.829C62.7557 184.45 63.1535 184.034 63.3809 183.579C63.6461 183.087 63.8168 182.726 63.8926 182.499L74.5791 151.52C74.8822 150.459 75.0145 149.606 74.9766 148.962C74.9765 148.28 74.7496 147.712 74.2949 147.257C73.8402 146.802 73.0441 146.366 71.9072 145.949C70.8463 145.57 69.9553 145.419 69.2354 145.495ZM130.197 154.306C131.827 154.306 132.964 154.59 133.608 155.158C134.252 155.689 134.574 156.599 134.574 157.887C134.574 158.644 134.461 159.25 134.233 159.705C134.044 160.122 133.778 160.425 133.438 160.614C133.134 160.804 132.774 160.918 132.357 160.956C131.941 160.994 131.543 161.013 131.164 161.013H129.516C128.227 161.013 127.28 161.278 126.674 161.809C126.105 162.339 125.82 163.267 125.82 164.594C125.82 165.958 126.086 166.924 126.616 167.492C127.147 168.023 128.056 168.288 129.345 168.288H130.993C131.41 168.288 131.846 168.308 132.301 168.346C132.756 168.384 133.192 168.459 133.608 168.572C134.025 168.686 134.404 168.895 134.745 169.198C135.086 169.464 135.352 169.861 135.541 170.392C135.73 170.922 135.825 171.585 135.825 172.381C135.825 173.593 135.597 174.542 135.143 175.224C134.726 175.868 134.176 176.322 133.494 176.587C132.85 176.814 132.206 176.929 131.562 176.929H121.729V154.306H130.197ZM164.652 154.419C165.713 154.419 166.642 154.646 167.438 155.101C168.271 155.555 168.915 156.181 169.37 156.977C169.825 157.772 170.052 158.701 170.052 159.762C170.052 161.012 169.768 162.036 169.199 162.832C168.669 163.628 167.987 164.215 167.153 164.594C166.358 164.935 165.543 165.105 164.709 165.105H157.376V154.419H164.652ZM121.59 70.4248C119.803 68.1796 115.952 68.1797 114.165 70.4248L87.9941 103.304C83.8673 97.2797 79.9222 91.5211 74.6621 83.8428C72.4704 80.6447 66.5394 80.6447 64.3477 83.8428L40.6855 118.383C38.6289 121.385 41.446 125 45.8428 125H156.492C160.111 125 162.25 121.51 160.205 118.94L121.59 70.4248ZM60.2285 27C52.2064 27.0002 45.7031 33.5003 45.7031 41.5186C45.7031 49.5368 52.2064 56.0369 60.2285 56.0371C68.2508 56.0371 74.7549 49.5369 74.7549 41.5186C74.7549 33.5002 68.2508 27 60.2285 27Z" fill="#FF3093"/>
</svg>
