<svg width="200" height="200" viewBox="0 0 200 200" fill="none" xmlns="http://www.w3.org/2000/svg">
<path d="M176 0C189.255 0 200 10.7452 200 24V176C200 189.255 189.255 200 176 200H24C10.7452 200 0 189.255 0 176V24C0 10.7452 10.7452 0 24 0H176ZM156.995 146.381C155.29 146.381 153.489 146.646 151.595 147.177C149.7 147.669 147.862 148.447 146.081 149.508C144.3 150.531 142.69 151.838 141.25 153.43C139.81 155.021 138.654 156.897 137.782 159.057C136.949 161.179 136.532 163.605 136.532 166.333C136.532 169.175 136.949 171.714 137.782 173.949C138.654 176.147 139.81 178.08 141.25 179.747C142.728 181.377 144.358 182.722 146.139 183.783C147.92 184.844 149.738 185.64 151.595 186.171C153.452 186.701 155.214 186.967 156.882 186.967C158.89 186.967 160.614 186.739 162.054 186.284C163.494 185.867 164.65 185.413 165.521 184.92C166.393 184.389 166.98 184.048 167.283 183.896C167.965 183.48 168.61 183.025 169.216 182.532C169.822 182.002 170.126 181.339 170.126 180.543C170.164 180.088 170.088 179.633 169.898 179.179C169.709 178.686 169.444 178.194 169.103 177.701C168.534 176.792 167.966 176.129 167.397 175.712C166.867 175.295 166.336 175.086 165.806 175.086C165.351 175.086 164.896 175.2 164.441 175.428C164.025 175.655 163.608 175.901 163.191 176.166C162.775 176.431 162.263 176.735 161.656 177.076C161.088 177.379 160.386 177.644 159.553 177.871C158.757 178.098 157.791 178.213 156.654 178.213C155.366 178.213 154.039 177.985 152.675 177.53C151.349 177.038 150.117 176.317 148.98 175.37C147.844 174.423 146.915 173.229 146.195 171.789C145.513 170.349 145.172 168.625 145.172 166.617C145.172 164.685 145.513 162.998 146.195 161.558C146.877 160.08 147.787 158.867 148.924 157.92C150.061 156.973 151.292 156.271 152.618 155.816C153.982 155.324 155.328 155.078 156.654 155.078C157.942 155.078 159.003 155.21 159.837 155.476C160.671 155.703 161.335 155.968 161.827 156.271C162.32 156.537 162.699 156.765 162.964 156.954C163.57 157.333 164.063 157.636 164.441 157.863C164.858 158.091 165.294 158.204 165.749 158.204C166.317 158.204 166.867 158.015 167.397 157.636C167.966 157.219 168.553 156.575 169.159 155.703C169.5 155.21 169.747 154.756 169.898 154.339C170.088 153.884 170.183 153.429 170.183 152.975C170.145 152.103 169.822 151.402 169.216 150.871C168.61 150.341 167.965 149.867 167.283 149.45C167.056 149.261 166.487 148.939 165.578 148.484C164.669 147.992 163.494 147.518 162.054 147.063C160.614 146.609 158.928 146.381 156.995 146.381ZM114.933 146.779C114.137 146.779 113.36 147.006 112.603 147.461C111.883 147.916 111.333 148.522 110.954 149.28L96.0049 180.373C95.5123 181.32 95.2469 182.154 95.209 182.874C95.1712 183.556 95.3606 184.162 95.7773 184.692C96.2321 185.185 96.9522 185.659 97.9375 186.113C99.4531 186.833 100.609 187.042 101.404 186.739C102.238 186.474 103.034 185.602 103.792 184.124L107.063 177.246H122.729L126.017 184.124C126.737 185.64 127.514 186.531 128.348 186.796C129.181 187.099 130.356 186.891 131.872 186.171C132.857 185.678 133.558 185.185 133.975 184.692C134.429 184.162 134.638 183.575 134.601 182.931C134.563 182.249 134.316 181.434 133.861 180.486L118.854 149.337C118.589 148.807 118.249 148.352 117.832 147.973C117.453 147.594 117.017 147.31 116.524 147.12C116.032 146.893 115.501 146.779 114.933 146.779ZM34.7529 146.779C33.0858 146.779 31.9304 147.082 31.2861 147.688C30.642 148.295 30.3194 149.431 30.3193 151.099V182.191C30.3193 182.911 30.3766 183.613 30.4902 184.295C30.6418 184.977 31.0207 185.527 31.627 185.943C32.2333 186.322 33.219 186.512 34.583 186.512C36.0224 186.512 37.0263 186.322 37.5947 185.943C38.201 185.527 38.5808 184.996 38.7324 184.352C38.884 183.669 38.959 182.968 38.959 182.248V170.255H50.5557C51.3512 170.255 52.0333 170.198 52.6016 170.084C53.2078 169.97 53.6814 169.667 54.0225 169.175C54.3635 168.644 54.5342 167.772 54.5342 166.56C54.5341 165.309 54.3634 164.419 54.0225 163.889C53.6814 163.358 53.2079 163.036 52.6016 162.922C52.0332 162.808 51.3701 162.752 50.6123 162.752H38.959V155.419H56.126C56.8837 155.419 57.5845 155.362 58.2285 155.248C58.9106 155.096 59.4601 154.718 59.877 154.111C60.2937 153.505 60.5029 152.52 60.5029 151.156C60.5029 149.716 60.2938 148.692 59.877 148.086C59.4981 147.48 58.9868 147.12 58.3428 147.006C57.6986 146.854 56.9972 146.779 56.2393 146.779H34.7529ZM70.0596 146.779C68.6579 146.779 67.6541 146.988 67.0479 147.404C66.4415 147.821 66.0617 148.352 65.9102 148.996C65.7965 149.64 65.7403 150.341 65.7402 151.099V182.191C65.7402 182.911 65.8162 183.613 65.9678 184.295C66.1194 184.977 66.4983 185.527 67.1045 185.943C67.7108 186.322 68.6958 186.512 70.0596 186.512H89.9551C90.5992 186.512 91.1864 186.454 91.7168 186.341C92.2851 186.227 92.7588 185.905 93.1377 185.375C93.5166 184.807 93.7061 183.935 93.7061 182.76C93.706 181.547 93.5166 180.676 93.1377 180.146C92.7966 179.615 92.3419 179.292 91.7734 179.179C91.2052 179.065 90.5991 179.009 89.9551 179.009H74.3799V151.099C74.3799 150.341 74.3039 149.64 74.1523 148.996C74.0387 148.352 73.6786 147.821 73.0723 147.404C72.5038 146.988 71.4994 146.779 70.0596 146.779ZM119.224 169.914H110.551L114.876 160.819L119.224 169.914ZM141.312 32.2578C139.826 30.8561 137.755 30.1862 135.726 30.5L78.8213 38.8691C75.7671 39.3085 73.403 41.7977 73.1309 44.873L68.2773 97.6602C66.562 97.1581 64.7421 96.907 62.8594 96.9697C54.1982 97.2836 47.1471 104.292 46.7705 112.954C46.3522 122.536 54.0095 130.424 63.4863 130.424C72.4194 130.424 79.721 123.415 80.2021 114.606C80.244 113.791 80.2855 112.996 80.3691 112.18L84.9717 62.3438L128.257 55.9834L125.328 87.8477C123.759 87.3665 122.106 87.1153 120.37 87.1152C111.332 87.1362 103.863 94.4588 103.675 103.497C103.487 112.912 111.039 120.591 120.411 120.591C129.323 120.591 136.604 113.623 137.127 104.836C137.166 104.056 137.223 103.276 137.281 102.479L137.295 102.305L143.403 37.7178C143.55 35.6886 142.797 33.6804 141.312 32.2578Z" fill="#00BECA"/>
</svg>
