<svg width="200" height="200" viewBox="0 0 200 200" fill="none" xmlns="http://www.w3.org/2000/svg">
<path d="M176 0C189.255 0 200 10.7452 200 24V176C200 189.255 189.255 200 176 200H24C10.7452 200 0 189.255 0 176V24C0 10.7452 10.7452 0 24 0H176ZM139.655 146.211C137.723 146.211 136.055 146.438 134.653 146.893C133.289 147.347 132.133 147.916 131.186 148.598C130.238 149.28 129.462 149.981 128.855 150.701C128.287 151.383 127.87 151.989 127.604 152.52C127.339 153.012 127.169 153.297 127.093 153.373C126.525 154.585 126.335 155.628 126.524 156.499C126.752 157.371 127.51 158.204 128.798 159C130.2 159.796 131.375 160.061 132.322 159.796C133.308 159.531 134.122 158.735 134.767 157.408C135.108 156.878 135.487 156.385 135.903 155.931C136.358 155.476 136.908 155.135 137.552 154.907C138.234 154.642 139.087 154.51 140.11 154.51C141.057 154.51 141.872 154.661 142.554 154.964C143.274 155.267 143.823 155.722 144.202 156.328C144.619 156.897 144.828 157.579 144.828 158.375C144.828 159.019 144.639 159.569 144.26 160.023C143.919 160.44 143.407 160.762 142.725 160.989C142.043 161.217 141.19 161.33 140.167 161.33C139.371 161.33 138.632 161.387 137.95 161.501C137.268 161.577 136.719 161.899 136.302 162.468C135.885 162.998 135.676 163.964 135.676 165.366C135.676 166.768 135.885 167.754 136.302 168.322C136.719 168.891 137.268 169.232 137.95 169.346C138.632 169.459 139.353 169.516 140.11 169.516C141.247 169.516 142.232 169.686 143.065 170.027C143.937 170.368 144.62 170.88 145.112 171.562C145.605 172.245 145.851 173.078 145.851 174.063C145.851 174.935 145.586 175.73 145.056 176.45C144.563 177.132 143.843 177.682 142.896 178.099C141.986 178.478 140.887 178.667 139.599 178.667C138.235 178.667 137.117 178.44 136.245 177.985C135.412 177.493 134.767 176.943 134.312 176.337C133.858 175.731 133.573 175.238 133.459 174.859C133.156 174.064 132.872 173.457 132.606 173.04C132.341 172.585 131.962 172.282 131.47 172.131C131.015 171.941 130.333 171.847 129.424 171.847C126.279 171.847 124.706 172.87 124.706 174.916C124.744 176.507 125.142 178.042 125.899 179.52C126.695 180.96 127.775 182.249 129.14 183.386C130.504 184.522 132.077 185.412 133.857 186.057C135.638 186.739 137.533 187.08 139.541 187.08C142.459 187.08 145.037 186.512 147.272 185.375C149.508 184.2 151.27 182.628 152.559 180.657C153.847 178.687 154.491 176.45 154.491 173.949C154.491 172.888 154.32 171.903 153.979 170.994C153.638 170.085 153.202 169.27 152.672 168.55C152.179 167.792 151.611 167.148 150.967 166.617C150.361 166.087 149.773 165.688 149.205 165.423C149.773 165.158 150.398 164.722 151.08 164.116C151.762 163.472 152.331 162.657 152.786 161.672C153.279 160.687 153.524 159.512 153.524 158.147C153.524 156.707 153.222 155.286 152.615 153.884C152.009 152.482 151.118 151.213 149.943 150.076C148.769 148.901 147.31 147.972 145.566 147.29C143.861 146.57 141.891 146.211 139.655 146.211ZM82.749 146.836C81.8774 146.836 81.1948 146.873 80.7021 146.949C80.2475 147.025 79.8686 147.158 79.5654 147.348C79.2623 147.537 78.9593 147.821 78.6562 148.2L66.2363 164.905L53.873 148.2C53.6078 147.935 53.3612 147.707 53.1338 147.518C52.9064 147.29 52.5462 147.12 52.0537 147.006C51.5611 146.892 50.8407 146.836 49.8936 146.836C48.4917 146.836 47.4871 147.044 46.8809 147.461C46.2747 147.878 45.8957 148.409 45.7441 149.053C45.5926 149.659 45.5176 150.322 45.5176 151.042V182.135C45.5176 182.893 45.5926 183.613 45.7441 184.295C45.8957 184.939 46.2558 185.47 46.8242 185.887C47.4305 186.304 48.4161 186.512 49.7803 186.512C51.1824 186.512 52.1679 186.304 52.7363 185.887C53.3426 185.47 53.7214 184.939 53.873 184.295C54.0246 183.651 54.1006 182.968 54.1006 182.248V161.899L62.5127 173.836C62.7022 174.063 62.93 174.329 63.1953 174.632C63.4606 174.935 63.8208 175.2 64.2754 175.428C64.768 175.655 65.4312 175.769 66.2646 175.769C67.0604 175.769 67.6859 175.655 68.1406 175.428C68.6332 175.2 69.0121 174.935 69.2773 174.632C69.5426 174.291 69.7508 174.025 69.9023 173.836L78.3721 161.842V182.135C78.3721 182.855 78.448 183.556 78.5996 184.238C78.7513 184.92 79.1301 185.47 79.7363 185.887C80.3426 186.303 81.3277 186.512 82.6914 186.512C84.0932 186.512 85.0977 186.303 85.7041 185.887C86.3104 185.47 86.6902 184.939 86.8418 184.295C86.9934 183.651 87.0684 182.968 87.0684 182.248V151.156C87.0684 150.436 86.9934 149.754 86.8418 149.109C86.6902 148.427 86.3104 147.878 85.7041 147.461C85.0978 147.044 84.1128 146.836 82.749 146.836ZM96.417 146.779C95.0151 146.779 94.0106 146.988 93.4043 147.404C92.798 147.821 92.4182 148.371 92.2666 149.053C92.1151 149.697 92.0401 150.379 92.04 151.099V182.135C92.04 182.855 92.115 183.556 92.2666 184.238C92.4182 184.92 92.7784 185.47 93.3467 185.887C93.9529 186.304 94.9574 186.512 96.3594 186.512C97.7612 186.512 98.7657 186.303 99.3721 185.887C99.9783 185.47 100.357 184.939 100.509 184.295C100.66 183.613 100.736 182.911 100.736 182.191V174.745H108.013C109.604 174.745 111.214 174.461 112.844 173.893C114.473 173.286 115.97 172.415 117.334 171.278C118.736 170.104 119.855 168.644 120.688 166.901C121.56 165.158 121.995 163.131 121.995 160.819C121.995 158.47 121.56 156.423 120.688 154.68C119.855 152.937 118.736 151.477 117.334 150.303C115.97 149.09 114.473 148.2 112.844 147.632C111.252 147.063 109.661 146.779 108.069 146.779H96.417ZM108.013 155.419C109.074 155.419 110.002 155.646 110.798 156.101C111.631 156.555 112.276 157.181 112.73 157.977C113.185 158.772 113.412 159.701 113.412 160.762C113.412 162.012 113.128 163.036 112.56 163.832C112.029 164.628 111.347 165.215 110.514 165.594C109.718 165.935 108.903 166.105 108.069 166.105H100.736V155.419H108.013ZM141.312 32.2578C139.826 30.8561 137.755 30.1862 135.726 30.5L78.8213 38.8691C75.7671 39.3085 73.403 41.7977 73.1309 44.873L68.2773 97.6602C66.562 97.1581 64.7421 96.907 62.8594 96.9697C54.1982 97.2836 47.1471 104.292 46.7705 112.954C46.3522 122.536 54.0095 130.424 63.4863 130.424C72.4194 130.424 79.721 123.415 80.2021 114.606C80.244 113.791 80.2855 112.996 80.3691 112.18L84.9717 62.3438L128.257 55.9834L125.328 87.8477C123.759 87.3665 122.106 87.1153 120.37 87.1152C111.332 87.1362 103.863 94.4588 103.675 103.497C103.487 112.912 111.039 120.591 120.411 120.591C129.323 120.591 136.604 113.623 137.127 104.836C137.166 104.056 137.223 103.276 137.281 102.479L137.295 102.305L143.403 37.7178C143.55 35.6886 142.797 33.6804 141.312 32.2578Z" fill="#00BECA"/>
</svg>
