<svg width="200" height="200" viewBox="0 0 200 200" fill="none" xmlns="http://www.w3.org/2000/svg">
<path d="M176 0C189.255 0 200 10.7452 200 24V176C200 189.255 189.255 200 176 200H24C10.7452 200 0 189.255 0 176V24C0 10.7452 10.7452 0 24 0H176ZM109.104 146.779C108.308 146.779 107.531 147.006 106.773 147.461C106.053 147.916 105.504 148.522 105.125 149.28L90.1758 180.373C89.6832 181.32 89.4178 182.154 89.3799 182.874C89.3421 183.556 89.5315 184.162 89.9482 184.692C90.403 185.185 91.1231 185.659 92.1084 186.113C93.6239 186.833 94.7794 187.042 95.5752 186.739C96.4089 186.474 97.205 185.602 97.9629 184.124L101.234 177.246H116.9L120.188 184.124C120.908 185.64 121.685 186.531 122.519 186.796C123.352 187.099 124.527 186.891 126.043 186.171C127.028 185.678 127.73 185.185 128.146 184.692C128.601 184.162 128.809 183.575 128.771 182.931C128.734 182.249 128.487 181.434 128.032 180.486L113.026 149.337C112.761 148.806 112.42 148.352 112.003 147.973C111.624 147.594 111.188 147.31 110.695 147.12C110.203 146.893 109.672 146.779 109.104 146.779ZM128.066 146.381C127.384 146.381 126.551 146.665 125.565 147.233C124.126 147.915 123.235 148.655 122.894 149.45C122.59 150.208 122.742 151.288 123.349 152.69L137.104 184.124C137.445 184.92 137.975 185.527 138.695 185.943C139.453 186.322 140.363 186.512 141.424 186.512C142.371 186.512 143.205 186.303 143.925 185.887C144.683 185.432 145.232 184.844 145.573 184.124L159.329 152.861C159.935 151.497 160.125 150.417 159.897 149.621C159.708 148.787 158.798 147.991 157.169 147.233C156.184 146.665 155.331 146.381 154.611 146.381C153.891 146.381 153.266 146.627 152.735 147.12C152.243 147.613 151.807 148.352 151.428 149.337L141.311 174.348L131.249 149.166C130.87 148.219 130.415 147.518 129.885 147.063C129.392 146.571 128.786 146.343 128.066 146.381ZM83.2598 146.495C82.5777 146.571 82.0094 146.874 81.5547 147.404C81.1379 147.897 80.759 148.674 80.418 149.734L73.3691 170.88L67.3438 149.905C67.2301 149.64 67.0594 149.261 66.832 148.769C66.6047 148.276 66.1883 147.821 65.582 147.404C65.0136 146.987 64.1415 146.779 62.9668 146.779C61.9439 146.779 61.1484 146.969 60.5801 147.348C60.0118 147.727 59.5944 148.162 59.3291 148.654C59.1017 149.147 58.9311 149.583 58.8174 149.962L52.8496 170.767L45.7441 149.678C45.4032 148.617 45.0054 147.84 44.5508 147.348C44.134 146.855 43.5843 146.59 42.9023 146.552C42.2581 146.514 41.4048 146.665 40.3438 147.006C38.7144 147.536 37.7297 148.2 37.3887 148.996C37.0477 149.754 37.1228 150.928 37.6152 152.52L48.3018 183.499C48.3775 183.688 48.5295 184.03 48.7568 184.522C49.022 185.015 49.4388 185.45 50.0068 185.829C50.5753 186.208 51.3526 186.397 52.3379 186.397C53.3989 186.397 54.2138 186.189 54.7822 185.772C55.3883 185.318 55.8236 184.825 56.0889 184.295C56.3541 183.765 56.506 183.404 56.5439 183.215L63.0811 162.013L69.6182 183.215C69.694 183.404 69.845 183.765 70.0723 184.295C70.3375 184.788 70.7736 185.261 71.3799 185.716C71.9862 186.171 72.8011 186.397 73.8242 186.397C74.8851 186.397 75.6804 186.208 76.2109 185.829C76.7793 185.45 77.1779 185.034 77.4053 184.579C77.6705 184.086 77.8412 183.726 77.917 183.499L88.6025 152.52C88.9056 151.459 89.0389 150.606 89.001 149.962C89.0009 149.28 88.7731 148.712 88.3184 148.257C87.8636 147.802 87.0682 147.366 85.9316 146.949C84.8706 146.57 83.9798 146.419 83.2598 146.495ZM113.395 169.914H104.722L109.047 160.819L113.395 169.914ZM141.312 32.2578C139.826 30.8561 137.755 30.1862 135.726 30.5L78.8213 38.8691C75.7671 39.3085 73.403 41.7977 73.1309 44.873L68.2773 97.6602C66.562 97.1581 64.7421 96.907 62.8594 96.9697C54.1982 97.2836 47.1471 104.292 46.7705 112.954C46.3522 122.536 54.0095 130.424 63.4863 130.424C72.4194 130.424 79.721 123.415 80.2021 114.606C80.244 113.791 80.2855 112.996 80.3691 112.18L84.9717 62.3438L128.257 55.9834L125.328 87.8477C123.759 87.3665 122.106 87.1153 120.37 87.1152C111.332 87.1362 103.863 94.4588 103.675 103.497C103.487 112.912 111.039 120.591 120.411 120.591C129.323 120.591 136.604 113.623 137.127 104.836C137.166 104.056 137.223 103.276 137.281 102.479L137.295 102.305L143.403 37.7178C143.55 35.6886 142.797 33.6804 141.312 32.2578Z" fill="#00BECA"/>
</svg>
